<mxfile host="app.diagrams.net" agent="Mozilla/5.0 (Windows NT 10.0; Win64; x64) AppleWebKit/537.36 (KHTML, like Gecko) Chrome/134.0.0.0 Safari/537.36" version="26.1.3">
  <diagram name="Page-1" id="lDW6nqkNnva45OEa3Kiu">
    <mxGraphModel dx="1050" dy="1665" grid="1" gridSize="10" guides="1" tooltips="1" connect="1" arrows="1" fold="1" page="1" pageScale="1" pageWidth="850" pageHeight="1100" math="0" shadow="0">
      <root>
        <mxCell id="0" />
        <mxCell id="1" parent="0" />
        <UserObject label="" plantUmlData="{&#xa;  &quot;data&quot;: &quot;@startuml\ntitle ThingsBoard Widget Library - Conceptual Architecture\n\npackage \&quot;ThingsBoard Widget Library\&quot; {\n  \n  package \&quot;Widget Core\&quot; {\n    class WidgetManager {\n      - registerWidget()\n      - unregisterWidget()\n    }\n    class WidgetContainer {\n      - renderWidget()\n    }\n  }\n\n  package \&quot;Widget Types\&quot; {\n    class ChartWidget {\n      - renderLineChart()\n      - renderBarChart()\n    }\n    class MapWidget {\n      - renderMap()\n    }\n    class TableWidget {\n      - renderTable()\n    }\n  }\n\n  package \&quot;Data Handlers\&quot; {\n    class TelemetryService {\n      - fetchData(deviceId)\n    }\n    class APIClient {\n      - get(url)\n      - post(url, data)\n    }\n  }\n\n  package \&quot;UI Components\&quot; {\n    class WidgetEditor {\n      - configureWidget()\n    }\n    class WidgetRenderer {\n      - updateUI()\n    }\n  }\n\n  WidgetManager --&gt; WidgetContainer\n  WidgetContainer --&gt; WidgetRenderer\n  WidgetRenderer --&gt; WidgetTypes\n  WidgetTypes --&gt; TelemetryService\n  TelemetryService --&gt; APIClient\n\n  WidgetEditor --&gt; WidgetContainer\n}\n\n@enduml\n&quot;,&#xa;  &quot;format&quot;: &quot;svg&quot;&#xa;}" id="MHvC_7Tn7mc6slhfHnne-4">
          <mxCell style="shape=image;noLabel=1;verticalAlign=top;aspect=fixed;imageAspect=0;image=data:image/svg+xml,PD94bWwgdmVyc2lvbj0iMS4wIiBlbmNvZGluZz0idXMtYXNjaWkiIHN0YW5kYWxvbmU9Im5vIj8+PHN2ZyB4bWxucz0iaHR0cDovL3d3dy53My5vcmcvMjAwMC9zdmciIHhtbG5zOnhsaW5rPSJodHRwOi8vd3d3LnczLm9yZy8xOTk5L3hsaW5rIiBjb250ZW50U3R5bGVUeXBlPSJ0ZXh0L2NzcyIgaGVpZ2h0PSI4NjhweCIgcHJlc2VydmVBc3BlY3RSYXRpbz0ibm9uZSIgc3R5bGU9IndpZHRoOjU5MXB4O2hlaWdodDo4NjhweDtiYWNrZ3JvdW5kOiNGRkZGRkY7IiB2ZXJzaW9uPSIxLjEiIHZpZXdCb3g9IjAgMCA1OTEgODY4IiB3aWR0aD0iNTkxcHgiIHpvb21BbmRQYW49Im1hZ25pZnkiPjxkZWZzLz48Zz48dGV4dCBmaWxsPSIjMDAwMDAwIiBmb250LWZhbWlseT0ic2Fucy1zZXJpZiIgZm9udC1zaXplPSIxNCIgZm9udC13ZWlnaHQ9ImJvbGQiIGxlbmd0aEFkanVzdD0ic3BhY2luZyIgdGV4dExlbmd0aD0iMzY0IiB4PSIxMDYuNSIgeT0iMjMuMjM0NCI+VGhpbmdzQm9hcmQgV2lkZ2V0IExpYnJhcnkgLSBDb25jZXB0dWFsIEFyY2hpdGVjdHVyZTwvdGV4dD48IS0tY2x1c3RlciBUaGluZ3NCb2FyZCBXaWRnZXQgTGlicmFyeS0tPjxnIGlkPSJjbHVzdGVyX1RoaW5nc0JvYXJkIFdpZGdldCBMaWJyYXJ5Ij48cGF0aCBkPSJNOC41LDQxLjk4NDQgTDE5MS41LDQxLjk4NDQgQTMuNzUsMy43NSAwIDAgMSAxOTQsNDQuNDg0NCBMMjAxLDYyLjk2ODggTDU4MS41LDYyLjk2ODggQTIuNSwyLjUgMCAwIDEgNTg0LDY1LjQ2ODggTDU4NCw4NTkuNDg0NCBBMi41LDIuNSAwIDAgMSA1ODEuNSw4NjEuOTg0NCBMOC41LDg2MS45ODQ0IEEyLjUsMi41IDAgMCAxIDYsODU5LjQ4NDQgTDYsNDQuNDg0NCBBMi41LDIuNSAwIDAgMSA4LjUsNDEuOTg0NCAiIGZpbGw9Im5vbmUiIHN0eWxlPSJzdHJva2U6IzAwMDAwMDtzdHJva2Utd2lkdGg6MS41OyIvPjxsaW5lIHN0eWxlPSJzdHJva2U6IzAwMDAwMDtzdHJva2Utd2lkdGg6MS41OyIgeDE9IjYiIHgyPSIyMDEiIHkxPSI2Mi45Njg4IiB5Mj0iNjIuOTY4OCIvPjx0ZXh0IGZpbGw9IiMwMDAwMDAiIGZvbnQtZmFtaWx5PSJzYW5zLXNlcmlmIiBmb250LXNpemU9IjE0IiBmb250LXdlaWdodD0iYm9sZCIgbGVuZ3RoQWRqdXN0PSJzcGFjaW5nIiB0ZXh0TGVuZ3RoPSIxODIiIHg9IjEwIiB5PSI1Ny4yMTg4Ij5UaGluZ3NCb2FyZCBXaWRnZXQgTGlicmFyeTwvdGV4dD48L2c+PCEtLWNsdXN0ZXIgV2lkZ2V0IENvcmUtLT48ZyBpZD0iY2x1c3Rlcl9XaWRnZXQgQ29yZSI+PHBhdGggZD0iTTM3Ni41LDgyLjk4NDQgTDQ1NC41LDgyLjk4NDQgQTMuNzUsMy43NSAwIDAgMSA0NTcsODUuNDg0NCBMNDY0LDEwMy45Njg4IEw1NTcuNSwxMDMuOTY4OCBBMi41LDIuNSAwIDAgMSA1NjAsMTA2LjQ2ODggTDU2MCwzMzAuNDg0NCBBMi41LDIuNSAwIDAgMSA1NTcuNSwzMzIuOTg0NCBMMzc2LjUsMzMyLjk4NDQgQTIuNSwyLjUgMCAwIDEgMzc0LDMzMC40ODQ0IEwzNzQsODUuNDg0NCBBMi41LDIuNSAwIDAgMSAzNzYuNSw4Mi45ODQ0ICIgZmlsbD0ibm9uZSIgc3R5bGU9InN0cm9rZTojMDAwMDAwO3N0cm9rZS13aWR0aDoxLjU7Ii8+PGxpbmUgc3R5bGU9InN0cm9rZTojMDAwMDAwO3N0cm9rZS13aWR0aDoxLjU7IiB4MT0iMzc0IiB4Mj0iNDY0IiB5MT0iMTAzLjk2ODgiIHkyPSIxMDMuOTY4OCIvPjx0ZXh0IGZpbGw9IiMwMDAwMDAiIGZvbnQtZmFtaWx5PSJzYW5zLXNlcmlmIiBmb250LXNpemU9IjE0IiBmb250LXdlaWdodD0iYm9sZCIgbGVuZ3RoQWRqdXN0PSJzcGFjaW5nIiB0ZXh0TGVuZ3RoPSI3NyIgeD0iMzc4IiB5PSI5OC4yMTg4Ij5XaWRnZXQgQ29yZTwvdGV4dD48L2c+PCEtLWNsdXN0ZXIgV2lkZ2V0IFR5cGVzLS0+PGcgaWQ9ImNsdXN0ZXJfV2lkZ2V0IFR5cGVzIj48cGF0aCBkPSJNMzIuNSw4Mi45ODQ0IEwxMTcuNSw4Mi45ODQ0IEEzLjc1LDMuNzUgMCAwIDEgMTIwLDg1LjQ4NDQgTDEyNywxMDMuOTY4OCBMMzQ3LjUsMTAzLjk2ODggQTIuNSwyLjUgMCAwIDEgMzUwLDEwNi40Njg4IEwzNTAsMzMwLjQ4NDQgQTIuNSwyLjUgMCAwIDEgMzQ3LjUsMzMyLjk4NDQgTDMyLjUsMzMyLjk4NDQgQTIuNSwyLjUgMCAwIDEgMzAsMzMwLjQ4NDQgTDMwLDg1LjQ4NDQgQTIuNSwyLjUgMCAwIDEgMzIuNSw4Mi45ODQ0ICIgZmlsbD0ibm9uZSIgc3R5bGU9InN0cm9rZTojMDAwMDAwO3N0cm9rZS13aWR0aDoxLjU7Ii8+PGxpbmUgc3R5bGU9InN0cm9rZTojMDAwMDAwO3N0cm9rZS13aWR0aDoxLjU7IiB4MT0iMzAiIHgyPSIxMjciIHkxPSIxMDMuOTY4OCIgeTI9IjEwMy45Njg4Ii8+PHRleHQgZmlsbD0iIzAwMDAwMCIgZm9udC1mYW1pbHk9InNhbnMtc2VyaWYiIGZvbnQtc2l6ZT0iMTQiIGZvbnQtd2VpZ2h0PSJib2xkIiBsZW5ndGhBZGp1c3Q9InNwYWNpbmciIHRleHRMZW5ndGg9Ijg0IiB4PSIzNCIgeT0iOTguMjE4OCI+V2lkZ2V0IFR5cGVzPC90ZXh0PjwvZz48IS0tY2x1c3RlciBEYXRhIEhhbmRsZXJzLS0+PGcgaWQ9ImNsdXN0ZXJfRGF0YSBIYW5kbGVycyI+PHBhdGggZD0iTTE5OS41LDU4Ny45ODQ0IEwyOTEuNSw1ODcuOTg0NCBBMy43NSwzLjc1IDAgMCAxIDI5NCw1OTAuNDg0NCBMMzAxLDYwOC45Njg4IEwzODguNSw2MDguOTY4OCBBMi41LDIuNSAwIDAgMSAzOTEsNjExLjQ2ODggTDM5MSw4MzUuNDg0NCBBMi41LDIuNSAwIDAgMSAzODguNSw4MzcuOTg0NCBMMTk5LjUsODM3Ljk4NDQgQTIuNSwyLjUgMCAwIDEgMTk3LDgzNS40ODQ0IEwxOTcsNTkwLjQ4NDQgQTIuNSwyLjUgMCAwIDEgMTk5LjUsNTg3Ljk4NDQgIiBmaWxsPSJub25lIiBzdHlsZT0ic3Ryb2tlOiMwMDAwMDA7c3Ryb2tlLXdpZHRoOjEuNTsiLz48bGluZSBzdHlsZT0ic3Ryb2tlOiMwMDAwMDA7c3Ryb2tlLXdpZHRoOjEuNTsiIHgxPSIxOTciIHgyPSIzMDEiIHkxPSI2MDguOTY4OCIgeTI9IjYwOC45Njg4Ii8+PHRleHQgZmlsbD0iIzAwMDAwMCIgZm9udC1mYW1pbHk9InNhbnMtc2VyaWYiIGZvbnQtc2l6ZT0iMTQiIGZvbnQtd2VpZ2h0PSJib2xkIiBsZW5ndGhBZGp1c3Q9InNwYWNpbmciIHRleHRMZW5ndGg9IjkxIiB4PSIyMDEiIHk9IjYwMy4yMTg4Ij5EYXRhIEhhbmRsZXJzPC90ZXh0PjwvZz48IS0tY2x1c3RlciBVSSBDb21wb25lbnRzLS0+PGcgaWQ9ImNsdXN0ZXJfVUkgQ29tcG9uZW50cyI+PHBhdGggZD0iTTIxNS41LDM1Ni45ODQ0IEwzMDguNSwzNTYuOTg0NCBBMy43NSwzLjc1IDAgMCAxIDMxMSwzNTkuNDg0NCBMMzE4LDM3Ny45Njg4IEw1NTUuNSwzNzcuOTY4OCBBMi41LDIuNSAwIDAgMSA1NTgsMzgwLjQ2ODggTDU1OCw0NjYuNDg0NCBBMi41LDIuNSAwIDAgMSA1NTUuNSw0NjguOTg0NCBMMjE1LjUsNDY4Ljk4NDQgQTIuNSwyLjUgMCAwIDEgMjEzLDQ2Ni40ODQ0IEwyMTMsMzU5LjQ4NDQgQTIuNSwyLjUgMCAwIDEgMjE1LjUsMzU2Ljk4NDQgIiBmaWxsPSJub25lIiBzdHlsZT0ic3Ryb2tlOiMwMDAwMDA7c3Ryb2tlLXdpZHRoOjEuNTsiLz48bGluZSBzdHlsZT0ic3Ryb2tlOiMwMDAwMDA7c3Ryb2tlLXdpZHRoOjEuNTsiIHgxPSIyMTMiIHgyPSIzMTgiIHkxPSIzNzcuOTY4OCIgeTI9IjM3Ny45Njg4Ii8+PHRleHQgZmlsbD0iIzAwMDAwMCIgZm9udC1mYW1pbHk9InNhbnMtc2VyaWYiIGZvbnQtc2l6ZT0iMTQiIGZvbnQtd2VpZ2h0PSJib2xkIiBsZW5ndGhBZGp1c3Q9InNwYWNpbmciIHRleHRMZW5ndGg9IjkyIiB4PSIyMTciIHk9IjM3Mi4yMTg4Ij5VSSBDb21wb25lbnRzPC90ZXh0PjwvZz48IS0tY2xhc3MgV2lkZ2V0VHlwZXMtLT48ZyBpZD0iZWxlbV9XaWRnZXRUeXBlcyI+PHJlY3QgZmlsbD0iI0YxRjFGMSIgaGVpZ2h0PSI0OCIgaWQ9IldpZGdldFR5cGVzIiByeD0iMi41IiByeT0iMi41IiBzdHlsZT0ic3Ryb2tlOiMxODE4MTg7c3Ryb2tlLXdpZHRoOjAuNTsiIHdpZHRoPSIxMDkiIHg9IjIzOS41IiB5PSI1MTIuOTg0NCIvPjxlbGxpcHNlIGN4PSIyNTQuNSIgY3k9IjUyOC45ODQ0IiBmaWxsPSIjQUREMUIyIiByeD0iMTEiIHJ5PSIxMSIgc3R5bGU9InN0cm9rZTojMTgxODE4O3N0cm9rZS13aWR0aDoxLjA7Ii8+PHBhdGggZD0iTTI1Mi4xMjUsNTMzLjIzNDQgTDI1Mi4xMjUsNTM0Ljk4NDQgTDI1Ny4wNjI1LDUzNC45ODQ0IEwyNTcuMDYyNSw1MzMuMjM0NCBMMjUyLjEyNSw1MzMuMjM0NCBaIE0yNTIuODEyNSw1MzMuOTIxOSBRMjUyLjgxMjUsNTMzLjkyMTkgMjUyLjgxMjUsNTI0LjczNDQgTDI1MS4wNjI1LDUyNC43MzQ0IFEyNTEuMDYyNSw1MjQuNzM0NCAyNTEuMDYyNSw1MzMuOTIxOSBMMjUyLjgxMjUsNTMzLjkyMTkgWiBNMjU2LjM3NSw1MzMuOTIxOSBMMjU4LjEyNSw1MzMuOTIxOSBRMjU4LjEyNSw1MzMuOTIxOSAyNTguMTI1LDUzMS4xMDk0IEwyNTYuMzc1LDUzMS4xMDk0IFEyNTYuMzc1LDUzMS4xMDk0IDI1Ni4zNzUsNTMzLjkyMTkgWiBNMjU2LjM3NSw1MjQuNzM0NCBRMjU2LjM3NSw1MjQuNzM0NCAyNTYuMzc1LDUyNy41NDY5IEwyNTguMTI1LDUyNy41NDY5IFEyNTguMTI1LDUyNy41NDY5IDI1OC4xMjUsNTI0LjczNDQgTDI1Ni4zNzUsNTI0LjczNDQgWiBNMjUyLjEyNSw1MjUuNDIxOSBMMjU3LjA2MjUsNTI1LjQyMTkgTDI1Ny4wNjI1LDUyMy42NzE5IEwyNTIuMTI1LDUyMy42NzE5IEwyNTIuMTI1LDUyNS40MjE5IFogIiBmaWxsPSIjMDAwMDAwIi8+PHRleHQgZmlsbD0iIzAwMDAwMCIgZm9udC1mYW1pbHk9InNhbnMtc2VyaWYiIGZvbnQtc2l6ZT0iMTQiIGxlbmd0aEFkanVzdD0ic3BhY2luZyIgdGV4dExlbmd0aD0iNzciIHg9IjI2OC41IiB5PSI1MzQuNzI2NiI+V2lkZ2V0VHlwZXM8L3RleHQ+PGxpbmUgc3R5bGU9InN0cm9rZTojMTgxODE4O3N0cm9rZS13aWR0aDowLjU7IiB4MT0iMjQwLjUiIHgyPSIzNDcuNSIgeTE9IjU0NC45ODQ0IiB5Mj0iNTQ0Ljk4NDQiLz48bGluZSBzdHlsZT0ic3Ryb2tlOiMxODE4MTg7c3Ryb2tlLXdpZHRoOjAuNTsiIHgxPSIyNDAuNSIgeDI9IjM0Ny41IiB5MT0iNTUyLjk4NDQiIHkyPSI1NTIuOTg0NCIvPjwvZz48IS0tY2xhc3MgV2lkZ2V0TWFuYWdlci0tPjxnIGlkPSJlbGVtX1dpZGdldE1hbmFnZXIiPjxyZWN0IGNvZGVMaW5lPSI2IiBmaWxsPSIjRjFGMUYxIiBoZWlnaHQ9Ijc3Ljk2ODgiIGlkPSJXaWRnZXRNYW5hZ2VyIiByeD0iMi41IiByeT0iMi41IiBzdHlsZT0ic3Ryb2tlOiMxODE4MTg7c3Ryb2tlLXdpZHRoOjAuNTsiIHdpZHRoPSIxNTQiIHg9IjM5MCIgeT0iMTE1Ljk4NDQiLz48ZWxsaXBzZSBjeD0iNDE4Ljk1IiBjeT0iMTMxLjk4NDQiIGZpbGw9IiNBREQxQjIiIHJ4PSIxMSIgcnk9IjExIiBzdHlsZT0ic3Ryb2tlOiMxODE4MTg7c3Ryb2tlLXdpZHRoOjEuMDsiLz48cGF0aCBkPSJNNDE2LjU3NSwxMzYuMjM0NCBMNDE2LjU3NSwxMzcuOTg0NCBMNDIxLjUxMjUsMTM3Ljk4NDQgTDQyMS41MTI1LDEzNi4yMzQ0IEw0MTYuNTc1LDEzNi4yMzQ0IFogTTQxNy4yNjI1LDEzNi45MjE5IFE0MTcuMjYyNSwxMzYuOTIxOSA0MTcuMjYyNSwxMjcuNzM0NCBMNDE1LjUxMjUsMTI3LjczNDQgUTQxNS41MTI1LDEyNy43MzQ0IDQxNS41MTI1LDEzNi45MjE5IEw0MTcuMjYyNSwxMzYuOTIxOSBaIE00MjAuODI1LDEzNi45MjE5IEw0MjIuNTc1LDEzNi45MjE5IFE0MjIuNTc1LDEzNi45MjE5IDQyMi41NzUsMTM0LjEwOTQgTDQyMC44MjUsMTM0LjEwOTQgUTQyMC44MjUsMTM0LjEwOTQgNDIwLjgyNSwxMzYuOTIxOSBaIE00MjAuODI1LDEyNy43MzQ0IFE0MjAuODI1LDEyNy43MzQ0IDQyMC44MjUsMTMwLjU0NjkgTDQyMi41NzUsMTMwLjU0NjkgUTQyMi41NzUsMTMwLjU0NjkgNDIyLjU3NSwxMjcuNzM0NCBMNDIwLjgyNSwxMjcuNzM0NCBaIE00MTYuNTc1LDEyOC40MjE5IEw0MjEuNTEyNSwxMjguNDIxOSBMNDIxLjUxMjUsMTI2LjY3MTkgTDQxNi41NzUsMTI2LjY3MTkgTDQxNi41NzUsMTI4LjQyMTkgWiAiIGZpbGw9IiMwMDAwMDAiLz48dGV4dCBmaWxsPSIjMDAwMDAwIiBmb250LWZhbWlseT0ic2Fucy1zZXJpZiIgZm9udC1zaXplPSIxNCIgbGVuZ3RoQWRqdXN0PSJzcGFjaW5nIiB0ZXh0TGVuZ3RoPSI5MSIgeD0iNDM2LjA1IiB5PSIxMzcuNzI2NiI+V2lkZ2V0TWFuYWdlcjwvdGV4dD48bGluZSBzdHlsZT0ic3Ryb2tlOiMxODE4MTg7c3Ryb2tlLXdpZHRoOjAuNTsiIHgxPSIzOTEiIHgyPSI1NDMiIHkxPSIxNDcuOTg0NCIgeTI9IjE0Ny45ODQ0Ii8+PGxpbmUgc3R5bGU9InN0cm9rZTojMTgxODE4O3N0cm9rZS13aWR0aDowLjU7IiB4MT0iMzkxIiB4Mj0iNTQzIiB5MT0iMTU1Ljk4NDQiIHkyPSIxNTUuOTg0NCIvPjxyZWN0IGZpbGw9IiNGMjRENUMiIGhlaWdodD0iNiIgc3R5bGU9InN0cm9rZTojQzgyOTMwO3N0cm9rZS13aWR0aDoxLjA7IiB3aWR0aD0iNiIgeD0iMzk4IiB5PSIxNjUuOTc2NiIvPjx0ZXh0IGZpbGw9IiMwMDAwMDAiIGZvbnQtZmFtaWx5PSJzYW5zLXNlcmlmIiBmb250LXNpemU9IjE0IiBsZW5ndGhBZGp1c3Q9InNwYWNpbmciIHRleHRMZW5ndGg9IjExNCIgeD0iNDEwIiB5PSIxNzMuMjE4OCI+cmVnaXN0ZXJXaWRnZXQoKTwvdGV4dD48cmVjdCBmaWxsPSIjRjI0RDVDIiBoZWlnaHQ9IjYiIHN0eWxlPSJzdHJva2U6I0M4MjkzMDtzdHJva2Utd2lkdGg6MS4wOyIgd2lkdGg9IjYiIHg9IjM5OCIgeT0iMTgwLjk2MDkiLz48dGV4dCBmaWxsPSIjMDAwMDAwIiBmb250LWZhbWlseT0ic2Fucy1zZXJpZiIgZm9udC1zaXplPSIxNCIgbGVuZ3RoQWRqdXN0PSJzcGFjaW5nIiB0ZXh0TGVuZ3RoPSIxMjgiIHg9IjQxMCIgeT0iMTg4LjIwMzEiPnVucmVnaXN0ZXJXaWRnZXQoKTwvdGV4dD48L2c+PCEtLWNsYXNzIFdpZGdldENvbnRhaW5lci0tPjxnIGlkPSJlbGVtX1dpZGdldENvbnRhaW5lciI+PHJlY3QgY29kZUxpbmU9IjEwIiBmaWxsPSIjRjFGMUYxIiBoZWlnaHQ9IjYyLjk4NDQiIGlkPSJXaWRnZXRDb250YWluZXIiIHJ4PSIyLjUiIHJ5PSIyLjUiIHN0eWxlPSJzdHJva2U6IzE4MTgxODtzdHJva2Utd2lkdGg6MC41OyIgd2lkdGg9IjEzNyIgeD0iMzk4LjUiIHk9IjI1My45ODQ0Ii8+PGVsbGlwc2UgY3g9IjQxMy41IiBjeT0iMjY5Ljk4NDQiIGZpbGw9IiNBREQxQjIiIHJ4PSIxMSIgcnk9IjExIiBzdHlsZT0ic3Ryb2tlOiMxODE4MTg7c3Ryb2tlLXdpZHRoOjEuMDsiLz48cGF0aCBkPSJNNDExLjEyNSwyNzQuMjM0NCBMNDExLjEyNSwyNzUuOTg0NCBMNDE2LjA2MjUsMjc1Ljk4NDQgTDQxNi4wNjI1LDI3NC4yMzQ0IEw0MTEuMTI1LDI3NC4yMzQ0IFogTTQxMS44MTI1LDI3NC45MjE5IFE0MTEuODEyNSwyNzQuOTIxOSA0MTEuODEyNSwyNjUuNzM0NCBMNDEwLjA2MjUsMjY1LjczNDQgUTQxMC4wNjI1LDI2NS43MzQ0IDQxMC4wNjI1LDI3NC45MjE5IEw0MTEuODEyNSwyNzQuOTIxOSBaIE00MTUuMzc1LDI3NC45MjE5IEw0MTcuMTI1LDI3NC45MjE5IFE0MTcuMTI1LDI3NC45MjE5IDQxNy4xMjUsMjcyLjEwOTQgTDQxNS4zNzUsMjcyLjEwOTQgUTQxNS4zNzUsMjcyLjEwOTQgNDE1LjM3NSwyNzQuOTIxOSBaIE00MTUuMzc1LDI2NS43MzQ0IFE0MTUuMzc1LDI2NS43MzQ0IDQxNS4zNzUsMjY4LjU0NjkgTDQxNy4xMjUsMjY4LjU0NjkgUTQxNy4xMjUsMjY4LjU0NjkgNDE3LjEyNSwyNjUuNzM0NCBMNDE1LjM3NSwyNjUuNzM0NCBaIE00MTEuMTI1LDI2Ni40MjE5IEw0MTYuMDYyNSwyNjYuNDIxOSBMNDE2LjA2MjUsMjY0LjY3MTkgTDQxMS4xMjUsMjY0LjY3MTkgTDQxMS4xMjUsMjY2LjQyMTkgWiAiIGZpbGw9IiMwMDAwMDAiLz48dGV4dCBmaWxsPSIjMDAwMDAwIiBmb250LWZhbWlseT0ic2Fucy1zZXJpZiIgZm9udC1zaXplPSIxNCIgbGVuZ3RoQWRqdXN0PSJzcGFjaW5nIiB0ZXh0TGVuZ3RoPSIxMDUiIHg9IjQyNy41IiB5PSIyNzUuNzI2NiI+V2lkZ2V0Q29udGFpbmVyPC90ZXh0PjxsaW5lIHN0eWxlPSJzdHJva2U6IzE4MTgxODtzdHJva2Utd2lkdGg6MC41OyIgeDE9IjM5OS41IiB4Mj0iNTM0LjUiIHkxPSIyODUuOTg0NCIgeTI9IjI4NS45ODQ0Ii8+PGxpbmUgc3R5bGU9InN0cm9rZTojMTgxODE4O3N0cm9rZS13aWR0aDowLjU7IiB4MT0iMzk5LjUiIHgyPSI1MzQuNSIgeTE9IjI5My45ODQ0IiB5Mj0iMjkzLjk4NDQiLz48cmVjdCBmaWxsPSIjRjI0RDVDIiBoZWlnaHQ9IjYiIHN0eWxlPSJzdHJva2U6I0M4MjkzMDtzdHJva2Utd2lkdGg6MS4wOyIgd2lkdGg9IjYiIHg9IjQwNi41IiB5PSIzMDMuOTc2NiIvPjx0ZXh0IGZpbGw9IiMwMDAwMDAiIGZvbnQtZmFtaWx5PSJzYW5zLXNlcmlmIiBmb250LXNpemU9IjE0IiBsZW5ndGhBZGp1c3Q9InNwYWNpbmciIHRleHRMZW5ndGg9IjEwMCIgeD0iNDE4LjUiIHk9IjMxMS4yMTg4Ij5yZW5kZXJXaWRnZXQoKTwvdGV4dD48L2c+PCEtLWNsYXNzIENoYXJ0V2lkZ2V0LS0+PGcgaWQ9ImVsZW1fQ2hhcnRXaWRnZXQiPjxyZWN0IGNvZGVMaW5lPSIxNiIgZmlsbD0iI0YxRjFGMSIgaGVpZ2h0PSI3Ny45Njg4IiBpZD0iQ2hhcnRXaWRnZXQiIHJ4PSIyLjUiIHJ5PSIyLjUiIHN0eWxlPSJzdHJva2U6IzE4MTgxODtzdHJva2Utd2lkdGg6MC41OyIgd2lkdGg9IjE0NyIgeD0iNDYuNSIgeT0iMTE1Ljk4NDQiLz48ZWxsaXBzZSBjeD0iNzguNiIgY3k9IjEzMS45ODQ0IiBmaWxsPSIjQUREMUIyIiByeD0iMTEiIHJ5PSIxMSIgc3R5bGU9InN0cm9rZTojMTgxODE4O3N0cm9rZS13aWR0aDoxLjA7Ii8+PHBhdGggZD0iTTc2LjIyNSwxMzYuMjM0NCBMNzYuMjI1LDEzNy45ODQ0IEw4MS4xNjI1LDEzNy45ODQ0IEw4MS4xNjI1LDEzNi4yMzQ0IEw3Ni4yMjUsMTM2LjIzNDQgWiBNNzYuOTEyNSwxMzYuOTIxOSBRNzYuOTEyNSwxMzYuOTIxOSA3Ni45MTI1LDEyNy43MzQ0IEw3NS4xNjI1LDEyNy43MzQ0IFE3NS4xNjI1LDEyNy43MzQ0IDc1LjE2MjUsMTM2LjkyMTkgTDc2LjkxMjUsMTM2LjkyMTkgWiBNODAuNDc1LDEzNi45MjE5IEw4Mi4yMjUsMTM2LjkyMTkgUTgyLjIyNSwxMzYuOTIxOSA4Mi4yMjUsMTM0LjEwOTQgTDgwLjQ3NSwxMzQuMTA5NCBRODAuNDc1LDEzNC4xMDk0IDgwLjQ3NSwxMzYuOTIxOSBaIE04MC40NzUsMTI3LjczNDQgUTgwLjQ3NSwxMjcuNzM0NCA4MC40NzUsMTMwLjU0NjkgTDgyLjIyNSwxMzAuNTQ2OSBRODIuMjI1LDEzMC41NDY5IDgyLjIyNSwxMjcuNzM0NCBMODAuNDc1LDEyNy43MzQ0IFogTTc2LjIyNSwxMjguNDIxOSBMODEuMTYyNSwxMjguNDIxOSBMODEuMTYyNSwxMjYuNjcxOSBMNzYuMjI1LDEyNi42NzE5IEw3Ni4yMjUsMTI4LjQyMTkgWiAiIGZpbGw9IiMwMDAwMDAiLz48dGV4dCBmaWxsPSIjMDAwMDAwIiBmb250LWZhbWlseT0ic2Fucy1zZXJpZiIgZm9udC1zaXplPSIxNCIgbGVuZ3RoQWRqdXN0PSJzcGFjaW5nIiB0ZXh0TGVuZ3RoPSI3NyIgeD0iOTYuNCIgeT0iMTM3LjcyNjYiPkNoYXJ0V2lkZ2V0PC90ZXh0PjxsaW5lIHN0eWxlPSJzdHJva2U6IzE4MTgxODtzdHJva2Utd2lkdGg6MC41OyIgeDE9IjQ3LjUiIHgyPSIxOTIuNSIgeTE9IjE0Ny45ODQ0IiB5Mj0iMTQ3Ljk4NDQiLz48bGluZSBzdHlsZT0ic3Ryb2tlOiMxODE4MTg7c3Ryb2tlLXdpZHRoOjAuNTsiIHgxPSI0Ny41IiB4Mj0iMTkyLjUiIHkxPSIxNTUuOTg0NCIgeTI9IjE1NS45ODQ0Ii8+PHJlY3QgZmlsbD0iI0YyNEQ1QyIgaGVpZ2h0PSI2IiBzdHlsZT0ic3Ryb2tlOiNDODI5MzA7c3Ryb2tlLXdpZHRoOjEuMDsiIHdpZHRoPSI2IiB4PSI1NC41IiB5PSIxNjUuOTc2NiIvPjx0ZXh0IGZpbGw9IiMwMDAwMDAiIGZvbnQtZmFtaWx5PSJzYW5zLXNlcmlmIiBmb250LXNpemU9IjE0IiBsZW5ndGhBZGp1c3Q9InNwYWNpbmciIHRleHRMZW5ndGg9IjEyMSIgeD0iNjYuNSIgeT0iMTczLjIxODgiPnJlbmRlckxpbmVDaGFydCgpPC90ZXh0PjxyZWN0IGZpbGw9IiNGMjRENUMiIGhlaWdodD0iNiIgc3R5bGU9InN0cm9rZTojQzgyOTMwO3N0cm9rZS13aWR0aDoxLjA7IiB3aWR0aD0iNiIgeD0iNTQuNSIgeT0iMTgwLjk2MDkiLz48dGV4dCBmaWxsPSIjMDAwMDAwIiBmb250LWZhbWlseT0ic2Fucy1zZXJpZiIgZm9udC1zaXplPSIxNCIgbGVuZ3RoQWRqdXN0PSJzcGFjaW5nIiB0ZXh0TGVuZ3RoPSIxMTQiIHg9IjY2LjUiIHk9IjE4OC4yMDMxIj5yZW5kZXJCYXJDaGFydCgpPC90ZXh0PjwvZz48IS0tY2xhc3MgTWFwV2lkZ2V0LS0+PGcgaWQ9ImVsZW1fTWFwV2lkZ2V0Ij48cmVjdCBjb2RlTGluZT0iMjAiIGZpbGw9IiNGMUYxRjEiIGhlaWdodD0iNjIuOTg0NCIgaWQ9Ik1hcFdpZGdldCIgcng9IjIuNSIgcnk9IjIuNSIgc3R5bGU9InN0cm9rZTojMTgxODE4O3N0cm9rZS13aWR0aDowLjU7IiB3aWR0aD0iMTA1IiB4PSIyMjguNSIgeT0iMTIzLjQ4NDQiLz48ZWxsaXBzZSBjeD0iMjQ4IiBjeT0iMTM5LjQ4NDQiIGZpbGw9IiNBREQxQjIiIHJ4PSIxMSIgcnk9IjExIiBzdHlsZT0ic3Ryb2tlOiMxODE4MTg7c3Ryb2tlLXdpZHRoOjEuMDsiLz48cGF0aCBkPSJNMjQ1LjYyNSwxNDMuNzM0NCBMMjQ1LjYyNSwxNDUuNDg0NCBMMjUwLjU2MjUsMTQ1LjQ4NDQgTDI1MC41NjI1LDE0My43MzQ0IEwyNDUuNjI1LDE0My43MzQ0IFogTTI0Ni4zMTI1LDE0NC40MjE5IFEyNDYuMzEyNSwxNDQuNDIxOSAyNDYuMzEyNSwxMzUuMjM0NCBMMjQ0LjU2MjUsMTM1LjIzNDQgUTI0NC41NjI1LDEzNS4yMzQ0IDI0NC41NjI1LDE0NC40MjE5IEwyNDYuMzEyNSwxNDQuNDIxOSBaIE0yNDkuODc1LDE0NC40MjE5IEwyNTEuNjI1LDE0NC40MjE5IFEyNTEuNjI1LDE0NC40MjE5IDI1MS42MjUsMTQxLjYwOTQgTDI0OS44NzUsMTQxLjYwOTQgUTI0OS44NzUsMTQxLjYwOTQgMjQ5Ljg3NSwxNDQuNDIxOSBaIE0yNDkuODc1LDEzNS4yMzQ0IFEyNDkuODc1LDEzNS4yMzQ0IDI0OS44NzUsMTM4LjA0NjkgTDI1MS42MjUsMTM4LjA0NjkgUTI1MS42MjUsMTM4LjA0NjkgMjUxLjYyNSwxMzUuMjM0NCBMMjQ5Ljg3NSwxMzUuMjM0NCBaIE0yNDUuNjI1LDEzNS45MjE5IEwyNTAuNTYyNSwxMzUuOTIxOSBMMjUwLjU2MjUsMTM0LjE3MTkgTDI0NS42MjUsMTM0LjE3MTkgTDI0NS42MjUsMTM1LjkyMTkgWiAiIGZpbGw9IiMwMDAwMDAiLz48dGV4dCBmaWxsPSIjMDAwMDAwIiBmb250LWZhbWlseT0ic2Fucy1zZXJpZiIgZm9udC1zaXplPSIxNCIgbGVuZ3RoQWRqdXN0PSJzcGFjaW5nIiB0ZXh0TGVuZ3RoPSI2MyIgeD0iMjYzIiB5PSIxNDUuMjI2NiI+TWFwV2lkZ2V0PC90ZXh0PjxsaW5lIHN0eWxlPSJzdHJva2U6IzE4MTgxODtzdHJva2Utd2lkdGg6MC41OyIgeDE9IjIyOS41IiB4Mj0iMzMyLjUiIHkxPSIxNTUuNDg0NCIgeTI9IjE1NS40ODQ0Ii8+PGxpbmUgc3R5bGU9InN0cm9rZTojMTgxODE4O3N0cm9rZS13aWR0aDowLjU7IiB4MT0iMjI5LjUiIHgyPSIzMzIuNSIgeTE9IjE2My40ODQ0IiB5Mj0iMTYzLjQ4NDQiLz48cmVjdCBmaWxsPSIjRjI0RDVDIiBoZWlnaHQ9IjYiIHN0eWxlPSJzdHJva2U6I0M4MjkzMDtzdHJva2Utd2lkdGg6MS4wOyIgd2lkdGg9IjYiIHg9IjIzNi41IiB5PSIxNzMuNDc2NiIvPjx0ZXh0IGZpbGw9IiMwMDAwMDAiIGZvbnQtZmFtaWx5PSJzYW5zLXNlcmlmIiBmb250LXNpemU9IjE0IiBsZW5ndGhBZGp1c3Q9InNwYWNpbmciIHRleHRMZW5ndGg9Ijc5IiB4PSIyNDguNSIgeT0iMTgwLjcxODgiPnJlbmRlck1hcCgpPC90ZXh0PjwvZz48IS0tY2xhc3MgVGFibGVXaWRnZXQtLT48ZyBpZD0iZWxlbV9UYWJsZVdpZGdldCI+PHJlY3QgY29kZUxpbmU9IjIzIiBmaWxsPSIjRjFGMUYxIiBoZWlnaHQ9IjYyLjk4NDQiIGlkPSJUYWJsZVdpZGdldCIgcng9IjIuNSIgcnk9IjIuNSIgc3R5bGU9InN0cm9rZTojMTgxODE4O3N0cm9rZS13aWR0aDowLjU7IiB3aWR0aD0iMTE5IiB4PSI2MC41IiB5PSIyNTMuOTg0NCIvPjxlbGxpcHNlIGN4PSI4MCIgY3k9IjI2OS45ODQ0IiBmaWxsPSIjQUREMUIyIiByeD0iMTEiIHJ5PSIxMSIgc3R5bGU9InN0cm9rZTojMTgxODE4O3N0cm9rZS13aWR0aDoxLjA7Ii8+PHBhdGggZD0iTTc3LjYyNSwyNzQuMjM0NCBMNzcuNjI1LDI3NS45ODQ0IEw4Mi41NjI1LDI3NS45ODQ0IEw4Mi41NjI1LDI3NC4yMzQ0IEw3Ny42MjUsMjc0LjIzNDQgWiBNNzguMzEyNSwyNzQuOTIxOSBRNzguMzEyNSwyNzQuOTIxOSA3OC4zMTI1LDI2NS43MzQ0IEw3Ni41NjI1LDI2NS43MzQ0IFE3Ni41NjI1LDI2NS43MzQ0IDc2LjU2MjUsMjc0LjkyMTkgTDc4LjMxMjUsMjc0LjkyMTkgWiBNODEuODc1LDI3NC45MjE5IEw4My42MjUsMjc0LjkyMTkgUTgzLjYyNSwyNzQuOTIxOSA4My42MjUsMjcyLjEwOTQgTDgxLjg3NSwyNzIuMTA5NCBRODEuODc1LDI3Mi4xMDk0IDgxLjg3NSwyNzQuOTIxOSBaIE04MS44NzUsMjY1LjczNDQgUTgxLjg3NSwyNjUuNzM0NCA4MS44NzUsMjY4LjU0NjkgTDgzLjYyNSwyNjguNTQ2OSBRODMuNjI1LDI2OC41NDY5IDgzLjYyNSwyNjUuNzM0NCBMODEuODc1LDI2NS43MzQ0IFogTTc3LjYyNSwyNjYuNDIxOSBMODIuNTYyNSwyNjYuNDIxOSBMODIuNTYyNSwyNjQuNjcxOSBMNzcuNjI1LDI2NC42NzE5IEw3Ny42MjUsMjY2LjQyMTkgWiAiIGZpbGw9IiMwMDAwMDAiLz48dGV4dCBmaWxsPSIjMDAwMDAwIiBmb250LWZhbWlseT0ic2Fucy1zZXJpZiIgZm9udC1zaXplPSIxNCIgbGVuZ3RoQWRqdXN0PSJzcGFjaW5nIiB0ZXh0TGVuZ3RoPSI3NyIgeD0iOTUiIHk9IjI3NS43MjY2Ij5UYWJsZVdpZGdldDwvdGV4dD48bGluZSBzdHlsZT0ic3Ryb2tlOiMxODE4MTg7c3Ryb2tlLXdpZHRoOjAuNTsiIHgxPSI2MS41IiB4Mj0iMTc4LjUiIHkxPSIyODUuOTg0NCIgeTI9IjI4NS45ODQ0Ii8+PGxpbmUgc3R5bGU9InN0cm9rZTojMTgxODE4O3N0cm9rZS13aWR0aDowLjU7IiB4MT0iNjEuNSIgeDI9IjE3OC41IiB5MT0iMjkzLjk4NDQiIHkyPSIyOTMuOTg0NCIvPjxyZWN0IGZpbGw9IiNGMjRENUMiIGhlaWdodD0iNiIgc3R5bGU9InN0cm9rZTojQzgyOTMwO3N0cm9rZS13aWR0aDoxLjA7IiB3aWR0aD0iNiIgeD0iNjguNSIgeT0iMzAzLjk3NjYiLz48dGV4dCBmaWxsPSIjMDAwMDAwIiBmb250LWZhbWlseT0ic2Fucy1zZXJpZiIgZm9udC1zaXplPSIxNCIgbGVuZ3RoQWRqdXN0PSJzcGFjaW5nIiB0ZXh0TGVuZ3RoPSI5MyIgeD0iODAuNSIgeT0iMzExLjIxODgiPnJlbmRlclRhYmxlKCk8L3RleHQ+PC9nPjwhLS1jbGFzcyBUZWxlbWV0cnlTZXJ2aWNlLS0+PGcgaWQ9ImVsZW1fVGVsZW1ldHJ5U2VydmljZSI+PHJlY3QgY29kZUxpbmU9IjI5IiBmaWxsPSIjRjFGMUYxIiBoZWlnaHQ9IjYyLjk4NDQiIGlkPSJUZWxlbWV0cnlTZXJ2aWNlIiByeD0iMi41IiByeT0iMi41IiBzdHlsZT0ic3Ryb2tlOiMxODE4MTg7c3Ryb2tlLXdpZHRoOjAuNTsiIHdpZHRoPSIxNjEiIHg9IjIxMy41IiB5PSI2MjAuOTg0NCIvPjxlbGxpcHNlIGN4PSIyMzUuNyIgY3k9IjYzNi45ODQ0IiBmaWxsPSIjQUREMUIyIiByeD0iMTEiIHJ5PSIxMSIgc3R5bGU9InN0cm9rZTojMTgxODE4O3N0cm9rZS13aWR0aDoxLjA7Ii8+PHBhdGggZD0iTTIzMy4zMjUsNjQxLjIzNDQgTDIzMy4zMjUsNjQyLjk4NDQgTDIzOC4yNjI1LDY0Mi45ODQ0IEwyMzguMjYyNSw2NDEuMjM0NCBMMjMzLjMyNSw2NDEuMjM0NCBaIE0yMzQuMDEyNSw2NDEuOTIxOSBRMjM0LjAxMjUsNjQxLjkyMTkgMjM0LjAxMjUsNjMyLjczNDQgTDIzMi4yNjI1LDYzMi43MzQ0IFEyMzIuMjYyNSw2MzIuNzM0NCAyMzIuMjYyNSw2NDEuOTIxOSBMMjM0LjAxMjUsNjQxLjkyMTkgWiBNMjM3LjU3NSw2NDEuOTIxOSBMMjM5LjMyNSw2NDEuOTIxOSBRMjM5LjMyNSw2NDEuOTIxOSAyMzkuMzI1LDYzOS4xMDk0IEwyMzcuNTc1LDYzOS4xMDk0IFEyMzcuNTc1LDYzOS4xMDk0IDIzNy41NzUsNjQxLjkyMTkgWiBNMjM3LjU3NSw2MzIuNzM0NCBRMjM3LjU3NSw2MzIuNzM0NCAyMzcuNTc1LDYzNS41NDY5IEwyMzkuMzI1LDYzNS41NDY5IFEyMzkuMzI1LDYzNS41NDY5IDIzOS4zMjUsNjMyLjczNDQgTDIzNy41NzUsNjMyLjczNDQgWiBNMjMzLjMyNSw2MzMuNDIxOSBMMjM4LjI2MjUsNjMzLjQyMTkgTDIzOC4yNjI1LDYzMS42NzE5IEwyMzMuMzI1LDYzMS42NzE5IEwyMzMuMzI1LDYzMy40MjE5IFogIiBmaWxsPSIjMDAwMDAwIi8+PHRleHQgZmlsbD0iIzAwMDAwMCIgZm9udC1mYW1pbHk9InNhbnMtc2VyaWYiIGZvbnQtc2l6ZT0iMTQiIGxlbmd0aEFkanVzdD0ic3BhY2luZyIgdGV4dExlbmd0aD0iMTEzIiB4PSIyNTEuMyIgeT0iNjQyLjcyNjYiPlRlbGVtZXRyeVNlcnZpY2U8L3RleHQ+PGxpbmUgc3R5bGU9InN0cm9rZTojMTgxODE4O3N0cm9rZS13aWR0aDowLjU7IiB4MT0iMjE0LjUiIHgyPSIzNzMuNSIgeTE9IjY1Mi45ODQ0IiB5Mj0iNjUyLjk4NDQiLz48bGluZSBzdHlsZT0ic3Ryb2tlOiMxODE4MTg7c3Ryb2tlLXdpZHRoOjAuNTsiIHgxPSIyMTQuNSIgeDI9IjM3My41IiB5MT0iNjYwLjk4NDQiIHkyPSI2NjAuOTg0NCIvPjxyZWN0IGZpbGw9IiNGMjRENUMiIGhlaWdodD0iNiIgc3R5bGU9InN0cm9rZTojQzgyOTMwO3N0cm9rZS13aWR0aDoxLjA7IiB3aWR0aD0iNiIgeD0iMjIxLjUiIHk9IjY3MC45NzY2Ii8+PHRleHQgZmlsbD0iIzAwMDAwMCIgZm9udC1mYW1pbHk9InNhbnMtc2VyaWYiIGZvbnQtc2l6ZT0iMTQiIGxlbmd0aEFkanVzdD0ic3BhY2luZyIgdGV4dExlbmd0aD0iMTM1IiB4PSIyMzMuNSIgeT0iNjc4LjIxODgiPmZldGNoRGF0YShkZXZpY2VJZCk8L3RleHQ+PC9nPjwhLS1jbGFzcyBBUElDbGllbnQtLT48ZyBpZD0iZWxlbV9BUElDbGllbnQiPjxyZWN0IGNvZGVMaW5lPSIzMiIgZmlsbD0iI0YxRjFGMSIgaGVpZ2h0PSI3Ny45Njg4IiBpZD0iQVBJQ2xpZW50IiByeD0iMi41IiByeT0iMi41IiBzdHlsZT0ic3Ryb2tlOiMxODE4MTg7c3Ryb2tlLXdpZHRoOjAuNTsiIHdpZHRoPSIxMzMiIHg9IjIyNy41IiB5PSI3NDMuOTg0NCIvPjxlbGxpcHNlIGN4PSIyNTkuNiIgY3k9Ijc1OS45ODQ0IiBmaWxsPSIjQUREMUIyIiByeD0iMTEiIHJ5PSIxMSIgc3R5bGU9InN0cm9rZTojMTgxODE4O3N0cm9rZS13aWR0aDoxLjA7Ii8+PHBhdGggZD0iTTI1Ny4yMjUsNzY0LjIzNDQgTDI1Ny4yMjUsNzY1Ljk4NDQgTDI2Mi4xNjI1LDc2NS45ODQ0IEwyNjIuMTYyNSw3NjQuMjM0NCBMMjU3LjIyNSw3NjQuMjM0NCBaIE0yNTcuOTEyNSw3NjQuOTIxOSBRMjU3LjkxMjUsNzY0LjkyMTkgMjU3LjkxMjUsNzU1LjczNDQgTDI1Ni4xNjI1LDc1NS43MzQ0IFEyNTYuMTYyNSw3NTUuNzM0NCAyNTYuMTYyNSw3NjQuOTIxOSBMMjU3LjkxMjUsNzY0LjkyMTkgWiBNMjYxLjQ3NSw3NjQuOTIxOSBMMjYzLjIyNSw3NjQuOTIxOSBRMjYzLjIyNSw3NjQuOTIxOSAyNjMuMjI1LDc2Mi4xMDk0IEwyNjEuNDc1LDc2Mi4xMDk0IFEyNjEuNDc1LDc2Mi4xMDk0IDI2MS40NzUsNzY0LjkyMTkgWiBNMjYxLjQ3NSw3NTUuNzM0NCBRMjYxLjQ3NSw3NTUuNzM0NCAyNjEuNDc1LDc1OC41NDY5IEwyNjMuMjI1LDc1OC41NDY5IFEyNjMuMjI1LDc1OC41NDY5IDI2My4yMjUsNzU1LjczNDQgTDI2MS40NzUsNzU1LjczNDQgWiBNMjU3LjIyNSw3NTYuNDIxOSBMMjYyLjE2MjUsNzU2LjQyMTkgTDI2Mi4xNjI1LDc1NC42NzE5IEwyNTcuMjI1LDc1NC42NzE5IEwyNTcuMjI1LDc1Ni40MjE5IFogIiBmaWxsPSIjMDAwMDAwIi8+PHRleHQgZmlsbD0iIzAwMDAwMCIgZm9udC1mYW1pbHk9InNhbnMtc2VyaWYiIGZvbnQtc2l6ZT0iMTQiIGxlbmd0aEFkanVzdD0ic3BhY2luZyIgdGV4dExlbmd0aD0iNjMiIHg9IjI3Ny40IiB5PSI3NjUuNzI2NiI+QVBJQ2xpZW50PC90ZXh0PjxsaW5lIHN0eWxlPSJzdHJva2U6IzE4MTgxODtzdHJva2Utd2lkdGg6MC41OyIgeDE9IjIyOC41IiB4Mj0iMzU5LjUiIHkxPSI3NzUuOTg0NCIgeTI9Ijc3NS45ODQ0Ii8+PGxpbmUgc3R5bGU9InN0cm9rZTojMTgxODE4O3N0cm9rZS13aWR0aDowLjU7IiB4MT0iMjI4LjUiIHgyPSIzNTkuNSIgeTE9Ijc4My45ODQ0IiB5Mj0iNzgzLjk4NDQiLz48cmVjdCBmaWxsPSIjRjI0RDVDIiBoZWlnaHQ9IjYiIHN0eWxlPSJzdHJva2U6I0M4MjkzMDtzdHJva2Utd2lkdGg6MS4wOyIgd2lkdGg9IjYiIHg9IjIzNS41IiB5PSI3OTMuOTc2NiIvPjx0ZXh0IGZpbGw9IiMwMDAwMDAiIGZvbnQtZmFtaWx5PSJzYW5zLXNlcmlmIiBmb250LXNpemU9IjE0IiBsZW5ndGhBZGp1c3Q9InNwYWNpbmciIHRleHRMZW5ndGg9IjU4IiB4PSIyNDcuNSIgeT0iODAxLjIxODgiPmdldCh1cmwpPC90ZXh0PjxyZWN0IGZpbGw9IiNGMjRENUMiIGhlaWdodD0iNiIgc3R5bGU9InN0cm9rZTojQzgyOTMwO3N0cm9rZS13aWR0aDoxLjA7IiB3aWR0aD0iNiIgeD0iMjM1LjUiIHk9IjgwOC45NjA5Ii8+PHRleHQgZmlsbD0iIzAwMDAwMCIgZm9udC1mYW1pbHk9InNhbnMtc2VyaWYiIGZvbnQtc2l6ZT0iMTQiIGxlbmd0aEFkanVzdD0ic3BhY2luZyIgdGV4dExlbmd0aD0iMTA3IiB4PSIyNDcuNSIgeT0iODE2LjIwMzEiPnBvc3QodXJsLCBkYXRhKTwvdGV4dD48L2c+PCEtLWNsYXNzIFdpZGdldEVkaXRvci0tPjxnIGlkPSJlbGVtX1dpZGdldEVkaXRvciI+PHJlY3QgY29kZUxpbmU9IjM5IiBmaWxsPSIjRjFGMUYxIiBoZWlnaHQ9IjYyLjk4NDQiIGlkPSJXaWRnZXRFZGl0b3IiIHJ4PSIyLjUiIHJ5PSIyLjUiIHN0eWxlPSJzdHJva2U6IzE4MTgxODtzdHJva2Utd2lkdGg6MC41OyIgd2lkdGg9IjE0NyIgeD0iMzk0LjUiIHk9IjM4OS45ODQ0Ii8+PGVsbGlwc2UgY3g9IjQyMy40NSIgY3k9IjQwNS45ODQ0IiBmaWxsPSIjQUREMUIyIiByeD0iMTEiIHJ5PSIxMSIgc3R5bGU9InN0cm9rZTojMTgxODE4O3N0cm9rZS13aWR0aDoxLjA7Ii8+PHBhdGggZD0iTTQyMS4wNzUsNDEwLjIzNDQgTDQyMS4wNzUsNDExLjk4NDQgTDQyNi4wMTI1LDQxMS45ODQ0IEw0MjYuMDEyNSw0MTAuMjM0NCBMNDIxLjA3NSw0MTAuMjM0NCBaIE00MjEuNzYyNSw0MTAuOTIxOSBRNDIxLjc2MjUsNDEwLjkyMTkgNDIxLjc2MjUsNDAxLjczNDQgTDQyMC4wMTI1LDQwMS43MzQ0IFE0MjAuMDEyNSw0MDEuNzM0NCA0MjAuMDEyNSw0MTAuOTIxOSBMNDIxLjc2MjUsNDEwLjkyMTkgWiBNNDI1LjMyNSw0MTAuOTIxOSBMNDI3LjA3NSw0MTAuOTIxOSBRNDI3LjA3NSw0MTAuOTIxOSA0MjcuMDc1LDQwOC4xMDk0IEw0MjUuMzI1LDQwOC4xMDk0IFE0MjUuMzI1LDQwOC4xMDk0IDQyNS4zMjUsNDEwLjkyMTkgWiBNNDI1LjMyNSw0MDEuNzM0NCBRNDI1LjMyNSw0MDEuNzM0NCA0MjUuMzI1LDQwNC41NDY5IEw0MjcuMDc1LDQwNC41NDY5IFE0MjcuMDc1LDQwNC41NDY5IDQyNy4wNzUsNDAxLjczNDQgTDQyNS4zMjUsNDAxLjczNDQgWiBNNDIxLjA3NSw0MDIuNDIxOSBMNDI2LjAxMjUsNDAyLjQyMTkgTDQyNi4wMTI1LDQwMC42NzE5IEw0MjEuMDc1LDQwMC42NzE5IEw0MjEuMDc1LDQwMi40MjE5IFogIiBmaWxsPSIjMDAwMDAwIi8+PHRleHQgZmlsbD0iIzAwMDAwMCIgZm9udC1mYW1pbHk9InNhbnMtc2VyaWYiIGZvbnQtc2l6ZT0iMTQiIGxlbmd0aEFkanVzdD0ic3BhY2luZyIgdGV4dExlbmd0aD0iODQiIHg9IjQ0MC41NSIgeT0iNDExLjcyNjYiPldpZGdldEVkaXRvcjwvdGV4dD48bGluZSBzdHlsZT0ic3Ryb2tlOiMxODE4MTg7c3Ryb2tlLXdpZHRoOjAuNTsiIHgxPSIzOTUuNSIgeDI9IjU0MC41IiB5MT0iNDIxLjk4NDQiIHkyPSI0MjEuOTg0NCIvPjxsaW5lIHN0eWxlPSJzdHJva2U6IzE4MTgxODtzdHJva2Utd2lkdGg6MC41OyIgeDE9IjM5NS41IiB4Mj0iNTQwLjUiIHkxPSI0MjkuOTg0NCIgeTI9IjQyOS45ODQ0Ii8+PHJlY3QgZmlsbD0iI0YyNEQ1QyIgaGVpZ2h0PSI2IiBzdHlsZT0ic3Ryb2tlOiNDODI5MzA7c3Ryb2tlLXdpZHRoOjEuMDsiIHdpZHRoPSI2IiB4PSI0MDIuNSIgeT0iNDM5Ljk3NjYiLz48dGV4dCBmaWxsPSIjMDAwMDAwIiBmb250LWZhbWlseT0ic2Fucy1zZXJpZiIgZm9udC1zaXplPSIxNCIgbGVuZ3RoQWRqdXN0PSJzcGFjaW5nIiB0ZXh0TGVuZ3RoPSIxMjEiIHg9IjQxNC41IiB5PSI0NDcuMjE4OCI+Y29uZmlndXJlV2lkZ2V0KCk8L3RleHQ+PC9nPjwhLS1jbGFzcyBXaWRnZXRSZW5kZXJlci0tPjxnIGlkPSJlbGVtX1dpZGdldFJlbmRlcmVyIj48cmVjdCBjb2RlTGluZT0iNDIiIGZpbGw9IiNGMUYxRjEiIGhlaWdodD0iNjIuOTg0NCIgaWQ9IldpZGdldFJlbmRlcmVyIiByeD0iMi41IiByeT0iMi41IiBzdHlsZT0ic3Ryb2tlOiMxODE4MTg7c3Ryb2tlLXdpZHRoOjAuNTsiIHdpZHRoPSIxMzAiIHg9IjIyOSIgeT0iMzg5Ljk4NDQiLz48ZWxsaXBzZSBjeD0iMjQ0IiBjeT0iNDA1Ljk4NDQiIGZpbGw9IiNBREQxQjIiIHJ4PSIxMSIgcnk9IjExIiBzdHlsZT0ic3Ryb2tlOiMxODE4MTg7c3Ryb2tlLXdpZHRoOjEuMDsiLz48cGF0aCBkPSJNMjQxLjYyNSw0MTAuMjM0NCBMMjQxLjYyNSw0MTEuOTg0NCBMMjQ2LjU2MjUsNDExLjk4NDQgTDI0Ni41NjI1LDQxMC4yMzQ0IEwyNDEuNjI1LDQxMC4yMzQ0IFogTTI0Mi4zMTI1LDQxMC45MjE5IFEyNDIuMzEyNSw0MTAuOTIxOSAyNDIuMzEyNSw0MDEuNzM0NCBMMjQwLjU2MjUsNDAxLjczNDQgUTI0MC41NjI1LDQwMS43MzQ0IDI0MC41NjI1LDQxMC45MjE5IEwyNDIuMzEyNSw0MTAuOTIxOSBaIE0yNDUuODc1LDQxMC45MjE5IEwyNDcuNjI1LDQxMC45MjE5IFEyNDcuNjI1LDQxMC45MjE5IDI0Ny42MjUsNDA4LjEwOTQgTDI0NS44NzUsNDA4LjEwOTQgUTI0NS44NzUsNDA4LjEwOTQgMjQ1Ljg3NSw0MTAuOTIxOSBaIE0yNDUuODc1LDQwMS43MzQ0IFEyNDUuODc1LDQwMS43MzQ0IDI0NS44NzUsNDA0LjU0NjkgTDI0Ny42MjUsNDA0LjU0NjkgUTI0Ny42MjUsNDA0LjU0NjkgMjQ3LjYyNSw0MDEuNzM0NCBMMjQ1Ljg3NSw0MDEuNzM0NCBaIE0yNDEuNjI1LDQwMi40MjE5IEwyNDYuNTYyNSw0MDIuNDIxOSBMMjQ2LjU2MjUsNDAwLjY3MTkgTDI0MS42MjUsNDAwLjY3MTkgTDI0MS42MjUsNDAyLjQyMTkgWiAiIGZpbGw9IiMwMDAwMDAiLz48dGV4dCBmaWxsPSIjMDAwMDAwIiBmb250LWZhbWlseT0ic2Fucy1zZXJpZiIgZm9udC1zaXplPSIxNCIgbGVuZ3RoQWRqdXN0PSJzcGFjaW5nIiB0ZXh0TGVuZ3RoPSI5OCIgeD0iMjU4IiB5PSI0MTEuNzI2NiI+V2lkZ2V0UmVuZGVyZXI8L3RleHQ+PGxpbmUgc3R5bGU9InN0cm9rZTojMTgxODE4O3N0cm9rZS13aWR0aDowLjU7IiB4MT0iMjMwIiB4Mj0iMzU4IiB5MT0iNDIxLjk4NDQiIHkyPSI0MjEuOTg0NCIvPjxsaW5lIHN0eWxlPSJzdHJva2U6IzE4MTgxODtzdHJva2Utd2lkdGg6MC41OyIgeDE9IjIzMCIgeDI9IjM1OCIgeTE9IjQyOS45ODQ0IiB5Mj0iNDI5Ljk4NDQiLz48cmVjdCBmaWxsPSIjRjI0RDVDIiBoZWlnaHQ9IjYiIHN0eWxlPSJzdHJva2U6I0M4MjkzMDtzdHJva2Utd2lkdGg6MS4wOyIgd2lkdGg9IjYiIHg9IjIzNyIgeT0iNDM5Ljk3NjYiLz48dGV4dCBmaWxsPSIjMDAwMDAwIiBmb250LWZhbWlseT0ic2Fucy1zZXJpZiIgZm9udC1zaXplPSIxNCIgbGVuZ3RoQWRqdXN0PSJzcGFjaW5nIiB0ZXh0TGVuZ3RoPSI3MiIgeD0iMjQ5IiB5PSI0NDcuMjE4OCI+dXBkYXRlVUkoKTwvdGV4dD48L2c+PCEtLWxpbmsgV2lkZ2V0TWFuYWdlciB0byBXaWRnZXRDb250YWluZXItLT48ZyBpZD0ibGlua19XaWRnZXRNYW5hZ2VyX1dpZGdldENvbnRhaW5lciI+PHBhdGggY29kZUxpbmU9IjQ3IiBkPSJNNDY3LDE5NC4xOTQ0IEM0NjcsMjEzLjI3NDQgNDY3LDIzMC4wNTQ0IDQ2NywyNDcuOTU0NCAiIGZpbGw9Im5vbmUiIGlkPSJXaWRnZXRNYW5hZ2VyLXRvLVdpZGdldENvbnRhaW5lciIgc3R5bGU9InN0cm9rZTojMTgxODE4O3N0cm9rZS13aWR0aDoxLjA7Ii8+PHBvbHlnb24gZmlsbD0iIzE4MTgxOCIgcG9pbnRzPSI0NjcsMjUzLjk1NDQsNDcxLDI0NC45NTQ0LDQ2NywyNDguOTU0NCw0NjMsMjQ0Ljk1NDQsNDY3LDI1My45NTQ0IiBzdHlsZT0ic3Ryb2tlOiMxODE4MTg7c3Ryb2tlLXdpZHRoOjEuMDsiLz48L2c+PCEtLWxpbmsgV2lkZ2V0Q29udGFpbmVyIHRvIFdpZGdldFJlbmRlcmVyLS0+PGcgaWQ9ImxpbmtfV2lkZ2V0Q29udGFpbmVyX1dpZGdldFJlbmRlcmVyIj48cGF0aCBjb2RlTGluZT0iNDgiIGQ9Ik00MjEuMDEsMzE3LjA1NDQgQzQwNi42OSwzMjYuOTQ0NCAzOTAuOTksMzM4LjE1NDQgMzc3LDM0OC45ODQ0IEMzNjAuNDYsMzYxLjc5NDQgMzQ3LjMxODgsMzcyLjgzNTggMzMyLjU2ODgsMzg1Ljc4NTggIiBmaWxsPSJub25lIiBpZD0iV2lkZ2V0Q29udGFpbmVyLXRvLVdpZGdldFJlbmRlcmVyIiBzdHlsZT0ic3Ryb2tlOiMxODE4MTg7c3Ryb2tlLXdpZHRoOjEuMDsiLz48cG9seWdvbiBmaWxsPSIjMTgxODE4IiBwb2ludHM9IjMyOC4wNiwzODkuNzQ0NCwzMzcuNDYyMywzODYuODEyNCwzMzEuODE3NCwzODYuNDQ1NSwzMzIuMTg0MiwzODAuODAwNiwzMjguMDYsMzg5Ljc0NDQiIHN0eWxlPSJzdHJva2U6IzE4MTgxODtzdHJva2Utd2lkdGg6MS4wOyIvPjwvZz48IS0tbGluayBXaWRnZXRSZW5kZXJlciB0byBXaWRnZXRUeXBlcy0tPjxnIGlkPSJsaW5rX1dpZGdldFJlbmRlcmVyX1dpZGdldFR5cGVzIj48cGF0aCBjb2RlTGluZT0iNDkiIGQ9Ik0yOTQsNDUzLjE5NDQgQzI5NCw0NzEuOTc0NCAyOTQsNDg5LjYwNDQgMjk0LDUwNi44MTQ0ICIgZmlsbD0ibm9uZSIgaWQ9IldpZGdldFJlbmRlcmVyLXRvLVdpZGdldFR5cGVzIiBzdHlsZT0ic3Ryb2tlOiMxODE4MTg7c3Ryb2tlLXdpZHRoOjEuMDsiLz48cG9seWdvbiBmaWxsPSIjMTgxODE4IiBwb2ludHM9IjI5NCw1MTIuODE0NCwyOTgsNTAzLjgxNDQsMjk0LDUwNy44MTQ0LDI5MCw1MDMuODE0NCwyOTQsNTEyLjgxNDQiIHN0eWxlPSJzdHJva2U6IzE4MTgxODtzdHJva2Utd2lkdGg6MS4wOyIvPjwvZz48IS0tbGluayBXaWRnZXRUeXBlcyB0byBUZWxlbWV0cnlTZXJ2aWNlLS0+PGcgaWQ9ImxpbmtfV2lkZ2V0VHlwZXNfVGVsZW1ldHJ5U2VydmljZSI+PHBhdGggY29kZUxpbmU9IjUwIiBkPSJNMjk0LDU2MS4yMjQ0IEMyOTQsNTc4LjQ3NDQgMjk0LDU5Ni4xNjQ0IDI5NCw2MTQuOTQ0NCAiIGZpbGw9Im5vbmUiIGlkPSJXaWRnZXRUeXBlcy10by1UZWxlbWV0cnlTZXJ2aWNlIiBzdHlsZT0ic3Ryb2tlOiMxODE4MTg7c3Ryb2tlLXdpZHRoOjEuMDsiLz48cG9seWdvbiBmaWxsPSIjMTgxODE4IiBwb2ludHM9IjI5NCw2MjAuOTQ0NCwyOTgsNjExLjk0NDQsMjk0LDYxNS45NDQ0LDI5MCw2MTEuOTQ0NCwyOTQsNjIwLjk0NDQiIHN0eWxlPSJzdHJva2U6IzE4MTgxODtzdHJva2Utd2lkdGg6MS4wOyIvPjwvZz48IS0tbGluayBUZWxlbWV0cnlTZXJ2aWNlIHRvIEFQSUNsaWVudC0tPjxnIGlkPSJsaW5rX1RlbGVtZXRyeVNlcnZpY2VfQVBJQ2xpZW50Ij48cGF0aCBjb2RlTGluZT0iNTEiIGQ9Ik0yOTQsNjg0LjI2NDQgQzI5NCw3MDIuMDg0NCAyOTQsNzE4LjY2NDQgMjk0LDczNy42MzQ0ICIgZmlsbD0ibm9uZSIgaWQ9IlRlbGVtZXRyeVNlcnZpY2UtdG8tQVBJQ2xpZW50IiBzdHlsZT0ic3Ryb2tlOiMxODE4MTg7c3Ryb2tlLXdpZHRoOjEuMDsiLz48cG9seWdvbiBmaWxsPSIjMTgxODE4IiBwb2ludHM9IjI5NCw3NDMuNjM0NCwyOTgsNzM0LjYzNDQsMjk0LDczOC42MzQ0LDI5MCw3MzQuNjM0NCwyOTQsNzQzLjYzNDQiIHN0eWxlPSJzdHJva2U6IzE4MTgxODtzdHJva2Utd2lkdGg6MS4wOyIvPjwvZz48IS0tbGluayBXaWRnZXRFZGl0b3IgdG8gV2lkZ2V0Q29udGFpbmVyLS0+PGcgaWQ9ImxpbmtfV2lkZ2V0RWRpdG9yX1dpZGdldENvbnRhaW5lciI+PHBhdGggY29kZUxpbmU9IjUzIiBkPSJNNDY3Ljc3LDM4OS44ODQ0IEM0NjcuNjEsMzY4LjEyNDQgNDY3LjQzNDEsMzQ1LjAxNDIgNDY3LjI3NDEsMzIzLjIyNDIgIiBmaWxsPSJub25lIiBpZD0iV2lkZ2V0RWRpdG9yLXRvLVdpZGdldENvbnRhaW5lciIgc3R5bGU9InN0cm9rZTojMTgxODE4O3N0cm9rZS13aWR0aDoxLjA7Ii8+PHBvbHlnb24gZmlsbD0iIzE4MTgxOCIgcG9pbnRzPSI0NjcuMjMsMzE3LjIyNDQsNDYzLjI5NjIsMzI2LjI1MzUsNDY3LjI2NjcsMzIyLjIyNDIsNDcxLjI5NiwzMjYuMTk0OCw0NjcuMjMsMzE3LjIyNDQiIHN0eWxlPSJzdHJva2U6IzE4MTgxODtzdHJva2Utd2lkdGg6MS4wOyIvPjwvZz48IS0tU1JDPVtYUEJIUWlDbTM0TlZ5bk1ZSm5zaWxwMWVpeTQyQk9talBTLWdoSVBjaGNEYVByMTZfdHNFY29MZmNaMzhZdEVrZjZsdlVrS3JHTHVnS3hYRFhJcFhLeWMyRjZwTFdQN0ZpOEFxQ2VBaWhyNzNjYU1mRjBiVkNvTTlIVjY1MVM1WWxkbTFGbWIwLTNmam96RUF3R2UxWDRSZHNpOFRjWTNaYmEwT3ByR2V2dWNsVkZkR1dUZkNlaWpUcHQwMVp5Z0NrWGV2S05YOTlocGNQcWxrcmNuUThsaU1admprbXdaODFyd2xQOEN5MTRFZEV4R3B4R0FQcUVUdXEzSEo0VGRpZlB4SDh4b1lhUGZ1VEFrU0Q5dDh5X2MzLTVpOTZkRy1hWFRiS3hnS3JBMUN0ZGpRbHNNZkxjSTZaZmhycmdweEpUWkFuSi1GODRFdEVQRnhCMkphUDJpSmtoY2ZkQm44dlFsWFd1aEE3NUtIU2xiRjZEeFpZY3dvS0RqV1hWUlBVNk10WUxvamRpUHZ3Wkh6bWRoTHR3MUVyNHRrREo1UGRJMlU4WHFfSDkzU2xLc1p3cFJVc3NxTkMtTnN5V2kwXS0tPjwvZz48L3N2Zz4=;" vertex="1" parent="1">
            <mxGeometry x="40" y="-240" width="591" height="868" as="geometry" />
          </mxCell>
        </UserObject>
        <UserObject label="" plantUmlData="{&#xa;  &quot;data&quot;: &quot;@startuml\n\nclass WidgetBase {\n  +config: any\n  +data: any\n  +settings: any\n  +initialize(): void\n  +destroy(): void\n}\n\nclass WidgetController {\n  +widget: WidgetBase\n  +loadData(): void\n  +updateWidget(): void\n}\n\nclass WidgetDataSource {\n  +fetchData(): Promise&lt;any&gt;\n}\n\nclass WidgetLibrary {\n  +widgets: Map&lt;string, WidgetBase&gt;\n  +registerWidget(name: string, widget: WidgetBase): void\n  +getWidget(name: string): WidgetBase\n}\n\nclass ChartWidgetBase {\n  +chartConfig: any\n  +renderChart(): void\n}\n\nclass TableWidgetBase {\n  +tableConfig: any\n  +renderTable(): void\n}\n\nWidgetBase &lt;|-- ChartWidgetBase\nWidgetBase &lt;|-- TableWidgetBase\nWidgetController --&gt; WidgetBase\nWidgetController --&gt; WidgetDataSource\nWidgetLibrary --&gt; WidgetBase\nWidgetLibrary --&gt; WidgetController\n\n@enduml\n&quot;,&#xa;  &quot;format&quot;: &quot;svg&quot;&#xa;}" id="MHvC_7Tn7mc6slhfHnne-5">
          <mxCell style="shape=image;noLabel=1;verticalAlign=top;aspect=fixed;imageAspect=0;image=data:image/svg+xml,PD94bWwgdmVyc2lvbj0iMS4wIiBlbmNvZGluZz0idXMtYXNjaWkiIHN0YW5kYWxvbmU9Im5vIj8+PHN2ZyB4bWxucz0iaHR0cDovL3d3dy53My5vcmcvMjAwMC9zdmciIHhtbG5zOnhsaW5rPSJodHRwOi8vd3d3LnczLm9yZy8xOTk5L3hsaW5rIiBjb250ZW50U3R5bGVUeXBlPSJ0ZXh0L2NzcyIgaGVpZ2h0PSI1ODBweCIgcHJlc2VydmVBc3BlY3RSYXRpbz0ibm9uZSIgc3R5bGU9IndpZHRoOjUwOHB4O2hlaWdodDo1ODBweDtiYWNrZ3JvdW5kOiNGRkZGRkY7IiB2ZXJzaW9uPSIxLjEiIHZpZXdCb3g9IjAgMCA1MDggNTgwIiB3aWR0aD0iNTA4cHgiIHpvb21BbmRQYW49Im1hZ25pZnkiPjxkZWZzLz48Zz48IS0tY2xhc3MgV2lkZ2V0QmFzZS0tPjxnIGlkPSJlbGVtX1dpZGdldEJhc2UiPjxyZWN0IGNvZGVMaW5lPSIxIiBmaWxsPSIjRjFGMUYxIiBoZWlnaHQ9IjEyMi45MjE5IiBpZD0iV2lkZ2V0QmFzZSIgcng9IjIuNSIgcnk9IjIuNSIgc3R5bGU9InN0cm9rZTojMTgxODE4O3N0cm9rZS13aWR0aDowLjU7IiB3aWR0aD0iMTU0IiB4PSIxMDguNSIgeT0iMzEzIi8+PGVsbGlwc2UgY3g9IjE0Ni45IiBjeT0iMzI5IiBmaWxsPSIjQUREMUIyIiByeD0iMTEiIHJ5PSIxMSIgc3R5bGU9InN0cm9rZTojMTgxODE4O3N0cm9rZS13aWR0aDoxLjA7Ii8+PHBhdGggZD0iTTE0NC41MjUsMzMzLjI1IEwxNDQuNTI1LDMzNSBMMTQ5LjQ2MjUsMzM1IEwxNDkuNDYyNSwzMzMuMjUgTDE0NC41MjUsMzMzLjI1IFogTTE0NS4yMTI1LDMzMy45Mzc1IFExNDUuMjEyNSwzMzMuOTM3NSAxNDUuMjEyNSwzMjQuNzUgTDE0My40NjI1LDMyNC43NSBRMTQzLjQ2MjUsMzI0Ljc1IDE0My40NjI1LDMzMy45Mzc1IEwxNDUuMjEyNSwzMzMuOTM3NSBaIE0xNDguNzc1LDMzMy45Mzc1IEwxNTAuNTI1LDMzMy45Mzc1IFExNTAuNTI1LDMzMy45Mzc1IDE1MC41MjUsMzMxLjEyNSBMMTQ4Ljc3NSwzMzEuMTI1IFExNDguNzc1LDMzMS4xMjUgMTQ4Ljc3NSwzMzMuOTM3NSBaIE0xNDguNzc1LDMyNC43NSBRMTQ4Ljc3NSwzMjQuNzUgMTQ4Ljc3NSwzMjcuNTYyNSBMMTUwLjUyNSwzMjcuNTYyNSBRMTUwLjUyNSwzMjcuNTYyNSAxNTAuNTI1LDMyNC43NSBMMTQ4Ljc3NSwzMjQuNzUgWiBNMTQ0LjUyNSwzMjUuNDM3NSBMMTQ5LjQ2MjUsMzI1LjQzNzUgTDE0OS40NjI1LDMyMy42ODc1IEwxNDQuNTI1LDMyMy42ODc1IEwxNDQuNTI1LDMyNS40Mzc1IFogIiBmaWxsPSIjMDAwMDAwIi8+PHRleHQgZmlsbD0iIzAwMDAwMCIgZm9udC1mYW1pbHk9InNhbnMtc2VyaWYiIGZvbnQtc2l6ZT0iMTQiIGxlbmd0aEFkanVzdD0ic3BhY2luZyIgdGV4dExlbmd0aD0iNzAiIHg9IjE2Ni4xIiB5PSIzMzQuNzQyMiI+V2lkZ2V0QmFzZTwvdGV4dD48bGluZSBzdHlsZT0ic3Ryb2tlOiMxODE4MTg7c3Ryb2tlLXdpZHRoOjAuNTsiIHgxPSIxMDkuNSIgeDI9IjI2MS41IiB5MT0iMzQ1IiB5Mj0iMzQ1Ii8+PGVsbGlwc2UgY3g9IjExOS41IiBjeT0iMzU3Ljk5MjIiIGZpbGw9Im5vbmUiIHJ4PSIzIiByeT0iMyIgc3R5bGU9InN0cm9rZTojMDM4MDQ4O3N0cm9rZS13aWR0aDoxLjA7Ii8+PHRleHQgZmlsbD0iIzAwMDAwMCIgZm9udC1mYW1pbHk9InNhbnMtc2VyaWYiIGZvbnQtc2l6ZT0iMTQiIGxlbmd0aEFkanVzdD0ic3BhY2luZyIgdGV4dExlbmd0aD0iNzciIHg9IjEyOC41IiB5PSIzNjIuMjM0NCI+Y29uZmlnOiBhbnk8L3RleHQ+PGVsbGlwc2UgY3g9IjExOS41IiBjeT0iMzcyLjk3NjYiIGZpbGw9Im5vbmUiIHJ4PSIzIiByeT0iMyIgc3R5bGU9InN0cm9rZTojMDM4MDQ4O3N0cm9rZS13aWR0aDoxLjA7Ii8+PHRleHQgZmlsbD0iIzAwMDAwMCIgZm9udC1mYW1pbHk9InNhbnMtc2VyaWYiIGZvbnQtc2l6ZT0iMTQiIGxlbmd0aEFkanVzdD0ic3BhY2luZyIgdGV4dExlbmd0aD0iNjMiIHg9IjEyOC41IiB5PSIzNzcuMjE4OCI+ZGF0YTogYW55PC90ZXh0PjxlbGxpcHNlIGN4PSIxMTkuNSIgY3k9IjM4Ny45NjA5IiBmaWxsPSJub25lIiByeD0iMyIgcnk9IjMiIHN0eWxlPSJzdHJva2U6IzAzODA0ODtzdHJva2Utd2lkdGg6MS4wOyIvPjx0ZXh0IGZpbGw9IiMwMDAwMDAiIGZvbnQtZmFtaWx5PSJzYW5zLXNlcmlmIiBmb250LXNpemU9IjE0IiBsZW5ndGhBZGp1c3Q9InNwYWNpbmciIHRleHRMZW5ndGg9IjkxIiB4PSIxMjguNSIgeT0iMzkyLjIwMzEiPnNldHRpbmdzOiBhbnk8L3RleHQ+PGxpbmUgc3R5bGU9InN0cm9rZTojMTgxODE4O3N0cm9rZS13aWR0aDowLjU7IiB4MT0iMTA5LjUiIHgyPSIyNjEuNSIgeTE9IjM5Ny45NTMxIiB5Mj0iMzk3Ljk1MzEiLz48ZWxsaXBzZSBjeD0iMTE5LjUiIGN5PSI0MTAuOTQ1MyIgZmlsbD0iIzg0QkU4NCIgcng9IjMiIHJ5PSIzIiBzdHlsZT0ic3Ryb2tlOiMwMzgwNDg7c3Ryb2tlLXdpZHRoOjEuMDsiLz48dGV4dCBmaWxsPSIjMDAwMDAwIiBmb250LWZhbWlseT0ic2Fucy1zZXJpZiIgZm9udC1zaXplPSIxNCIgbGVuZ3RoQWRqdXN0PSJzcGFjaW5nIiB0ZXh0TGVuZ3RoPSIxMjgiIHg9IjEyOC41IiB5PSI0MTUuMTg3NSI+aW5pdGlhbGl6ZSgpOiB2b2lkPC90ZXh0PjxlbGxpcHNlIGN4PSIxMTkuNSIgY3k9IjQyNS45Mjk3IiBmaWxsPSIjODRCRTg0IiByeD0iMyIgcnk9IjMiIHN0eWxlPSJzdHJva2U6IzAzODA0ODtzdHJva2Utd2lkdGg6MS4wOyIvPjx0ZXh0IGZpbGw9IiMwMDAwMDAiIGZvbnQtZmFtaWx5PSJzYW5zLXNlcmlmIiBmb250LXNpemU9IjE0IiBsZW5ndGhBZGp1c3Q9InNwYWNpbmciIHRleHRMZW5ndGg9IjEwNyIgeD0iMTI4LjUiIHk9IjQzMC4xNzE5Ij5kZXN0cm95KCk6IHZvaWQ8L3RleHQ+PC9nPjwhLS1jbGFzcyBXaWRnZXRDb250cm9sbGVyLS0+PGcgaWQ9ImVsZW1fV2lkZ2V0Q29udHJvbGxlciI+PHJlY3QgY29kZUxpbmU9IjkiIGZpbGw9IiNGMUYxRjEiIGhlaWdodD0iOTIuOTUzMSIgaWQ9IldpZGdldENvbnRyb2xsZXIiIHJ4PSIyLjUiIHJ5PSIyLjUiIHN0eWxlPSJzdHJva2U6IzE4MTgxODtzdHJva2Utd2lkdGg6MC41OyIgd2lkdGg9IjE2OCIgeD0iMjM4LjUiIHk9IjE2MCIvPjxlbGxpcHNlIGN4PSIyNjQuMyIgY3k9IjE3NiIgZmlsbD0iI0FERDFCMiIgcng9IjExIiByeT0iMTEiIHN0eWxlPSJzdHJva2U6IzE4MTgxODtzdHJva2Utd2lkdGg6MS4wOyIvPjxwYXRoIGQ9Ik0yNjEuOTI1LDE4MC4yNSBMMjYxLjkyNSwxODIgTDI2Ni44NjI1LDE4MiBMMjY2Ljg2MjUsMTgwLjI1IEwyNjEuOTI1LDE4MC4yNSBaIE0yNjIuNjEyNSwxODAuOTM3NSBRMjYyLjYxMjUsMTgwLjkzNzUgMjYyLjYxMjUsMTcxLjc1IEwyNjAuODYyNSwxNzEuNzUgUTI2MC44NjI1LDE3MS43NSAyNjAuODYyNSwxODAuOTM3NSBMMjYyLjYxMjUsMTgwLjkzNzUgWiBNMjY2LjE3NSwxODAuOTM3NSBMMjY3LjkyNSwxODAuOTM3NSBRMjY3LjkyNSwxODAuOTM3NSAyNjcuOTI1LDE3OC4xMjUgTDI2Ni4xNzUsMTc4LjEyNSBRMjY2LjE3NSwxNzguMTI1IDI2Ni4xNzUsMTgwLjkzNzUgWiBNMjY2LjE3NSwxNzEuNzUgUTI2Ni4xNzUsMTcxLjc1IDI2Ni4xNzUsMTc0LjU2MjUgTDI2Ny45MjUsMTc0LjU2MjUgUTI2Ny45MjUsMTc0LjU2MjUgMjY3LjkyNSwxNzEuNzUgTDI2Ni4xNzUsMTcxLjc1IFogTTI2MS45MjUsMTcyLjQzNzUgTDI2Ni44NjI1LDE3Mi40Mzc1IEwyNjYuODYyNSwxNzAuNjg3NSBMMjYxLjkyNSwxNzAuNjg3NSBMMjYxLjkyNSwxNzIuNDM3NSBaICIgZmlsbD0iIzAwMDAwMCIvPjx0ZXh0IGZpbGw9IiMwMDAwMDAiIGZvbnQtZmFtaWx5PSJzYW5zLXNlcmlmIiBmb250LXNpemU9IjE0IiBsZW5ndGhBZGp1c3Q9InNwYWNpbmciIHRleHRMZW5ndGg9IjExMiIgeD0iMjgwLjciIHk9IjE4MS43NDIyIj5XaWRnZXRDb250cm9sbGVyPC90ZXh0PjxsaW5lIHN0eWxlPSJzdHJva2U6IzE4MTgxODtzdHJva2Utd2lkdGg6MC41OyIgeDE9IjIzOS41IiB4Mj0iNDA1LjUiIHkxPSIxOTIiIHkyPSIxOTIiLz48ZWxsaXBzZSBjeD0iMjQ5LjUiIGN5PSIyMDQuOTkyMiIgZmlsbD0ibm9uZSIgcng9IjMiIHJ5PSIzIiBzdHlsZT0ic3Ryb2tlOiMwMzgwNDg7c3Ryb2tlLXdpZHRoOjEuMDsiLz48dGV4dCBmaWxsPSIjMDAwMDAwIiBmb250LWZhbWlseT0ic2Fucy1zZXJpZiIgZm9udC1zaXplPSIxNCIgbGVuZ3RoQWRqdXN0PSJzcGFjaW5nIiB0ZXh0TGVuZ3RoPSIxMjciIHg9IjI1OC41IiB5PSIyMDkuMjM0NCI+d2lkZ2V0OiBXaWRnZXRCYXNlPC90ZXh0PjxsaW5lIHN0eWxlPSJzdHJva2U6IzE4MTgxODtzdHJva2Utd2lkdGg6MC41OyIgeDE9IjIzOS41IiB4Mj0iNDA1LjUiIHkxPSIyMTQuOTg0NCIgeTI9IjIxNC45ODQ0Ii8+PGVsbGlwc2UgY3g9IjI0OS41IiBjeT0iMjI3Ljk3NjYiIGZpbGw9IiM4NEJFODQiIHJ4PSIzIiByeT0iMyIgc3R5bGU9InN0cm9rZTojMDM4MDQ4O3N0cm9rZS13aWR0aDoxLjA7Ii8+PHRleHQgZmlsbD0iIzAwMDAwMCIgZm9udC1mYW1pbHk9InNhbnMtc2VyaWYiIGZvbnQtc2l6ZT0iMTQiIGxlbmd0aEFkanVzdD0ic3BhY2luZyIgdGV4dExlbmd0aD0iMTE0IiB4PSIyNTguNSIgeT0iMjMyLjIxODgiPmxvYWREYXRhKCk6IHZvaWQ8L3RleHQ+PGVsbGlwc2UgY3g9IjI0OS41IiBjeT0iMjQyLjk2MDkiIGZpbGw9IiM4NEJFODQiIHJ4PSIzIiByeT0iMyIgc3R5bGU9InN0cm9rZTojMDM4MDQ4O3N0cm9rZS13aWR0aDoxLjA7Ii8+PHRleHQgZmlsbD0iIzAwMDAwMCIgZm9udC1mYW1pbHk9InNhbnMtc2VyaWYiIGZvbnQtc2l6ZT0iMTQiIGxlbmd0aEFkanVzdD0ic3BhY2luZyIgdGV4dExlbmd0aD0iMTQyIiB4PSIyNTguNSIgeT0iMjQ3LjIwMzEiPnVwZGF0ZVdpZGdldCgpOiB2b2lkPC90ZXh0PjwvZz48IS0tY2xhc3MgV2lkZ2V0RGF0YVNvdXJjZS0tPjxnIGlkPSJlbGVtX1dpZGdldERhdGFTb3VyY2UiPjxyZWN0IGNvZGVMaW5lPSIxNSIgZmlsbD0iI0YxRjFGMSIgaGVpZ2h0PSI2Mi45ODQ0IiBpZD0iV2lkZ2V0RGF0YVNvdXJjZSIgcng9IjIuNSIgcnk9IjIuNSIgc3R5bGU9InN0cm9rZTojMTgxODE4O3N0cm9rZS13aWR0aDowLjU7IiB3aWR0aD0iMjA0IiB4PSIyOTcuNSIgeT0iMzQzIi8+PGVsbGlwc2UgY3g9IjMzOS41IiBjeT0iMzU5IiBmaWxsPSIjQUREMUIyIiByeD0iMTEiIHJ5PSIxMSIgc3R5bGU9InN0cm9rZTojMTgxODE4O3N0cm9rZS13aWR0aDoxLjA7Ii8+PHBhdGggZD0iTTMzNy4xMjUsMzYzLjI1IEwzMzcuMTI1LDM2NSBMMzQyLjA2MjUsMzY1IEwzNDIuMDYyNSwzNjMuMjUgTDMzNy4xMjUsMzYzLjI1IFogTTMzNy44MTI1LDM2My45Mzc1IFEzMzcuODEyNSwzNjMuOTM3NSAzMzcuODEyNSwzNTQuNzUgTDMzNi4wNjI1LDM1NC43NSBRMzM2LjA2MjUsMzU0Ljc1IDMzNi4wNjI1LDM2My45Mzc1IEwzMzcuODEyNSwzNjMuOTM3NSBaIE0zNDEuMzc1LDM2My45Mzc1IEwzNDMuMTI1LDM2My45Mzc1IFEzNDMuMTI1LDM2My45Mzc1IDM0My4xMjUsMzYxLjEyNSBMMzQxLjM3NSwzNjEuMTI1IFEzNDEuMzc1LDM2MS4xMjUgMzQxLjM3NSwzNjMuOTM3NSBaIE0zNDEuMzc1LDM1NC43NSBRMzQxLjM3NSwzNTQuNzUgMzQxLjM3NSwzNTcuNTYyNSBMMzQzLjEyNSwzNTcuNTYyNSBRMzQzLjEyNSwzNTcuNTYyNSAzNDMuMTI1LDM1NC43NSBMMzQxLjM3NSwzNTQuNzUgWiBNMzM3LjEyNSwzNTUuNDM3NSBMMzQyLjA2MjUsMzU1LjQzNzUgTDM0Mi4wNjI1LDM1My42ODc1IEwzMzcuMTI1LDM1My42ODc1IEwzMzcuMTI1LDM1NS40Mzc1IFogIiBmaWxsPSIjMDAwMDAwIi8+PHRleHQgZmlsbD0iIzAwMDAwMCIgZm9udC1mYW1pbHk9InNhbnMtc2VyaWYiIGZvbnQtc2l6ZT0iMTQiIGxlbmd0aEFkanVzdD0ic3BhY2luZyIgdGV4dExlbmd0aD0iMTEyIiB4PSIzNTkuNSIgeT0iMzY0Ljc0MjIiPldpZGdldERhdGFTb3VyY2U8L3RleHQ+PGxpbmUgc3R5bGU9InN0cm9rZTojMTgxODE4O3N0cm9rZS13aWR0aDowLjU7IiB4MT0iMjk4LjUiIHgyPSI1MDAuNSIgeTE9IjM3NSIgeTI9IjM3NSIvPjxsaW5lIHN0eWxlPSJzdHJva2U6IzE4MTgxODtzdHJva2Utd2lkdGg6MC41OyIgeDE9IjI5OC41IiB4Mj0iNTAwLjUiIHkxPSIzODMiIHkyPSIzODMiLz48ZWxsaXBzZSBjeD0iMzA4LjUiIGN5PSIzOTUuOTkyMiIgZmlsbD0iIzg0QkU4NCIgcng9IjMiIHJ5PSIzIiBzdHlsZT0ic3Ryb2tlOiMwMzgwNDg7c3Ryb2tlLXdpZHRoOjEuMDsiLz48dGV4dCBmaWxsPSIjMDAwMDAwIiBmb250LWZhbWlseT0ic2Fucy1zZXJpZiIgZm9udC1zaXplPSIxNCIgbGVuZ3RoQWRqdXN0PSJzcGFjaW5nIiB0ZXh0TGVuZ3RoPSIxNzgiIHg9IjMxNy41IiB5PSI0MDAuMjM0NCI+ZmV0Y2hEYXRhKCk6IFByb21pc2UmbHQ7YW55Jmd0OzwvdGV4dD48L2c+PCEtLWNsYXNzIFdpZGdldExpYnJhcnktLT48ZyBpZD0iZWxlbV9XaWRnZXRMaWJyYXJ5Ij48cmVjdCBjb2RlTGluZT0iMTkiIGZpbGw9IiNGMUYxRjEiIGhlaWdodD0iOTIuOTUzMSIgaWQ9IldpZGdldExpYnJhcnkiIHJ4PSIyLjUiIHJ5PSIyLjUiIHN0eWxlPSJzdHJva2U6IzE4MTgxODtzdHJva2Utd2lkdGg6MC41OyIgd2lkdGg9IjQwOCIgeD0iNDkuNSIgeT0iNyIvPjxlbGxpcHNlIGN4PSIyMDMuNzUiIGN5PSIyMyIgZmlsbD0iI0FERDFCMiIgcng9IjExIiByeT0iMTEiIHN0eWxlPSJzdHJva2U6IzE4MTgxODtzdHJva2Utd2lkdGg6MS4wOyIvPjxwYXRoIGQ9Ik0yMDEuMzc1LDI3LjI1IEwyMDEuMzc1LDI5IEwyMDYuMzEyNSwyOSBMMjA2LjMxMjUsMjcuMjUgTDIwMS4zNzUsMjcuMjUgWiBNMjAyLjA2MjUsMjcuOTM3NSBRMjAyLjA2MjUsMjcuOTM3NSAyMDIuMDYyNSwxOC43NSBMMjAwLjMxMjUsMTguNzUgUTIwMC4zMTI1LDE4Ljc1IDIwMC4zMTI1LDI3LjkzNzUgTDIwMi4wNjI1LDI3LjkzNzUgWiBNMjA1LjYyNSwyNy45Mzc1IEwyMDcuMzc1LDI3LjkzNzUgUTIwNy4zNzUsMjcuOTM3NSAyMDcuMzc1LDI1LjEyNSBMMjA1LjYyNSwyNS4xMjUgUTIwNS42MjUsMjUuMTI1IDIwNS42MjUsMjcuOTM3NSBaIE0yMDUuNjI1LDE4Ljc1IFEyMDUuNjI1LDE4Ljc1IDIwNS42MjUsMjEuNTYyNSBMMjA3LjM3NSwyMS41NjI1IFEyMDcuMzc1LDIxLjU2MjUgMjA3LjM3NSwxOC43NSBMMjA1LjYyNSwxOC43NSBaIE0yMDEuMzc1LDE5LjQzNzUgTDIwNi4zMTI1LDE5LjQzNzUgTDIwNi4zMTI1LDE3LjY4NzUgTDIwMS4zNzUsMTcuNjg3NSBMMjAxLjM3NSwxOS40Mzc1IFogIiBmaWxsPSIjMDAwMDAwIi8+PHRleHQgZmlsbD0iIzAwMDAwMCIgZm9udC1mYW1pbHk9InNhbnMtc2VyaWYiIGZvbnQtc2l6ZT0iMTQiIGxlbmd0aEFkanVzdD0ic3BhY2luZyIgdGV4dExlbmd0aD0iOTEiIHg9IjIyNC4yNSIgeT0iMjguNzQyMiI+V2lkZ2V0TGlicmFyeTwvdGV4dD48bGluZSBzdHlsZT0ic3Ryb2tlOiMxODE4MTg7c3Ryb2tlLXdpZHRoOjAuNTsiIHgxPSI1MC41IiB4Mj0iNDU2LjUiIHkxPSIzOSIgeTI9IjM5Ii8+PGVsbGlwc2UgY3g9IjYwLjUiIGN5PSI1MS45OTIyIiBmaWxsPSJub25lIiByeD0iMyIgcnk9IjMiIHN0eWxlPSJzdHJva2U6IzAzODA0ODtzdHJva2Utd2lkdGg6MS4wOyIvPjx0ZXh0IGZpbGw9IiMwMDAwMDAiIGZvbnQtZmFtaWx5PSJzYW5zLXNlcmlmIiBmb250LXNpemU9IjE0IiBsZW5ndGhBZGp1c3Q9InNwYWNpbmciIHRleHRMZW5ndGg9IjIyNSIgeD0iNjkuNSIgeT0iNTYuMjM0NCI+d2lkZ2V0czogTWFwJmx0O3N0cmluZywgV2lkZ2V0QmFzZSZndDs8L3RleHQ+PGxpbmUgc3R5bGU9InN0cm9rZTojMTgxODE4O3N0cm9rZS13aWR0aDowLjU7IiB4MT0iNTAuNSIgeDI9IjQ1Ni41IiB5MT0iNjEuOTg0NCIgeTI9IjYxLjk4NDQiLz48ZWxsaXBzZSBjeD0iNjAuNSIgY3k9Ijc0Ljk3NjYiIGZpbGw9IiM4NEJFODQiIHJ4PSIzIiByeT0iMyIgc3R5bGU9InN0cm9rZTojMDM4MDQ4O3N0cm9rZS13aWR0aDoxLjA7Ii8+PHRleHQgZmlsbD0iIzAwMDAwMCIgZm9udC1mYW1pbHk9InNhbnMtc2VyaWYiIGZvbnQtc2l6ZT0iMTQiIGxlbmd0aEFkanVzdD0ic3BhY2luZyIgdGV4dExlbmd0aD0iMzgyIiB4PSI2OS41IiB5PSI3OS4yMTg4Ij5yZWdpc3RlcldpZGdldChuYW1lOiBzdHJpbmcsIHdpZGdldDogV2lkZ2V0QmFzZSk6IHZvaWQ8L3RleHQ+PGVsbGlwc2UgY3g9IjYwLjUiIGN5PSI4OS45NjA5IiBmaWxsPSIjODRCRTg0IiByeD0iMyIgcnk9IjMiIHN0eWxlPSJzdHJva2U6IzAzODA0ODtzdHJva2Utd2lkdGg6MS4wOyIvPjx0ZXh0IGZpbGw9IiMwMDAwMDAiIGZvbnQtZmFtaWx5PSJzYW5zLXNlcmlmIiBmb250LXNpemU9IjE0IiBsZW5ndGhBZGp1c3Q9InNwYWNpbmciIHRleHRMZW5ndGg9IjI0OCIgeD0iNjkuNSIgeT0iOTQuMjAzMSI+Z2V0V2lkZ2V0KG5hbWU6IHN0cmluZyk6IFdpZGdldEJhc2U8L3RleHQ+PC9nPjwhLS1jbGFzcyBDaGFydFdpZGdldEJhc2UtLT48ZyBpZD0iZWxlbV9DaGFydFdpZGdldEJhc2UiPjxyZWN0IGNvZGVMaW5lPSIyNSIgZmlsbD0iI0YxRjFGMSIgaGVpZ2h0PSI3Ny45Njg4IiBpZD0iQ2hhcnRXaWRnZXRCYXNlIiByeD0iMi41IiByeT0iMi41IiBzdHlsZT0ic3Ryb2tlOiMxODE4MTg7c3Ryb2tlLXdpZHRoOjAuNTsiIHdpZHRoPSIxNjEiIHg9IjciIHk9IjQ5NiIvPjxlbGxpcHNlIGN4PSIzMi44IiBjeT0iNTEyIiBmaWxsPSIjQUREMUIyIiByeD0iMTEiIHJ5PSIxMSIgc3R5bGU9InN0cm9rZTojMTgxODE4O3N0cm9rZS13aWR0aDoxLjA7Ii8+PHBhdGggZD0iTTMwLjQyNSw1MTYuMjUgTDMwLjQyNSw1MTggTDM1LjM2MjUsNTE4IEwzNS4zNjI1LDUxNi4yNSBMMzAuNDI1LDUxNi4yNSBaIE0zMS4xMTI1LDUxNi45Mzc1IFEzMS4xMTI1LDUxNi45Mzc1IDMxLjExMjUsNTA3Ljc1IEwyOS4zNjI1LDUwNy43NSBRMjkuMzYyNSw1MDcuNzUgMjkuMzYyNSw1MTYuOTM3NSBMMzEuMTEyNSw1MTYuOTM3NSBaIE0zNC42NzUsNTE2LjkzNzUgTDM2LjQyNSw1MTYuOTM3NSBRMzYuNDI1LDUxNi45Mzc1IDM2LjQyNSw1MTQuMTI1IEwzNC42NzUsNTE0LjEyNSBRMzQuNjc1LDUxNC4xMjUgMzQuNjc1LDUxNi45Mzc1IFogTTM0LjY3NSw1MDcuNzUgUTM0LjY3NSw1MDcuNzUgMzQuNjc1LDUxMC41NjI1IEwzNi40MjUsNTEwLjU2MjUgUTM2LjQyNSw1MTAuNTYyNSAzNi40MjUsNTA3Ljc1IEwzNC42NzUsNTA3Ljc1IFogTTMwLjQyNSw1MDguNDM3NSBMMzUuMzYyNSw1MDguNDM3NSBMMzUuMzYyNSw1MDYuNjg3NSBMMzAuNDI1LDUwNi42ODc1IEwzMC40MjUsNTA4LjQzNzUgWiAiIGZpbGw9IiMwMDAwMDAiLz48dGV4dCBmaWxsPSIjMDAwMDAwIiBmb250LWZhbWlseT0ic2Fucy1zZXJpZiIgZm9udC1zaXplPSIxNCIgbGVuZ3RoQWRqdXN0PSJzcGFjaW5nIiB0ZXh0TGVuZ3RoPSIxMDUiIHg9IjQ5LjIiIHk9IjUxNy43NDIyIj5DaGFydFdpZGdldEJhc2U8L3RleHQ+PGxpbmUgc3R5bGU9InN0cm9rZTojMTgxODE4O3N0cm9rZS13aWR0aDowLjU7IiB4MT0iOCIgeDI9IjE2NyIgeTE9IjUyOCIgeTI9IjUyOCIvPjxlbGxpcHNlIGN4PSIxOCIgY3k9IjU0MC45OTIyIiBmaWxsPSJub25lIiByeD0iMyIgcnk9IjMiIHN0eWxlPSJzdHJva2U6IzAzODA0ODtzdHJva2Utd2lkdGg6MS4wOyIvPjx0ZXh0IGZpbGw9IiMwMDAwMDAiIGZvbnQtZmFtaWx5PSJzYW5zLXNlcmlmIiBmb250LXNpemU9IjE0IiBsZW5ndGhBZGp1c3Q9InNwYWNpbmciIHRleHRMZW5ndGg9IjExMiIgeD0iMjciIHk9IjU0NS4yMzQ0Ij5jaGFydENvbmZpZzogYW55PC90ZXh0PjxsaW5lIHN0eWxlPSJzdHJva2U6IzE4MTgxODtzdHJva2Utd2lkdGg6MC41OyIgeDE9IjgiIHgyPSIxNjciIHkxPSI1NTAuOTg0NCIgeTI9IjU1MC45ODQ0Ii8+PGVsbGlwc2UgY3g9IjE4IiBjeT0iNTYzLjk3NjYiIGZpbGw9IiM4NEJFODQiIHJ4PSIzIiByeT0iMyIgc3R5bGU9InN0cm9rZTojMDM4MDQ4O3N0cm9rZS13aWR0aDoxLjA7Ii8+PHRleHQgZmlsbD0iIzAwMDAwMCIgZm9udC1mYW1pbHk9InNhbnMtc2VyaWYiIGZvbnQtc2l6ZT0iMTQiIGxlbmd0aEFkanVzdD0ic3BhY2luZyIgdGV4dExlbmd0aD0iMTM1IiB4PSIyNyIgeT0iNTY4LjIxODgiPnJlbmRlckNoYXJ0KCk6IHZvaWQ8L3RleHQ+PC9nPjwhLS1jbGFzcyBUYWJsZVdpZGdldEJhc2UtLT48ZyBpZD0iZWxlbV9UYWJsZVdpZGdldEJhc2UiPjxyZWN0IGNvZGVMaW5lPSIzMCIgZmlsbD0iI0YxRjFGMSIgaGVpZ2h0PSI3Ny45Njg4IiBpZD0iVGFibGVXaWRnZXRCYXNlIiByeD0iMi41IiByeT0iMi41IiBzdHlsZT0ic3Ryb2tlOiMxODE4MTg7c3Ryb2tlLXdpZHRoOjAuNTsiIHdpZHRoPSIxNjEiIHg9IjIwMyIgeT0iNDk2Ii8+PGVsbGlwc2UgY3g9IjIyOC44IiBjeT0iNTEyIiBmaWxsPSIjQUREMUIyIiByeD0iMTEiIHJ5PSIxMSIgc3R5bGU9InN0cm9rZTojMTgxODE4O3N0cm9rZS13aWR0aDoxLjA7Ii8+PHBhdGggZD0iTTIyNi40MjUsNTE2LjI1IEwyMjYuNDI1LDUxOCBMMjMxLjM2MjUsNTE4IEwyMzEuMzYyNSw1MTYuMjUgTDIyNi40MjUsNTE2LjI1IFogTTIyNy4xMTI1LDUxNi45Mzc1IFEyMjcuMTEyNSw1MTYuOTM3NSAyMjcuMTEyNSw1MDcuNzUgTDIyNS4zNjI1LDUwNy43NSBRMjI1LjM2MjUsNTA3Ljc1IDIyNS4zNjI1LDUxNi45Mzc1IEwyMjcuMTEyNSw1MTYuOTM3NSBaIE0yMzAuNjc1LDUxNi45Mzc1IEwyMzIuNDI1LDUxNi45Mzc1IFEyMzIuNDI1LDUxNi45Mzc1IDIzMi40MjUsNTE0LjEyNSBMMjMwLjY3NSw1MTQuMTI1IFEyMzAuNjc1LDUxNC4xMjUgMjMwLjY3NSw1MTYuOTM3NSBaIE0yMzAuNjc1LDUwNy43NSBRMjMwLjY3NSw1MDcuNzUgMjMwLjY3NSw1MTAuNTYyNSBMMjMyLjQyNSw1MTAuNTYyNSBRMjMyLjQyNSw1MTAuNTYyNSAyMzIuNDI1LDUwNy43NSBMMjMwLjY3NSw1MDcuNzUgWiBNMjI2LjQyNSw1MDguNDM3NSBMMjMxLjM2MjUsNTA4LjQzNzUgTDIzMS4zNjI1LDUwNi42ODc1IEwyMjYuNDI1LDUwNi42ODc1IEwyMjYuNDI1LDUwOC40Mzc1IFogIiBmaWxsPSIjMDAwMDAwIi8+PHRleHQgZmlsbD0iIzAwMDAwMCIgZm9udC1mYW1pbHk9InNhbnMtc2VyaWYiIGZvbnQtc2l6ZT0iMTQiIGxlbmd0aEFkanVzdD0ic3BhY2luZyIgdGV4dExlbmd0aD0iMTA1IiB4PSIyNDUuMiIgeT0iNTE3Ljc0MjIiPlRhYmxlV2lkZ2V0QmFzZTwvdGV4dD48bGluZSBzdHlsZT0ic3Ryb2tlOiMxODE4MTg7c3Ryb2tlLXdpZHRoOjAuNTsiIHgxPSIyMDQiIHgyPSIzNjMiIHkxPSI1MjgiIHkyPSI1MjgiLz48ZWxsaXBzZSBjeD0iMjE0IiBjeT0iNTQwLjk5MjIiIGZpbGw9Im5vbmUiIHJ4PSIzIiByeT0iMyIgc3R5bGU9InN0cm9rZTojMDM4MDQ4O3N0cm9rZS13aWR0aDoxLjA7Ii8+PHRleHQgZmlsbD0iIzAwMDAwMCIgZm9udC1mYW1pbHk9InNhbnMtc2VyaWYiIGZvbnQtc2l6ZT0iMTQiIGxlbmd0aEFkanVzdD0ic3BhY2luZyIgdGV4dExlbmd0aD0iMTEyIiB4PSIyMjMiIHk9IjU0NS4yMzQ0Ij50YWJsZUNvbmZpZzogYW55PC90ZXh0PjxsaW5lIHN0eWxlPSJzdHJva2U6IzE4MTgxODtzdHJva2Utd2lkdGg6MC41OyIgeDE9IjIwNCIgeDI9IjM2MyIgeTE9IjU1MC45ODQ0IiB5Mj0iNTUwLjk4NDQiLz48ZWxsaXBzZSBjeD0iMjE0IiBjeT0iNTYzLjk3NjYiIGZpbGw9IiM4NEJFODQiIHJ4PSIzIiByeT0iMyIgc3R5bGU9InN0cm9rZTojMDM4MDQ4O3N0cm9rZS13aWR0aDoxLjA7Ii8+PHRleHQgZmlsbD0iIzAwMDAwMCIgZm9udC1mYW1pbHk9InNhbnMtc2VyaWYiIGZvbnQtc2l6ZT0iMTQiIGxlbmd0aEFkanVzdD0ic3BhY2luZyIgdGV4dExlbmd0aD0iMTM1IiB4PSIyMjMiIHk9IjU2OC4yMTg4Ij5yZW5kZXJUYWJsZSgpOiB2b2lkPC90ZXh0PjwvZz48IS0tcmV2ZXJzZSBsaW5rIFdpZGdldEJhc2UgdG8gQ2hhcnRXaWRnZXRCYXNlLS0+PGcgaWQ9ImxpbmtfV2lkZ2V0QmFzZV9DaGFydFdpZGdldEJhc2UiPjxwYXRoIGNvZGVMaW5lPSIzNSIgZD0iTTEzOC40MjA2LDQ1MS42Mzc5IEMxMjYuMTEwNiw0NzEuNTM3OSAxMjIuMjYsNDc3Ljc4IDExMS4yNyw0OTUuNTYgIiBmaWxsPSJub25lIiBpZD0iV2lkZ2V0QmFzZS1iYWNrdG8tQ2hhcnRXaWRnZXRCYXNlIiBzdHlsZT0ic3Ryb2tlOiMxODE4MTg7c3Ryb2tlLXdpZHRoOjEuMDsiLz48cG9seWdvbiBmaWxsPSJub25lIiBwb2ludHM9IjE0Ny44OSw0MzYuMzMsMTMzLjMxOCw0NDguNDgxNCwxNDMuNTIzMyw0NTQuNzk0MywxNDcuODksNDM2LjMzIiBzdHlsZT0ic3Ryb2tlOiMxODE4MTg7c3Ryb2tlLXdpZHRoOjEuMDsiLz48L2c+PCEtLXJldmVyc2UgbGluayBXaWRnZXRCYXNlIHRvIFRhYmxlV2lkZ2V0QmFzZS0tPjxnIGlkPSJsaW5rX1dpZGdldEJhc2VfVGFibGVXaWRnZXRCYXNlIj48cGF0aCBjb2RlTGluZT0iMzYiIGQ9Ik0yMzIuNTc5NCw0NTEuNjM3OSBDMjQ0Ljg4OTQsNDcxLjUzNzkgMjQ4Ljc0LDQ3Ny43OCAyNTkuNzMsNDk1LjU2ICIgZmlsbD0ibm9uZSIgaWQ9IldpZGdldEJhc2UtYmFja3RvLVRhYmxlV2lkZ2V0QmFzZSIgc3R5bGU9InN0cm9rZTojMTgxODE4O3N0cm9rZS13aWR0aDoxLjA7Ii8+PHBvbHlnb24gZmlsbD0ibm9uZSIgcG9pbnRzPSIyMjMuMTEsNDM2LjMzLDIyNy40NzY3LDQ1NC43OTQzLDIzNy42ODIsNDQ4LjQ4MTQsMjIzLjExLDQzNi4zMyIgc3R5bGU9InN0cm9rZTojMTgxODE4O3N0cm9rZS13aWR0aDoxLjA7Ii8+PC9nPjwhLS1saW5rIFdpZGdldENvbnRyb2xsZXIgdG8gV2lkZ2V0QmFzZS0tPjxnIGlkPSJsaW5rX1dpZGdldENvbnRyb2xsZXJfV2lkZ2V0QmFzZSI+PHBhdGggY29kZUxpbmU9IjM3IiBkPSJNMjg0LjcsMjUzLjMgQzI2OS40OSwyNzEuNzMgMjU1LjU1OTEsMjg4LjYwMjQgMjM5LjMwOTEsMzA4LjI5MjQgIiBmaWxsPSJub25lIiBpZD0iV2lkZ2V0Q29udHJvbGxlci10by1XaWRnZXRCYXNlIiBzdHlsZT0ic3Ryb2tlOiMxODE4MTg7c3Ryb2tlLXdpZHRoOjEuMDsiLz48cG9seWdvbiBmaWxsPSIjMTgxODE4IiBwb2ludHM9IjIzNS40OSwzMTIuOTIsMjQ0LjMwMzcsMzA4LjUyNDcsMjM4LjY3MjYsMzA5LjA2MzcsMjM4LjEzMzYsMzAzLjQzMjYsMjM1LjQ5LDMxMi45MiIgc3R5bGU9InN0cm9rZTojMTgxODE4O3N0cm9rZS13aWR0aDoxLjA7Ii8+PC9nPjwhLS1saW5rIFdpZGdldENvbnRyb2xsZXIgdG8gV2lkZ2V0RGF0YVNvdXJjZS0tPjxnIGlkPSJsaW5rX1dpZGdldENvbnRyb2xsZXJfV2lkZ2V0RGF0YVNvdXJjZSI+PHBhdGggY29kZUxpbmU9IjM4IiBkPSJNMzQzLjc0LDI1My4zIEMzNTYuOTcsMjgxLjggMzcxLjA4NDgsMzEyLjIzNzMgMzgyLjczNDgsMzM3LjM0NzMgIiBmaWxsPSJub25lIiBpZD0iV2lkZ2V0Q29udHJvbGxlci10by1XaWRnZXREYXRhU291cmNlIiBzdHlsZT0ic3Ryb2tlOiMxODE4MTg7c3Ryb2tlLXdpZHRoOjEuMDsiLz48cG9seWdvbiBmaWxsPSIjMTgxODE4IiBwb2ludHM9IjM4NS4yNiwzNDIuNzksMzg1LjEwMDcsMzMyLjk0MjQsMzgzLjE1NTcsMzM4LjI1NDQsMzc3Ljg0MzcsMzM2LjMwOTQsMzg1LjI2LDM0Mi43OSIgc3R5bGU9InN0cm9rZTojMTgxODE4O3N0cm9rZS13aWR0aDoxLjA7Ii8+PC9nPjwhLS1saW5rIFdpZGdldExpYnJhcnkgdG8gV2lkZ2V0QmFzZS0tPjxnIGlkPSJsaW5rX1dpZGdldExpYnJhcnlfV2lkZ2V0QmFzZSI+PHBhdGggY29kZUxpbmU9IjM5IiBkPSJNMjM4LjI4LDEwMC4xMSBDMjMyLjQ4LDExOC41NiAyMjYuMTYsMTQwLjE2IDIyMS41LDE2MCBDMjA5LjUxLDIxMS4wNSAyMDAuNzU1NCwyNjMuOTIyNyAxOTQuNDk1NCwzMDYuODcyNyAiIGZpbGw9Im5vbmUiIGlkPSJXaWRnZXRMaWJyYXJ5LXRvLVdpZGdldEJhc2UiIHN0eWxlPSJzdHJva2U6IzE4MTgxODtzdHJva2Utd2lkdGg6MS4wOyIvPjxwb2x5Z29uIGZpbGw9IiMxODE4MTgiIHBvaW50cz0iMTkzLjYzLDMxMi44MSwxOTguODg2MiwzMDQuNDgxLDE5NC4zNTExLDMwNy44NjIzLDE5MC45Njk5LDMwMy4zMjcyLDE5My42MywzMTIuODEiIHN0eWxlPSJzdHJva2U6IzE4MTgxODtzdHJva2Utd2lkdGg6MS4wOyIvPjwvZz48IS0tbGluayBXaWRnZXRMaWJyYXJ5IHRvIFdpZGdldENvbnRyb2xsZXItLT48ZyBpZD0ibGlua19XaWRnZXRMaWJyYXJ5X1dpZGdldENvbnRyb2xsZXIiPjxwYXRoIGNvZGVMaW5lPSI0MCIgZD0iTTI3NC4zOSwxMDAuMjEgQzI4My4wNCwxMTkuMTQgMjkwLjU0NjUsMTM1LjU3MjcgMjk5LjE4NjUsMTU0LjQ4MjcgIiBmaWxsPSJub25lIiBpZD0iV2lkZ2V0TGlicmFyeS10by1XaWRnZXRDb250cm9sbGVyIiBzdHlsZT0ic3Ryb2tlOiMxODE4MTg7c3Ryb2tlLXdpZHRoOjEuMDsiLz48cG9seWdvbiBmaWxsPSIjMTgxODE4IiBwb2ludHM9IjMwMS42OCwxNTkuOTQsMzAxLjU3OCwxNTAuMDkxNywyOTkuNjAyMSwxNTUuMzkyMiwyOTQuMzAxNiwxNTMuNDE2MywzMDEuNjgsMTU5Ljk0IiBzdHlsZT0ic3Ryb2tlOiMxODE4MTg7c3Ryb2tlLXdpZHRoOjEuMDsiLz48L2c+PCEtLVNSQz1bWkw3QlFpQ200QnBoQXRIaVFGcTNubFhHenpYMmVPTVNEX0I2TUwyYWk1OFF0Q1VfTHQ4SUh4UFN3NTZwQ3hDcE1nTjFFUmNjamFGXzIweGJidjNvTmJjcGZRd0tPRmh1UkM3My03M2VGUGRFWkcwUHlXSVFGbDVrTFNlRkktc1dHVVZQellGcTh1SEFUWk5NWEI3TW9FVURmbTRqYW9HSHJIUlFmeDB5REp1VUdYbXl5X3ZvWnZldFVzSHJ3UkQ1aHRQTmVyVXNVdDlPWFZack5GWEM2bVJrcXFvWHcwaVNnajBjajd2ODBqUUhtellIeXlZTkYwUnNNQ2VoRG8tTHowWjhXY1dyLU84bk5SQzN6amNMOGpYQ0p5TGVNa0kxZGRfRUVzbXFwYnJ5MTFUVDFkaGdhYVloeHdBT2Z5aGNpdHFZRXRySHJGOV95emo1blZISVluUnZ5NlJ3Mm0wMF0tLT48L2c+PC9zdmc+;" vertex="1" parent="1">
            <mxGeometry x="710" y="-290" width="508" height="580" as="geometry" />
          </mxCell>
        </UserObject>
        <mxCell id="MHvC_7Tn7mc6slhfHnne-6" value="Class diagram" style="text;html=1;align=center;verticalAlign=middle;whiteSpace=wrap;rounded=0;" vertex="1" parent="1">
          <mxGeometry x="890" y="-340" width="130" height="30" as="geometry" />
        </mxCell>
        <UserObject label="" plantUmlData="{&#xa;  &quot;data&quot;: &quot;@startuml\n!theme plain\nskinparam componentStyle uml2\n\npackage \&quot;Client Layer\&quot; {\n    [Web UI]\n    [Mobile Application]\n    [External Systems]\n}\n\npackage \&quot;Transport Layer\&quot; {\n    [MQTT Transport]\n    [HTTP Transport]\n    [CoAP Transport]\n    [LwM2M Transport]\n}\n\npackage \&quot;Core Services\&quot; {\n    [Rule Engine]\n    [Device Management Service]\n    [Asset Management Service]\n    [User Management Service]\n    [Authentication Service]\n}\n\npackage \&quot;Data Storage\&quot; {\n    database \&quot;PostgreSQL\&quot; {\n        [Device Data]\n        [User Configurations]\n        [Asset Metadata]\n    }\n    \n    database \&quot;Redis\&quot; {\n        [Caching Layer]\n    }\n}\n\npackage \&quot;Processing Layer\&quot; {\n    [Time Series Data Handler]\n    [Event Processing]\n    [Notification Service]\n}\n\npackage \&quot;Integration Layer\&quot; {\n    [Plugin Manager]\n    [External Service Connectors]\n}\n\n[Web UI] --&gt; [HTTP Transport]\n[Mobile Application] --&gt; [MQTT Transport]\n[External Systems] --&gt; [HTTP Transport]\n\n[MQTT Transport] --&gt; [Rule Engine]\n[HTTP Transport] --&gt; [Rule Engine]\n[CoAP Transport] --&gt; [Rule Engine]\n[LwM2M Transport] --&gt; [Rule Engine]\n\n[Rule Engine] --&gt; [Device Management Service]\n[Rule Engine] --&gt; [Asset Management Service]\n\n[Device Management Service] --&gt; [PostgreSQL]\n[User Management Service] --&gt; [PostgreSQL]\n[Asset Management Service] --&gt; [PostgreSQL]\n\n[Rule Engine] --&gt; [Time Series Data Handler]\n[Time Series Data Handler] --&gt; [PostgreSQL]\n\n[Rule Engine] --&gt; [Redis]\n[Authentication Service] --&gt; [Redis]\n\n[Plugin Manager] --&gt; [External Service Connectors]\n[Rule Engine] --&gt; [Notification Service]\n\nnote right of [Rule Engine] : Central orchestration\\nand processing component\n@enduml&quot;,&#xa;  &quot;format&quot;: &quot;svg&quot;&#xa;}" id="MHvC_7Tn7mc6slhfHnne-7">
          <mxCell style="shape=image;noLabel=1;verticalAlign=top;aspect=fixed;imageAspect=0;image=data:image/svg+xml,PD94bWwgdmVyc2lvbj0iMS4wIiBlbmNvZGluZz0idXMtYXNjaWkiIHN0YW5kYWxvbmU9Im5vIj8+PHN2ZyB4bWxucz0iaHR0cDovL3d3dy53My5vcmcvMjAwMC9zdmciIHhtbG5zOnhsaW5rPSJodHRwOi8vd3d3LnczLm9yZy8xOTk5L3hsaW5rIiBjb250ZW50U3R5bGVUeXBlPSJ0ZXh0L2NzcyIgaGVpZ2h0PSI3ODhweCIgcHJlc2VydmVBc3BlY3RSYXRpbz0ibm9uZSIgc3R5bGU9IndpZHRoOjE2ODFweDtoZWlnaHQ6Nzg4cHg7YmFja2dyb3VuZDojRkZGRkZGOyIgdmVyc2lvbj0iMS4xIiB2aWV3Qm94PSIwIDAgMTY4MSA3ODgiIHdpZHRoPSIxNjgxcHgiIHpvb21BbmRQYW49Im1hZ25pZnkiPjxkZWZzLz48Zz48IS0tY2x1c3RlciBDbGllbnQgTGF5ZXItLT48ZyBpZD0iY2x1c3Rlcl9DbGllbnQgTGF5ZXIiPjxwYXRoIGQ9Ik0xMy41LDExIEw5OC41LDExIEEzLjc1LDMuNzUgMCAwIDEgMTAxLDEzLjUgTDEwOCwzMS45ODQ0IEw1MTIuNSwzMS45ODQ0IEEyLjUsMi41IDAgMCAxIDUxNSwzNC40ODQ0IEw1MTUsMTAyLjUgQTIuNSwyLjUgMCAwIDEgNTEyLjUsMTA1IEwxMy41LDEwNSBBMi41LDIuNSAwIDAgMSAxMSwxMDIuNSBMMTEsMTMuNSBBMi41LDIuNSAwIDAgMSAxMy41LDExICIgZmlsbD0iI0ZGRkZGRiIgc3R5bGU9InN0cm9rZTojMDAwMDAwO3N0cm9rZS13aWR0aDoxLjA7Ii8+PGxpbmUgc3R5bGU9InN0cm9rZTojMDAwMDAwO3N0cm9rZS13aWR0aDoxLjA7IiB4MT0iMTEiIHgyPSIxMDgiIHkxPSIzMS45ODQ0IiB5Mj0iMzEuOTg0NCIvPjx0ZXh0IGZpbGw9IiMwMDAwMDAiIGZvbnQtZmFtaWx5PSJWZXJkYW5hIiBmb250LXNpemU9IjE0IiBmb250LXdlaWdodD0iYm9sZCIgbGVuZ3RoQWRqdXN0PSJzcGFjaW5nIiB0ZXh0TGVuZ3RoPSI4NCIgeD0iMTUiIHk9IjI2LjIzNDQiPkNsaWVudCBMYXllcjwvdGV4dD48L2c+PCEtLWNsdXN0ZXIgVHJhbnNwb3J0IExheWVyLS0+PGcgaWQ9ImNsdXN0ZXJfVHJhbnNwb3J0IExheWVyIj48cGF0aCBkPSJNNDkuNSwxMjkgTDE1NS41LDEyOSBBMy43NSwzLjc1IDAgMCAxIDE1OCwxMzEuNSBMMTY1LDE0OS45ODQ0IEw3NDEuNSwxNDkuOTg0NCBBMi41LDIuNSAwIDAgMSA3NDQsMTUyLjQ4NDQgTDc0NCwyMjAuNSBBMi41LDIuNSAwIDAgMSA3NDEuNSwyMjMgTDQ5LjUsMjIzIEEyLjUsMi41IDAgMCAxIDQ3LDIyMC41IEw0NywxMzEuNSBBMi41LDIuNSAwIDAgMSA0OS41LDEyOSAiIGZpbGw9IiNGRkZGRkYiIHN0eWxlPSJzdHJva2U6IzAwMDAwMDtzdHJva2Utd2lkdGg6MS4wOyIvPjxsaW5lIHN0eWxlPSJzdHJva2U6IzAwMDAwMDtzdHJva2Utd2lkdGg6MS4wOyIgeDE9IjQ3IiB4Mj0iMTY1IiB5MT0iMTQ5Ljk4NDQiIHkyPSIxNDkuOTg0NCIvPjx0ZXh0IGZpbGw9IiMwMDAwMDAiIGZvbnQtZmFtaWx5PSJWZXJkYW5hIiBmb250LXNpemU9IjE0IiBmb250LXdlaWdodD0iYm9sZCIgbGVuZ3RoQWRqdXN0PSJzcGFjaW5nIiB0ZXh0TGVuZ3RoPSIxMDUiIHg9IjUxIiB5PSIxNDQuMjM0NCI+VHJhbnNwb3J0IExheWVyPC90ZXh0PjwvZz48IS0tY2x1c3RlciBDb3JlIFNlcnZpY2VzLS0+PGcgaWQ9ImNsdXN0ZXJfQ29yZSBTZXJ2aWNlcyI+PHBhdGggZD0iTTMyMC41LDI0NyBMNDEyLjUsMjQ3IEEzLjc1LDMuNzUgMCAwIDEgNDE1LDI0OS41IEw0MjIsMjY3Ljk4NDQgTDkzMS41LDI2Ny45ODQ0IEEyLjUsMi41IDAgMCAxIDkzNCwyNzAuNDg0NCBMOTM0LDQ0My41IEEyLjUsMi41IDAgMCAxIDkzMS41LDQ0NiBMMzIwLjUsNDQ2IEEyLjUsMi41IDAgMCAxIDMxOCw0NDMuNSBMMzE4LDI0OS41IEEyLjUsMi41IDAgMCAxIDMyMC41LDI0NyAiIGZpbGw9IiNGRkZGRkYiIHN0eWxlPSJzdHJva2U6IzAwMDAwMDtzdHJva2Utd2lkdGg6MS4wOyIvPjxsaW5lIHN0eWxlPSJzdHJva2U6IzAwMDAwMDtzdHJva2Utd2lkdGg6MS4wOyIgeDE9IjMxOCIgeDI9IjQyMiIgeTE9IjI2Ny45ODQ0IiB5Mj0iMjY3Ljk4NDQiLz48dGV4dCBmaWxsPSIjMDAwMDAwIiBmb250LWZhbWlseT0iVmVyZGFuYSIgZm9udC1zaXplPSIxNCIgZm9udC13ZWlnaHQ9ImJvbGQiIGxlbmd0aEFkanVzdD0ic3BhY2luZyIgdGV4dExlbmd0aD0iOTEiIHg9IjMyMiIgeT0iMjYyLjIzNDQiPkNvcmUgU2VydmljZXM8L3RleHQ+PC9nPjwhLS1jbHVzdGVyIERhdGEgU3RvcmFnZS0tPjxnIGlkPSJjbHVzdGVyX0RhdGEgU3RvcmFnZSI+PHBhdGggZD0iTTgwNy41LDQ3MCBMODkyLjUsNDcwIEEzLjc1LDMuNzUgMCAwIDEgODk1LDQ3Mi41IEw5MDIsNDkwLjk4NDQgTDE0OTguNSw0OTAuOTg0NCBBMi41LDIuNSAwIDAgMSAxNTAxLDQ5My40ODQ0IEwxNTAxLDc3OC41IEEyLjUsMi41IDAgMCAxIDE0OTguNSw3ODEgTDgwNy41LDc4MSBBMi41LDIuNSAwIDAgMSA4MDUsNzc4LjUgTDgwNSw0NzIuNSBBMi41LDIuNSAwIDAgMSA4MDcuNSw0NzAgIiBmaWxsPSIjRkZGRkZGIiBzdHlsZT0ic3Ryb2tlOiMwMDAwMDA7c3Ryb2tlLXdpZHRoOjEuMDsiLz48bGluZSBzdHlsZT0ic3Ryb2tlOiMwMDAwMDA7c3Ryb2tlLXdpZHRoOjEuMDsiIHgxPSI4MDUiIHgyPSI5MDIiIHkxPSI0OTAuOTg0NCIgeTI9IjQ5MC45ODQ0Ii8+PHRleHQgZmlsbD0iIzAwMDAwMCIgZm9udC1mYW1pbHk9IlZlcmRhbmEiIGZvbnQtc2l6ZT0iMTQiIGZvbnQtd2VpZ2h0PSJib2xkIiBsZW5ndGhBZGp1c3Q9InNwYWNpbmciIHRleHRMZW5ndGg9Ijg0IiB4PSI4MDkiIHk9IjQ4NS4yMzQ0Ij5EYXRhIFN0b3JhZ2U8L3RleHQ+PC9nPjwhLS1jbHVzdGVyIFBvc3RncmVTUUwtLT48ZyBpZD0iY2x1c3Rlcl9Qb3N0Z3JlU1FMIj48cGF0aCBkPSJNODM3LDUyOSBDODM3LDUxOSAxMDMzLjUsNTE5IDEwMzMuNSw1MTkgQzEwMzMuNSw1MTkgMTIzMCw1MTkgMTIzMCw1MjkgTDEyMzAsNzM5IEMxMjMwLDc0OSAxMDMzLjUsNzQ5IDEwMzMuNSw3NDkgQzEwMzMuNSw3NDkgODM3LDc0OSA4MzcsNzM5IEw4MzcsNTI5ICIgZmlsbD0iI0ZGRkZGRiIgc3R5bGU9InN0cm9rZTojMDAwMDAwO3N0cm9rZS13aWR0aDoxLjA7Ii8+PHBhdGggZD0iTTgzNyw1MjkgQzgzNyw1MzkgMTAzMy41LDUzOSAxMDMzLjUsNTM5IEMxMDMzLjUsNTM5IDEyMzAsNTM5IDEyMzAsNTI5ICIgZmlsbD0ibm9uZSIgc3R5bGU9InN0cm9rZTojMDAwMDAwO3N0cm9rZS13aWR0aDoxLjA7Ii8+PHRleHQgZmlsbD0iIzAwMDAwMCIgZm9udC1mYW1pbHk9IlZlcmRhbmEiIGZvbnQtc2l6ZT0iMTQiIGZvbnQtd2VpZ2h0PSJib2xkIiBsZW5ndGhBZGp1c3Q9InNwYWNpbmciIHRleHRMZW5ndGg9IjcwIiB4PSI5OTguNSIgeT0iNTU0LjIzNDQiPlBvc3RncmVTUUw8L3RleHQ+PC9nPjwhLS1jbHVzdGVyIFJlZGlzLS0+PGcgaWQ9ImNsdXN0ZXJfUmVkaXMiPjxwYXRoIGQ9Ik0xMjcwLDUyOSBDMTI3MCw1MTkgMTM2OS41LDUxOSAxMzY5LjUsNTE5IEMxMzY5LjUsNTE5IDE0NjksNTE5IDE0NjksNTI5IEwxNDY5LDYzNCBDMTQ2OSw2NDQgMTM2OS41LDY0NCAxMzY5LjUsNjQ0IEMxMzY5LjUsNjQ0IDEyNzAsNjQ0IDEyNzAsNjM0IEwxMjcwLDUyOSAiIGZpbGw9IiNGRkZGRkYiIHN0eWxlPSJzdHJva2U6IzAwMDAwMDtzdHJva2Utd2lkdGg6MS4wOyIvPjxwYXRoIGQ9Ik0xMjcwLDUyOSBDMTI3MCw1MzkgMTM2OS41LDUzOSAxMzY5LjUsNTM5IEMxMzY5LjUsNTM5IDE0NjksNTM5IDE0NjksNTI5ICIgZmlsbD0ibm9uZSIgc3R5bGU9InN0cm9rZTojMDAwMDAwO3N0cm9rZS13aWR0aDoxLjA7Ii8+PHRleHQgZmlsbD0iIzAwMDAwMCIgZm9udC1mYW1pbHk9IlZlcmRhbmEiIGZvbnQtc2l6ZT0iMTQiIGZvbnQtd2VpZ2h0PSJib2xkIiBsZW5ndGhBZGp1c3Q9InNwYWNpbmciIHRleHRMZW5ndGg9IjM1IiB4PSIxMzUyIiB5PSI1NTQuMjM0NCI+UmVkaXM8L3RleHQ+PC9nPjwhLS1jbHVzdGVyIFByb2Nlc3NpbmcgTGF5ZXItLT48ZyBpZD0iY2x1c3Rlcl9Qcm9jZXNzaW5nIExheWVyIj48cGF0aCBkPSJNOTYwLjUsMzUyIEwxMDczLjUsMzUyIEEzLjc1LDMuNzUgMCAwIDEgMTA3NiwzNTQuNSBMMTA4MywzNzIuOTg0NCBMMTU5OS41LDM3Mi45ODQ0IEEyLjUsMi41IDAgMCAxIDE2MDIsMzc1LjQ4NDQgTDE2MDIsNDQzLjUgQTIuNSwyLjUgMCAwIDEgMTU5OS41LDQ0NiBMOTYwLjUsNDQ2IEEyLjUsMi41IDAgMCAxIDk1OCw0NDMuNSBMOTU4LDM1NC41IEEyLjUsMi41IDAgMCAxIDk2MC41LDM1MiAiIGZpbGw9IiNGRkZGRkYiIHN0eWxlPSJzdHJva2U6IzAwMDAwMDtzdHJva2Utd2lkdGg6MS4wOyIvPjxsaW5lIHN0eWxlPSJzdHJva2U6IzAwMDAwMDtzdHJva2Utd2lkdGg6MS4wOyIgeDE9Ijk1OCIgeDI9IjEwODMiIHkxPSIzNzIuOTg0NCIgeTI9IjM3Mi45ODQ0Ii8+PHRleHQgZmlsbD0iIzAwMDAwMCIgZm9udC1mYW1pbHk9IlZlcmRhbmEiIGZvbnQtc2l6ZT0iMTQiIGZvbnQtd2VpZ2h0PSJib2xkIiBsZW5ndGhBZGp1c3Q9InNwYWNpbmciIHRleHRMZW5ndGg9IjExMiIgeD0iOTYyIiB5PSIzNjcuMjM0NCI+UHJvY2Vzc2luZyBMYXllcjwvdGV4dD48L2c+PCEtLWNsdXN0ZXIgSW50ZWdyYXRpb24gTGF5ZXItLT48ZyBpZD0iY2x1c3Rlcl9JbnRlZ3JhdGlvbiBMYXllciI+PHBhdGggZD0iTTEwMTIuNSwxMSBMMTEzMi41LDExIEEzLjc1LDMuNzUgMCAwIDEgMTEzNSwxMy41IEwxMTQyLDMxLjk4NDQgTDEyNjkuNSwzMS45ODQ0IEEyLjUsMi41IDAgMCAxIDEyNzIsMzQuNDg0NCBMMTI3MiwyMjAuNSBBMi41LDIuNSAwIDAgMSAxMjY5LjUsMjIzIEwxMDEyLjUsMjIzIEEyLjUsMi41IDAgMCAxIDEwMTAsMjIwLjUgTDEwMTAsMTMuNSBBMi41LDIuNSAwIDAgMSAxMDEyLjUsMTEgIiBmaWxsPSIjRkZGRkZGIiBzdHlsZT0ic3Ryb2tlOiMwMDAwMDA7c3Ryb2tlLXdpZHRoOjEuMDsiLz48bGluZSBzdHlsZT0ic3Ryb2tlOiMwMDAwMDA7c3Ryb2tlLXdpZHRoOjEuMDsiIHgxPSIxMDEwIiB4Mj0iMTE0MiIgeTE9IjMxLjk4NDQiIHkyPSIzMS45ODQ0Ii8+PHRleHQgZmlsbD0iIzAwMDAwMCIgZm9udC1mYW1pbHk9IlZlcmRhbmEiIGZvbnQtc2l6ZT0iMTQiIGZvbnQtd2VpZ2h0PSJib2xkIiBsZW5ndGhBZGp1c3Q9InNwYWNpbmciIHRleHRMZW5ndGg9IjExOSIgeD0iMTAxNCIgeT0iMjYuMjM0NCI+SW50ZWdyYXRpb24gTGF5ZXI8L3RleHQ+PC9nPjwhLS1lbnRpdHkgV2ViIFVJLS0+PGcgaWQ9ImVsZW1fV2ViIFVJIj48cmVjdCBmaWxsPSIjRkZGRkZGIiBoZWlnaHQ9IjQ0Ljk4NDQiIHJ4PSIyLjUiIHJ5PSIyLjUiIHN0eWxlPSJzdHJva2U6IzAwMDAwMDtzdHJva2Utd2lkdGg6MS4wOyIgd2lkdGg9IjgyIiB4PSI0MTciIHk9IjQ0Ii8+PHJlY3QgZmlsbD0iI0ZGRkZGRiIgaGVpZ2h0PSIxMCIgc3R5bGU9InN0cm9rZTojMDAwMDAwO3N0cm9rZS13aWR0aDoxLjA7IiB3aWR0aD0iMTUiIHg9IjQ3OSIgeT0iNDkiLz48cmVjdCBmaWxsPSIjRkZGRkZGIiBoZWlnaHQ9IjIiIHN0eWxlPSJzdHJva2U6IzAwMDAwMDtzdHJva2Utd2lkdGg6MS4wOyIgd2lkdGg9IjQiIHg9IjQ3NyIgeT0iNTEiLz48cmVjdCBmaWxsPSIjRkZGRkZGIiBoZWlnaHQ9IjIiIHN0eWxlPSJzdHJva2U6IzAwMDAwMDtzdHJva2Utd2lkdGg6MS4wOyIgd2lkdGg9IjQiIHg9IjQ3NyIgeT0iNTUiLz48dGV4dCBmaWxsPSIjMDAwMDAwIiBmb250LWZhbWlseT0iVmVyZGFuYSIgZm9udC1zaXplPSIxNCIgbGVuZ3RoQWRqdXN0PSJzcGFjaW5nIiB0ZXh0TGVuZ3RoPSI0MiIgeD0iNDMyIiB5PSI3Ny4yMzQ0Ij5XZWIgVUk8L3RleHQ+PC9nPjwhLS1lbnRpdHkgTW9iaWxlIEFwcGxpY2F0aW9uLS0+PGcgaWQ9ImVsZW1fTW9iaWxlIEFwcGxpY2F0aW9uIj48cmVjdCBmaWxsPSIjRkZGRkZGIiBoZWlnaHQ9IjQ0Ljk4NDQiIHJ4PSIyLjUiIHJ5PSIyLjUiIHN0eWxlPSJzdHJva2U6IzAwMDAwMDtzdHJva2Utd2lkdGg6MS4wOyIgd2lkdGg9IjE2NiIgeD0iMjciIHk9IjQ0Ii8+PHJlY3QgZmlsbD0iI0ZGRkZGRiIgaGVpZ2h0PSIxMCIgc3R5bGU9InN0cm9rZTojMDAwMDAwO3N0cm9rZS13aWR0aDoxLjA7IiB3aWR0aD0iMTUiIHg9IjE3MyIgeT0iNDkiLz48cmVjdCBmaWxsPSIjRkZGRkZGIiBoZWlnaHQ9IjIiIHN0eWxlPSJzdHJva2U6IzAwMDAwMDtzdHJva2Utd2lkdGg6MS4wOyIgd2lkdGg9IjQiIHg9IjE3MSIgeT0iNTEiLz48cmVjdCBmaWxsPSIjRkZGRkZGIiBoZWlnaHQ9IjIiIHN0eWxlPSJzdHJva2U6IzAwMDAwMDtzdHJva2Utd2lkdGg6MS4wOyIgd2lkdGg9IjQiIHg9IjE3MSIgeT0iNTUiLz48dGV4dCBmaWxsPSIjMDAwMDAwIiBmb250LWZhbWlseT0iVmVyZGFuYSIgZm9udC1zaXplPSIxNCIgbGVuZ3RoQWRqdXN0PSJzcGFjaW5nIiB0ZXh0TGVuZ3RoPSIxMjYiIHg9IjQyIiB5PSI3Ny4yMzQ0Ij5Nb2JpbGUgQXBwbGljYXRpb248L3RleHQ+PC9nPjwhLS1lbnRpdHkgRXh0ZXJuYWwgU3lzdGVtcy0tPjxnIGlkPSJlbGVtX0V4dGVybmFsIFN5c3RlbXMiPjxyZWN0IGZpbGw9IiNGRkZGRkYiIGhlaWdodD0iNDQuOTg0NCIgcng9IjIuNSIgcnk9IjIuNSIgc3R5bGU9InN0cm9rZTojMDAwMDAwO3N0cm9rZS13aWR0aDoxLjA7IiB3aWR0aD0iMTUzIiB4PSIyMjguNSIgeT0iNDQiLz48cmVjdCBmaWxsPSIjRkZGRkZGIiBoZWlnaHQ9IjEwIiBzdHlsZT0ic3Ryb2tlOiMwMDAwMDA7c3Ryb2tlLXdpZHRoOjEuMDsiIHdpZHRoPSIxNSIgeD0iMzYxLjUiIHk9IjQ5Ii8+PHJlY3QgZmlsbD0iI0ZGRkZGRiIgaGVpZ2h0PSIyIiBzdHlsZT0ic3Ryb2tlOiMwMDAwMDA7c3Ryb2tlLXdpZHRoOjEuMDsiIHdpZHRoPSI0IiB4PSIzNTkuNSIgeT0iNTEiLz48cmVjdCBmaWxsPSIjRkZGRkZGIiBoZWlnaHQ9IjIiIHN0eWxlPSJzdHJva2U6IzAwMDAwMDtzdHJva2Utd2lkdGg6MS4wOyIgd2lkdGg9IjQiIHg9IjM1OS41IiB5PSI1NSIvPjx0ZXh0IGZpbGw9IiMwMDAwMDAiIGZvbnQtZmFtaWx5PSJWZXJkYW5hIiBmb250LXNpemU9IjE0IiBsZW5ndGhBZGp1c3Q9InNwYWNpbmciIHRleHRMZW5ndGg9IjExMyIgeD0iMjQzLjUiIHk9Ijc3LjIzNDQiPkV4dGVybmFsIFN5c3RlbXM8L3RleHQ+PC9nPjwhLS1lbnRpdHkgTVFUVCBUcmFuc3BvcnQtLT48ZyBpZD0iZWxlbV9NUVRUIFRyYW5zcG9ydCI+PHJlY3QgZmlsbD0iI0ZGRkZGRiIgaGVpZ2h0PSI0NC45ODQ0IiByeD0iMi41IiByeT0iMi41IiBzdHlsZT0ic3Ryb2tlOiMwMDAwMDA7c3Ryb2tlLXdpZHRoOjEuMDsiIHdpZHRoPSIxMzgiIHg9IjYzIiB5PSIxNjIiLz48cmVjdCBmaWxsPSIjRkZGRkZGIiBoZWlnaHQ9IjEwIiBzdHlsZT0ic3Ryb2tlOiMwMDAwMDA7c3Ryb2tlLXdpZHRoOjEuMDsiIHdpZHRoPSIxNSIgeD0iMTgxIiB5PSIxNjciLz48cmVjdCBmaWxsPSIjRkZGRkZGIiBoZWlnaHQ9IjIiIHN0eWxlPSJzdHJva2U6IzAwMDAwMDtzdHJva2Utd2lkdGg6MS4wOyIgd2lkdGg9IjQiIHg9IjE3OSIgeT0iMTY5Ii8+PHJlY3QgZmlsbD0iI0ZGRkZGRiIgaGVpZ2h0PSIyIiBzdHlsZT0ic3Ryb2tlOiMwMDAwMDA7c3Ryb2tlLXdpZHRoOjEuMDsiIHdpZHRoPSI0IiB4PSIxNzkiIHk9IjE3MyIvPjx0ZXh0IGZpbGw9IiMwMDAwMDAiIGZvbnQtZmFtaWx5PSJWZXJkYW5hIiBmb250LXNpemU9IjE0IiBsZW5ndGhBZGp1c3Q9InNwYWNpbmciIHRleHRMZW5ndGg9Ijk4IiB4PSI3OCIgeT0iMTk1LjIzNDQiPk1RVFQgVHJhbnNwb3J0PC90ZXh0PjwvZz48IS0tZW50aXR5IEhUVFAgVHJhbnNwb3J0LS0+PGcgaWQ9ImVsZW1fSFRUUCBUcmFuc3BvcnQiPjxyZWN0IGZpbGw9IiNGRkZGRkYiIGhlaWdodD0iNDQuOTg0NCIgcng9IjIuNSIgcnk9IjIuNSIgc3R5bGU9InN0cm9rZTojMDAwMDAwO3N0cm9rZS13aWR0aDoxLjA7IiB3aWR0aD0iMTM4IiB4PSIyMzYiIHk9IjE2MiIvPjxyZWN0IGZpbGw9IiNGRkZGRkYiIGhlaWdodD0iMTAiIHN0eWxlPSJzdHJva2U6IzAwMDAwMDtzdHJva2Utd2lkdGg6MS4wOyIgd2lkdGg9IjE1IiB4PSIzNTQiIHk9IjE2NyIvPjxyZWN0IGZpbGw9IiNGRkZGRkYiIGhlaWdodD0iMiIgc3R5bGU9InN0cm9rZTojMDAwMDAwO3N0cm9rZS13aWR0aDoxLjA7IiB3aWR0aD0iNCIgeD0iMzUyIiB5PSIxNjkiLz48cmVjdCBmaWxsPSIjRkZGRkZGIiBoZWlnaHQ9IjIiIHN0eWxlPSJzdHJva2U6IzAwMDAwMDtzdHJva2Utd2lkdGg6MS4wOyIgd2lkdGg9IjQiIHg9IjM1MiIgeT0iMTczIi8+PHRleHQgZmlsbD0iIzAwMDAwMCIgZm9udC1mYW1pbHk9IlZlcmRhbmEiIGZvbnQtc2l6ZT0iMTQiIGxlbmd0aEFkanVzdD0ic3BhY2luZyIgdGV4dExlbmd0aD0iOTgiIHg9IjI1MSIgeT0iMTk1LjIzNDQiPkhUVFAgVHJhbnNwb3J0PC90ZXh0PjwvZz48IS0tZW50aXR5IENvQVAgVHJhbnNwb3J0LS0+PGcgaWQ9ImVsZW1fQ29BUCBUcmFuc3BvcnQiPjxyZWN0IGZpbGw9IiNGRkZGRkYiIGhlaWdodD0iNDQuOTg0NCIgcng9IjIuNSIgcnk9IjIuNSIgc3R5bGU9InN0cm9rZTojMDAwMDAwO3N0cm9rZS13aWR0aDoxLjA7IiB3aWR0aD0iMTM4IiB4PSI1OTAiIHk9IjE2MiIvPjxyZWN0IGZpbGw9IiNGRkZGRkYiIGhlaWdodD0iMTAiIHN0eWxlPSJzdHJva2U6IzAwMDAwMDtzdHJva2Utd2lkdGg6MS4wOyIgd2lkdGg9IjE1IiB4PSI3MDgiIHk9IjE2NyIvPjxyZWN0IGZpbGw9IiNGRkZGRkYiIGhlaWdodD0iMiIgc3R5bGU9InN0cm9rZTojMDAwMDAwO3N0cm9rZS13aWR0aDoxLjA7IiB3aWR0aD0iNCIgeD0iNzA2IiB5PSIxNjkiLz48cmVjdCBmaWxsPSIjRkZGRkZGIiBoZWlnaHQ9IjIiIHN0eWxlPSJzdHJva2U6IzAwMDAwMDtzdHJva2Utd2lkdGg6MS4wOyIgd2lkdGg9IjQiIHg9IjcwNiIgeT0iMTczIi8+PHRleHQgZmlsbD0iIzAwMDAwMCIgZm9udC1mYW1pbHk9IlZlcmRhbmEiIGZvbnQtc2l6ZT0iMTQiIGxlbmd0aEFkanVzdD0ic3BhY2luZyIgdGV4dExlbmd0aD0iOTgiIHg9IjYwNSIgeT0iMTk1LjIzNDQiPkNvQVAgVHJhbnNwb3J0PC90ZXh0PjwvZz48IS0tZW50aXR5IEx3TTJNIFRyYW5zcG9ydC0tPjxnIGlkPSJlbGVtX0x3TTJNIFRyYW5zcG9ydCI+PHJlY3QgZmlsbD0iI0ZGRkZGRiIgaGVpZ2h0PSI0NC45ODQ0IiByeD0iMi41IiByeT0iMi41IiBzdHlsZT0ic3Ryb2tlOiMwMDAwMDA7c3Ryb2tlLXdpZHRoOjEuMDsiIHdpZHRoPSIxNDYiIHg9IjQwOSIgeT0iMTYyIi8+PHJlY3QgZmlsbD0iI0ZGRkZGRiIgaGVpZ2h0PSIxMCIgc3R5bGU9InN0cm9rZTojMDAwMDAwO3N0cm9rZS13aWR0aDoxLjA7IiB3aWR0aD0iMTUiIHg9IjUzNSIgeT0iMTY3Ii8+PHJlY3QgZmlsbD0iI0ZGRkZGRiIgaGVpZ2h0PSIyIiBzdHlsZT0ic3Ryb2tlOiMwMDAwMDA7c3Ryb2tlLXdpZHRoOjEuMDsiIHdpZHRoPSI0IiB4PSI1MzMiIHk9IjE2OSIvPjxyZWN0IGZpbGw9IiNGRkZGRkYiIGhlaWdodD0iMiIgc3R5bGU9InN0cm9rZTojMDAwMDAwO3N0cm9rZS13aWR0aDoxLjA7IiB3aWR0aD0iNCIgeD0iNTMzIiB5PSIxNzMiLz48dGV4dCBmaWxsPSIjMDAwMDAwIiBmb250LWZhbWlseT0iVmVyZGFuYSIgZm9udC1zaXplPSIxNCIgbGVuZ3RoQWRqdXN0PSJzcGFjaW5nIiB0ZXh0TGVuZ3RoPSIxMDYiIHg9IjQyNCIgeT0iMTk1LjIzNDQiPkx3TTJNIFRyYW5zcG9ydDwvdGV4dD48L2c+PCEtLWVudGl0eSBSdWxlIEVuZ2luZS0tPjxnIGlkPSJlbGVtX1J1bGUgRW5naW5lIj48cmVjdCBmaWxsPSIjRkZGRkZGIiBoZWlnaHQ9IjQ0Ljk4NDQiIHJ4PSIyLjUiIHJ5PSIyLjUiIHN0eWxlPSJzdHJva2U6IzAwMDAwMDtzdHJva2Utd2lkdGg6MS4wOyIgd2lkdGg9IjExNyIgeD0iMzM0LjUiIHk9IjI4MCIvPjxyZWN0IGZpbGw9IiNGRkZGRkYiIGhlaWdodD0iMTAiIHN0eWxlPSJzdHJva2U6IzAwMDAwMDtzdHJva2Utd2lkdGg6MS4wOyIgd2lkdGg9IjE1IiB4PSI0MzEuNSIgeT0iMjg1Ii8+PHJlY3QgZmlsbD0iI0ZGRkZGRiIgaGVpZ2h0PSIyIiBzdHlsZT0ic3Ryb2tlOiMwMDAwMDA7c3Ryb2tlLXdpZHRoOjEuMDsiIHdpZHRoPSI0IiB4PSI0MjkuNSIgeT0iMjg3Ii8+PHJlY3QgZmlsbD0iI0ZGRkZGRiIgaGVpZ2h0PSIyIiBzdHlsZT0ic3Ryb2tlOiMwMDAwMDA7c3Ryb2tlLXdpZHRoOjEuMDsiIHdpZHRoPSI0IiB4PSI0MjkuNSIgeT0iMjkxIi8+PHRleHQgZmlsbD0iIzAwMDAwMCIgZm9udC1mYW1pbHk9IlZlcmRhbmEiIGZvbnQtc2l6ZT0iMTQiIGxlbmd0aEFkanVzdD0ic3BhY2luZyIgdGV4dExlbmd0aD0iNzciIHg9IjM0OS41IiB5PSIzMTMuMjM0NCI+UnVsZSBFbmdpbmU8L3RleHQ+PC9nPjwhLS1lbnRpdHkgRGV2aWNlIE1hbmFnZW1lbnQgU2VydmljZS0tPjxnIGlkPSJlbGVtX0RldmljZSBNYW5hZ2VtZW50IFNlcnZpY2UiPjxyZWN0IGZpbGw9IiNGRkZGRkYiIGhlaWdodD0iNDQuOTg0NCIgcng9IjIuNSIgcnk9IjIuNSIgc3R5bGU9InN0cm9rZTojMDAwMDAwO3N0cm9rZS13aWR0aDoxLjA7IiB3aWR0aD0iMjE2IiB4PSIzNzAiIHk9IjM4NSIvPjxyZWN0IGZpbGw9IiNGRkZGRkYiIGhlaWdodD0iMTAiIHN0eWxlPSJzdHJva2U6IzAwMDAwMDtzdHJva2Utd2lkdGg6MS4wOyIgd2lkdGg9IjE1IiB4PSI1NjYiIHk9IjM5MCIvPjxyZWN0IGZpbGw9IiNGRkZGRkYiIGhlaWdodD0iMiIgc3R5bGU9InN0cm9rZTojMDAwMDAwO3N0cm9rZS13aWR0aDoxLjA7IiB3aWR0aD0iNCIgeD0iNTY0IiB5PSIzOTIiLz48cmVjdCBmaWxsPSIjRkZGRkZGIiBoZWlnaHQ9IjIiIHN0eWxlPSJzdHJva2U6IzAwMDAwMDtzdHJva2Utd2lkdGg6MS4wOyIgd2lkdGg9IjQiIHg9IjU2NCIgeT0iMzk2Ii8+PHRleHQgZmlsbD0iIzAwMDAwMCIgZm9udC1mYW1pbHk9IlZlcmRhbmEiIGZvbnQtc2l6ZT0iMTQiIGxlbmd0aEFkanVzdD0ic3BhY2luZyIgdGV4dExlbmd0aD0iMTc2IiB4PSIzODUiIHk9IjQxOC4yMzQ0Ij5EZXZpY2UgTWFuYWdlbWVudCBTZXJ2aWNlPC90ZXh0PjwvZz48IS0tZW50aXR5IEFzc2V0IE1hbmFnZW1lbnQgU2VydmljZS0tPjxnIGlkPSJlbGVtX0Fzc2V0IE1hbmFnZW1lbnQgU2VydmljZSI+PHJlY3QgZmlsbD0iI0ZGRkZGRiIgaGVpZ2h0PSI0NC45ODQ0IiByeD0iMi41IiByeT0iMi41IiBzdHlsZT0ic3Ryb2tlOiMwMDAwMDA7c3Ryb2tlLXdpZHRoOjEuMDsiIHdpZHRoPSIyMDkiIHg9IjYzOS41IiB5PSIzODUiLz48cmVjdCBmaWxsPSIjRkZGRkZGIiBoZWlnaHQ9IjEwIiBzdHlsZT0ic3Ryb2tlOiMwMDAwMDA7c3Ryb2tlLXdpZHRoOjEuMDsiIHdpZHRoPSIxNSIgeD0iODI4LjUiIHk9IjM5MCIvPjxyZWN0IGZpbGw9IiNGRkZGRkYiIGhlaWdodD0iMiIgc3R5bGU9InN0cm9rZTojMDAwMDAwO3N0cm9rZS13aWR0aDoxLjA7IiB3aWR0aD0iNCIgeD0iODI2LjUiIHk9IjM5MiIvPjxyZWN0IGZpbGw9IiNGRkZGRkYiIGhlaWdodD0iMiIgc3R5bGU9InN0cm9rZTojMDAwMDAwO3N0cm9rZS13aWR0aDoxLjA7IiB3aWR0aD0iNCIgeD0iODI2LjUiIHk9IjM5NiIvPjx0ZXh0IGZpbGw9IiMwMDAwMDAiIGZvbnQtZmFtaWx5PSJWZXJkYW5hIiBmb250LXNpemU9IjE0IiBsZW5ndGhBZGp1c3Q9InNwYWNpbmciIHRleHRMZW5ndGg9IjE2OSIgeD0iNjU0LjUiIHk9IjQxOC4yMzQ0Ij5Bc3NldCBNYW5hZ2VtZW50IFNlcnZpY2U8L3RleHQ+PC9nPjwhLS1lbnRpdHkgVXNlciBNYW5hZ2VtZW50IFNlcnZpY2UtLT48ZyBpZD0iZWxlbV9Vc2VyIE1hbmFnZW1lbnQgU2VydmljZSI+PHJlY3QgZmlsbD0iI0ZGRkZGRiIgaGVpZ2h0PSI0NC45ODQ0IiByeD0iMi41IiByeT0iMi41IiBzdHlsZT0ic3Ryb2tlOiMwMDAwMDA7c3Ryb2tlLXdpZHRoOjEuMDsiIHdpZHRoPSIyMDIiIHg9IjQ4NyIgeT0iMjgwIi8+PHJlY3QgZmlsbD0iI0ZGRkZGRiIgaGVpZ2h0PSIxMCIgc3R5bGU9InN0cm9rZTojMDAwMDAwO3N0cm9rZS13aWR0aDoxLjA7IiB3aWR0aD0iMTUiIHg9IjY2OSIgeT0iMjg1Ii8+PHJlY3QgZmlsbD0iI0ZGRkZGRiIgaGVpZ2h0PSIyIiBzdHlsZT0ic3Ryb2tlOiMwMDAwMDA7c3Ryb2tlLXdpZHRoOjEuMDsiIHdpZHRoPSI0IiB4PSI2NjciIHk9IjI4NyIvPjxyZWN0IGZpbGw9IiNGRkZGRkYiIGhlaWdodD0iMiIgc3R5bGU9InN0cm9rZTojMDAwMDAwO3N0cm9rZS13aWR0aDoxLjA7IiB3aWR0aD0iNCIgeD0iNjY3IiB5PSIyOTEiLz48dGV4dCBmaWxsPSIjMDAwMDAwIiBmb250LWZhbWlseT0iVmVyZGFuYSIgZm9udC1zaXplPSIxNCIgbGVuZ3RoQWRqdXN0PSJzcGFjaW5nIiB0ZXh0TGVuZ3RoPSIxNjIiIHg9IjUwMiIgeT0iMzEzLjIzNDQiPlVzZXIgTWFuYWdlbWVudCBTZXJ2aWNlPC90ZXh0PjwvZz48IS0tZW50aXR5IEF1dGhlbnRpY2F0aW9uIFNlcnZpY2UtLT48ZyBpZD0iZWxlbV9BdXRoZW50aWNhdGlvbiBTZXJ2aWNlIj48cmVjdCBmaWxsPSIjRkZGRkZGIiBoZWlnaHQ9IjQ0Ljk4NDQiIHJ4PSIyLjUiIHJ5PSIyLjUiIHN0eWxlPSJzdHJva2U6IzAwMDAwMDtzdHJva2Utd2lkdGg6MS4wOyIgd2lkdGg9IjE5NCIgeD0iNzI0IiB5PSIyODAiLz48cmVjdCBmaWxsPSIjRkZGRkZGIiBoZWlnaHQ9IjEwIiBzdHlsZT0ic3Ryb2tlOiMwMDAwMDA7c3Ryb2tlLXdpZHRoOjEuMDsiIHdpZHRoPSIxNSIgeD0iODk4IiB5PSIyODUiLz48cmVjdCBmaWxsPSIjRkZGRkZGIiBoZWlnaHQ9IjIiIHN0eWxlPSJzdHJva2U6IzAwMDAwMDtzdHJva2Utd2lkdGg6MS4wOyIgd2lkdGg9IjQiIHg9Ijg5NiIgeT0iMjg3Ii8+PHJlY3QgZmlsbD0iI0ZGRkZGRiIgaGVpZ2h0PSIyIiBzdHlsZT0ic3Ryb2tlOiMwMDAwMDA7c3Ryb2tlLXdpZHRoOjEuMDsiIHdpZHRoPSI0IiB4PSI4OTYiIHk9IjI5MSIvPjx0ZXh0IGZpbGw9IiMwMDAwMDAiIGZvbnQtZmFtaWx5PSJWZXJkYW5hIiBmb250LXNpemU9IjE0IiBsZW5ndGhBZGp1c3Q9InNwYWNpbmciIHRleHRMZW5ndGg9IjE1NCIgeD0iNzM5IiB5PSIzMTMuMjM0NCI+QXV0aGVudGljYXRpb24gU2VydmljZTwvdGV4dD48L2c+PCEtLWVudGl0eSBEZXZpY2UgRGF0YS0tPjxnIGlkPSJlbGVtX0RldmljZSBEYXRhIj48cmVjdCBmaWxsPSIjRkZGRkZGIiBoZWlnaHQ9IjQ0Ljk4NDQiIHJ4PSIyLjUiIHJ5PSIyLjUiIHN0eWxlPSJzdHJva2U6IzAwMDAwMDtzdHJva2Utd2lkdGg6MS4wOyIgd2lkdGg9IjExNyIgeD0iODgwLjUiIHk9IjU3NSIvPjxyZWN0IGZpbGw9IiNGRkZGRkYiIGhlaWdodD0iMTAiIHN0eWxlPSJzdHJva2U6IzAwMDAwMDtzdHJva2Utd2lkdGg6MS4wOyIgd2lkdGg9IjE1IiB4PSI5NzcuNSIgeT0iNTgwIi8+PHJlY3QgZmlsbD0iI0ZGRkZGRiIgaGVpZ2h0PSIyIiBzdHlsZT0ic3Ryb2tlOiMwMDAwMDA7c3Ryb2tlLXdpZHRoOjEuMDsiIHdpZHRoPSI0IiB4PSI5NzUuNSIgeT0iNTgyIi8+PHJlY3QgZmlsbD0iI0ZGRkZGRiIgaGVpZ2h0PSIyIiBzdHlsZT0ic3Ryb2tlOiMwMDAwMDA7c3Ryb2tlLXdpZHRoOjEuMDsiIHdpZHRoPSI0IiB4PSI5NzUuNSIgeT0iNTg2Ii8+PHRleHQgZmlsbD0iIzAwMDAwMCIgZm9udC1mYW1pbHk9IlZlcmRhbmEiIGZvbnQtc2l6ZT0iMTQiIGxlbmd0aEFkanVzdD0ic3BhY2luZyIgdGV4dExlbmd0aD0iNzciIHg9Ijg5NS41IiB5PSI2MDguMjM0NCI+RGV2aWNlIERhdGE8L3RleHQ+PC9nPjwhLS1lbnRpdHkgVXNlciBDb25maWd1cmF0aW9ucy0tPjxnIGlkPSJlbGVtX1VzZXIgQ29uZmlndXJhdGlvbnMiPjxyZWN0IGZpbGw9IiNGRkZGRkYiIGhlaWdodD0iNDQuOTg0NCIgcng9IjIuNSIgcnk9IjIuNSIgc3R5bGU9InN0cm9rZTojMDAwMDAwO3N0cm9rZS13aWR0aDoxLjA7IiB3aWR0aD0iMTczIiB4PSIxMDMyLjUiIHk9IjU3NSIvPjxyZWN0IGZpbGw9IiNGRkZGRkYiIGhlaWdodD0iMTAiIHN0eWxlPSJzdHJva2U6IzAwMDAwMDtzdHJva2Utd2lkdGg6MS4wOyIgd2lkdGg9IjE1IiB4PSIxMTg1LjUiIHk9IjU4MCIvPjxyZWN0IGZpbGw9IiNGRkZGRkYiIGhlaWdodD0iMiIgc3R5bGU9InN0cm9rZTojMDAwMDAwO3N0cm9rZS13aWR0aDoxLjA7IiB3aWR0aD0iNCIgeD0iMTE4My41IiB5PSI1ODIiLz48cmVjdCBmaWxsPSIjRkZGRkZGIiBoZWlnaHQ9IjIiIHN0eWxlPSJzdHJva2U6IzAwMDAwMDtzdHJva2Utd2lkdGg6MS4wOyIgd2lkdGg9IjQiIHg9IjExODMuNSIgeT0iNTg2Ii8+PHRleHQgZmlsbD0iIzAwMDAwMCIgZm9udC1mYW1pbHk9IlZlcmRhbmEiIGZvbnQtc2l6ZT0iMTQiIGxlbmd0aEFkanVzdD0ic3BhY2luZyIgdGV4dExlbmd0aD0iMTMzIiB4PSIxMDQ3LjUiIHk9IjYwOC4yMzQ0Ij5Vc2VyIENvbmZpZ3VyYXRpb25zPC90ZXh0PjwvZz48IS0tZW50aXR5IEFzc2V0IE1ldGFkYXRhLS0+PGcgaWQ9ImVsZW1fQXNzZXQgTWV0YWRhdGEiPjxyZWN0IGZpbGw9IiNGRkZGRkYiIGhlaWdodD0iNDQuOTg0NCIgcng9IjIuNSIgcnk9IjIuNSIgc3R5bGU9InN0cm9rZTojMDAwMDAwO3N0cm9rZS13aWR0aDoxLjA7IiB3aWR0aD0iMTM4IiB4PSI4ODAiIHk9IjY4MCIvPjxyZWN0IGZpbGw9IiNGRkZGRkYiIGhlaWdodD0iMTAiIHN0eWxlPSJzdHJva2U6IzAwMDAwMDtzdHJva2Utd2lkdGg6MS4wOyIgd2lkdGg9IjE1IiB4PSI5OTgiIHk9IjY4NSIvPjxyZWN0IGZpbGw9IiNGRkZGRkYiIGhlaWdodD0iMiIgc3R5bGU9InN0cm9rZTojMDAwMDAwO3N0cm9rZS13aWR0aDoxLjA7IiB3aWR0aD0iNCIgeD0iOTk2IiB5PSI2ODciLz48cmVjdCBmaWxsPSIjRkZGRkZGIiBoZWlnaHQ9IjIiIHN0eWxlPSJzdHJva2U6IzAwMDAwMDtzdHJva2Utd2lkdGg6MS4wOyIgd2lkdGg9IjQiIHg9Ijk5NiIgeT0iNjkxIi8+PHRleHQgZmlsbD0iIzAwMDAwMCIgZm9udC1mYW1pbHk9IlZlcmRhbmEiIGZvbnQtc2l6ZT0iMTQiIGxlbmd0aEFkanVzdD0ic3BhY2luZyIgdGV4dExlbmd0aD0iOTgiIHg9Ijg5NSIgeT0iNzEzLjIzNDQiPkFzc2V0IE1ldGFkYXRhPC90ZXh0PjwvZz48IS0tZW50aXR5IENhY2hpbmcgTGF5ZXItLT48ZyBpZD0iZWxlbV9DYWNoaW5nIExheWVyIj48cmVjdCBmaWxsPSIjRkZGRkZGIiBoZWlnaHQ9IjQ0Ljk4NDQiIHJ4PSIyLjUiIHJ5PSIyLjUiIHN0eWxlPSJzdHJva2U6IzAwMDAwMDtzdHJva2Utd2lkdGg6MS4wOyIgd2lkdGg9IjEzMSIgeD0iMTMxMy41IiB5PSI1NzUiLz48cmVjdCBmaWxsPSIjRkZGRkZGIiBoZWlnaHQ9IjEwIiBzdHlsZT0ic3Ryb2tlOiMwMDAwMDA7c3Ryb2tlLXdpZHRoOjEuMDsiIHdpZHRoPSIxNSIgeD0iMTQyNC41IiB5PSI1ODAiLz48cmVjdCBmaWxsPSIjRkZGRkZGIiBoZWlnaHQ9IjIiIHN0eWxlPSJzdHJva2U6IzAwMDAwMDtzdHJva2Utd2lkdGg6MS4wOyIgd2lkdGg9IjQiIHg9IjE0MjIuNSIgeT0iNTgyIi8+PHJlY3QgZmlsbD0iI0ZGRkZGRiIgaGVpZ2h0PSIyIiBzdHlsZT0ic3Ryb2tlOiMwMDAwMDA7c3Ryb2tlLXdpZHRoOjEuMDsiIHdpZHRoPSI0IiB4PSIxNDIyLjUiIHk9IjU4NiIvPjx0ZXh0IGZpbGw9IiMwMDAwMDAiIGZvbnQtZmFtaWx5PSJWZXJkYW5hIiBmb250LXNpemU9IjE0IiBsZW5ndGhBZGp1c3Q9InNwYWNpbmciIHRleHRMZW5ndGg9IjkxIiB4PSIxMzI4LjUiIHk9IjYwOC4yMzQ0Ij5DYWNoaW5nIExheWVyPC90ZXh0PjwvZz48IS0tZW50aXR5IFRpbWUgU2VyaWVzIERhdGEgSGFuZGxlci0tPjxnIGlkPSJlbGVtX1RpbWUgU2VyaWVzIERhdGEgSGFuZGxlciI+PHJlY3QgZmlsbD0iI0ZGRkZGRiIgaGVpZ2h0PSI0NC45ODQ0IiByeD0iMi41IiByeT0iMi41IiBzdHlsZT0ic3Ryb2tlOiMwMDAwMDA7c3Ryb2tlLXdpZHRoOjEuMDsiIHdpZHRoPSIyMDkiIHg9IjEzNzYuNSIgeT0iMzg1Ii8+PHJlY3QgZmlsbD0iI0ZGRkZGRiIgaGVpZ2h0PSIxMCIgc3R5bGU9InN0cm9rZTojMDAwMDAwO3N0cm9rZS13aWR0aDoxLjA7IiB3aWR0aD0iMTUiIHg9IjE1NjUuNSIgeT0iMzkwIi8+PHJlY3QgZmlsbD0iI0ZGRkZGRiIgaGVpZ2h0PSIyIiBzdHlsZT0ic3Ryb2tlOiMwMDAwMDA7c3Ryb2tlLXdpZHRoOjEuMDsiIHdpZHRoPSI0IiB4PSIxNTYzLjUiIHk9IjM5MiIvPjxyZWN0IGZpbGw9IiNGRkZGRkYiIGhlaWdodD0iMiIgc3R5bGU9InN0cm9rZTojMDAwMDAwO3N0cm9rZS13aWR0aDoxLjA7IiB3aWR0aD0iNCIgeD0iMTU2My41IiB5PSIzOTYiLz48dGV4dCBmaWxsPSIjMDAwMDAwIiBmb250LWZhbWlseT0iVmVyZGFuYSIgZm9udC1zaXplPSIxNCIgbGVuZ3RoQWRqdXN0PSJzcGFjaW5nIiB0ZXh0TGVuZ3RoPSIxNjkiIHg9IjEzOTEuNSIgeT0iNDE4LjIzNDQiPlRpbWUgU2VyaWVzIERhdGEgSGFuZGxlcjwvdGV4dD48L2c+PCEtLWVudGl0eSBFdmVudCBQcm9jZXNzaW5nLS0+PGcgaWQ9ImVsZW1fRXZlbnQgUHJvY2Vzc2luZyI+PHJlY3QgZmlsbD0iI0ZGRkZGRiIgaGVpZ2h0PSI0NC45ODQ0IiByeD0iMi41IiByeT0iMi41IiBzdHlsZT0ic3Ryb2tlOiMwMDAwMDA7c3Ryb2tlLXdpZHRoOjEuMDsiIHdpZHRoPSIxNTIiIHg9IjExODkiIHk9IjM4NSIvPjxyZWN0IGZpbGw9IiNGRkZGRkYiIGhlaWdodD0iMTAiIHN0eWxlPSJzdHJva2U6IzAwMDAwMDtzdHJva2Utd2lkdGg6MS4wOyIgd2lkdGg9IjE1IiB4PSIxMzIxIiB5PSIzOTAiLz48cmVjdCBmaWxsPSIjRkZGRkZGIiBoZWlnaHQ9IjIiIHN0eWxlPSJzdHJva2U6IzAwMDAwMDtzdHJva2Utd2lkdGg6MS4wOyIgd2lkdGg9IjQiIHg9IjEzMTkiIHk9IjM5MiIvPjxyZWN0IGZpbGw9IiNGRkZGRkYiIGhlaWdodD0iMiIgc3R5bGU9InN0cm9rZTojMDAwMDAwO3N0cm9rZS13aWR0aDoxLjA7IiB3aWR0aD0iNCIgeD0iMTMxOSIgeT0iMzk2Ii8+PHRleHQgZmlsbD0iIzAwMDAwMCIgZm9udC1mYW1pbHk9IlZlcmRhbmEiIGZvbnQtc2l6ZT0iMTQiIGxlbmd0aEFkanVzdD0ic3BhY2luZyIgdGV4dExlbmd0aD0iMTEyIiB4PSIxMjA0IiB5PSI0MTguMjM0NCI+RXZlbnQgUHJvY2Vzc2luZzwvdGV4dD48L2c+PCEtLWVudGl0eSBOb3RpZmljYXRpb24gU2VydmljZS0tPjxnIGlkPSJlbGVtX05vdGlmaWNhdGlvbiBTZXJ2aWNlIj48cmVjdCBmaWxsPSIjRkZGRkZGIiBoZWlnaHQ9IjQ0Ljk4NDQiIHJ4PSIyLjUiIHJ5PSIyLjUiIHN0eWxlPSJzdHJva2U6IzAwMDAwMDtzdHJva2Utd2lkdGg6MS4wOyIgd2lkdGg9IjE4MCIgeD0iOTc0IiB5PSIzODUiLz48cmVjdCBmaWxsPSIjRkZGRkZGIiBoZWlnaHQ9IjEwIiBzdHlsZT0ic3Ryb2tlOiMwMDAwMDA7c3Ryb2tlLXdpZHRoOjEuMDsiIHdpZHRoPSIxNSIgeD0iMTEzNCIgeT0iMzkwIi8+PHJlY3QgZmlsbD0iI0ZGRkZGRiIgaGVpZ2h0PSIyIiBzdHlsZT0ic3Ryb2tlOiMwMDAwMDA7c3Ryb2tlLXdpZHRoOjEuMDsiIHdpZHRoPSI0IiB4PSIxMTMyIiB5PSIzOTIiLz48cmVjdCBmaWxsPSIjRkZGRkZGIiBoZWlnaHQ9IjIiIHN0eWxlPSJzdHJva2U6IzAwMDAwMDtzdHJva2Utd2lkdGg6MS4wOyIgd2lkdGg9IjQiIHg9IjExMzIiIHk9IjM5NiIvPjx0ZXh0IGZpbGw9IiMwMDAwMDAiIGZvbnQtZmFtaWx5PSJWZXJkYW5hIiBmb250LXNpemU9IjE0IiBsZW5ndGhBZGp1c3Q9InNwYWNpbmciIHRleHRMZW5ndGg9IjE0MCIgeD0iOTg5IiB5PSI0MTguMjM0NCI+Tm90aWZpY2F0aW9uIFNlcnZpY2U8L3RleHQ+PC9nPjwhLS1lbnRpdHkgUGx1Z2luIE1hbmFnZXItLT48ZyBpZD0iZWxlbV9QbHVnaW4gTWFuYWdlciI+PHJlY3QgZmlsbD0iI0ZGRkZGRiIgaGVpZ2h0PSI0NC45ODQ0IiByeD0iMi41IiByeT0iMi41IiBzdHlsZT0ic3Ryb2tlOiMwMDAwMDA7c3Ryb2tlLXdpZHRoOjEuMDsiIHdpZHRoPSIxMzgiIHg9IjEwNzIiIHk9IjQ0Ii8+PHJlY3QgZmlsbD0iI0ZGRkZGRiIgaGVpZ2h0PSIxMCIgc3R5bGU9InN0cm9rZTojMDAwMDAwO3N0cm9rZS13aWR0aDoxLjA7IiB3aWR0aD0iMTUiIHg9IjExOTAiIHk9IjQ5Ii8+PHJlY3QgZmlsbD0iI0ZGRkZGRiIgaGVpZ2h0PSIyIiBzdHlsZT0ic3Ryb2tlOiMwMDAwMDA7c3Ryb2tlLXdpZHRoOjEuMDsiIHdpZHRoPSI0IiB4PSIxMTg4IiB5PSI1MSIvPjxyZWN0IGZpbGw9IiNGRkZGRkYiIGhlaWdodD0iMiIgc3R5bGU9InN0cm9rZTojMDAwMDAwO3N0cm9rZS13aWR0aDoxLjA7IiB3aWR0aD0iNCIgeD0iMTE4OCIgeT0iNTUiLz48dGV4dCBmaWxsPSIjMDAwMDAwIiBmb250LWZhbWlseT0iVmVyZGFuYSIgZm9udC1zaXplPSIxNCIgbGVuZ3RoQWRqdXN0PSJzcGFjaW5nIiB0ZXh0TGVuZ3RoPSI5OCIgeD0iMTA4NyIgeT0iNzcuMjM0NCI+UGx1Z2luIE1hbmFnZXI8L3RleHQ+PC9nPjwhLS1lbnRpdHkgRXh0ZXJuYWwgU2VydmljZSBDb25uZWN0b3JzLS0+PGcgaWQ9ImVsZW1fRXh0ZXJuYWwgU2VydmljZSBDb25uZWN0b3JzIj48cmVjdCBmaWxsPSIjRkZGRkZGIiBoZWlnaHQ9IjQ0Ljk4NDQiIHJ4PSIyLjUiIHJ5PSIyLjUiIHN0eWxlPSJzdHJva2U6IzAwMDAwMDtzdHJva2Utd2lkdGg6MS4wOyIgd2lkdGg9IjIyOSIgeD0iMTAyNi41IiB5PSIxNjIiLz48cmVjdCBmaWxsPSIjRkZGRkZGIiBoZWlnaHQ9IjEwIiBzdHlsZT0ic3Ryb2tlOiMwMDAwMDA7c3Ryb2tlLXdpZHRoOjEuMDsiIHdpZHRoPSIxNSIgeD0iMTIzNS41IiB5PSIxNjciLz48cmVjdCBmaWxsPSIjRkZGRkZGIiBoZWlnaHQ9IjIiIHN0eWxlPSJzdHJva2U6IzAwMDAwMDtzdHJva2Utd2lkdGg6MS4wOyIgd2lkdGg9IjQiIHg9IjEyMzMuNSIgeT0iMTY5Ii8+PHJlY3QgZmlsbD0iI0ZGRkZGRiIgaGVpZ2h0PSIyIiBzdHlsZT0ic3Ryb2tlOiMwMDAwMDA7c3Ryb2tlLXdpZHRoOjEuMDsiIHdpZHRoPSI0IiB4PSIxMjMzLjUiIHk9IjE3MyIvPjx0ZXh0IGZpbGw9IiMwMDAwMDAiIGZvbnQtZmFtaWx5PSJWZXJkYW5hIiBmb250LXNpemU9IjE0IiBsZW5ndGhBZGp1c3Q9InNwYWNpbmciIHRleHRMZW5ndGg9IjE4OSIgeD0iMTA0MS41IiB5PSIxOTUuMjM0NCI+RXh0ZXJuYWwgU2VydmljZSBDb25uZWN0b3JzPC90ZXh0PjwvZz48ZyBpZD0iZWxlbV9HTU40OSI+PHBhdGggZD0iTTk1MywyODMuNSBMOTUzLDMyMS4zMjgxIEwxMTM5LDMyMS4zMjgxIEwxMTM5LDI5My41IEwxMTI5LDI4My41IEw5NTMsMjgzLjUgIiBmaWxsPSIjRkZGRkZGIiBzdHlsZT0ic3Ryb2tlOiMwMDAwMDA7c3Ryb2tlLXdpZHRoOjEuMDsiLz48cGF0aCBkPSJNMTEyOSwyODMuNSBMMTEyOSwyOTMuNSBMMTEzOSwyOTMuNSBMMTEyOSwyODMuNSAiIGZpbGw9IiNGRkZGRkYiIHN0eWxlPSJzdHJva2U6IzAwMDAwMDtzdHJva2Utd2lkdGg6MS4wOyIvPjx0ZXh0IGZpbGw9IiMwMDAwMDAiIGZvbnQtZmFtaWx5PSJWZXJkYW5hIiBmb250LXNpemU9IjEzIiBsZW5ndGhBZGp1c3Q9InNwYWNpbmciIHRleHRMZW5ndGg9IjE0MiIgeD0iOTU5IiB5PSIzMDAuNzg5MSI+Q2VudHJhbCBvcmNoZXN0cmF0aW9uPC90ZXh0Pjx0ZXh0IGZpbGw9IiMwMDAwMDAiIGZvbnQtZmFtaWx5PSJWZXJkYW5hIiBmb250LXNpemU9IjEzIiBsZW5ndGhBZGp1c3Q9InNwYWNpbmciIHRleHRMZW5ndGg9IjE2NSIgeD0iOTU5IiB5PSIzMTQuNzAzMSI+YW5kIHByb2Nlc3NpbmcgY29tcG9uZW50PC90ZXh0PjwvZz48IS0tbGluayBXZWIgVUkgdG8gSFRUUCBUcmFuc3BvcnQtLT48ZyBpZD0ibGlua19XZWIgVUlfSFRUUCBUcmFuc3BvcnQiPjxwYXRoIGQ9Ik00MzAuMTUsODkuMSBDNDIwLjMzLDk2LjY5IDQwOS4xOSwxMDUuMjUgMzk5LDExMyBDMzc3LjQsMTI5LjQyIDM1Ny42ODc3LDE0NC4yMjA0IDMzOS4wOTc3LDE1OC4xMDA0ICIgZmlsbD0ibm9uZSIgaWQ9IldlYiBVSS10by1IVFRQIFRyYW5zcG9ydCIgc3R5bGU9InN0cm9rZTojMDAwMDAwO3N0cm9rZS13aWR0aDoxLjA7Ii8+PHBvbHlnb24gZmlsbD0iIzAwMDAwMCIgcG9pbnRzPSIzMzQuMjksMTYxLjY5LDM0My44OTQ3LDE1OS41MTA3LDMzOC4yOTY1LDE1OC42OTg2LDMzOS4xMDg1LDE1My4xMDA0LDMzNC4yOSwxNjEuNjkiIHN0eWxlPSJzdHJva2U6IzAwMDAwMDtzdHJva2Utd2lkdGg6MS4wOyIvPjwvZz48IS0tbGluayBNb2JpbGUgQXBwbGljYXRpb24gdG8gTVFUVCBUcmFuc3BvcnQtLT48ZyBpZD0ibGlua19Nb2JpbGUgQXBwbGljYXRpb25fTVFUVCBUcmFuc3BvcnQiPjxwYXRoIGQ9Ik0xMTQuMDksODkuMDUgQzExOC4wMSwxMDkuNzUgMTIyLjgwMjgsMTM0Ljk4NDkgMTI2Ljc0MjgsMTU1Ljc3NDkgIiBmaWxsPSJub25lIiBpZD0iTW9iaWxlIEFwcGxpY2F0aW9uLXRvLU1RVFQgVHJhbnNwb3J0IiBzdHlsZT0ic3Ryb2tlOiMwMDAwMDA7c3Ryb2tlLXdpZHRoOjEuMDsiLz48cG9seWdvbiBmaWxsPSIjMDAwMDAwIiBwb2ludHM9IjEyNy44NiwxNjEuNjcsMTMwLjExNDIsMTUyLjA4MjYsMTI2LjkyOSwxNTYuNzU3NCwxMjIuMjU0MiwxNTMuNTcyMiwxMjcuODYsMTYxLjY3IiBzdHlsZT0ic3Ryb2tlOiMwMDAwMDA7c3Ryb2tlLXdpZHRoOjEuMDsiLz48L2c+PCEtLWxpbmsgRXh0ZXJuYWwgU3lzdGVtcyB0byBIVFRQIFRyYW5zcG9ydC0tPjxnIGlkPSJsaW5rX0V4dGVybmFsIFN5c3RlbXNfSFRUUCBUcmFuc3BvcnQiPjxwYXRoIGQ9Ik0zMDUsODkuMDUgQzMwNSwxMDkuNzUgMzA1LDEzNC44OCAzMDUsMTU1LjY3ICIgZmlsbD0ibm9uZSIgaWQ9IkV4dGVybmFsIFN5c3RlbXMtdG8tSFRUUCBUcmFuc3BvcnQiIHN0eWxlPSJzdHJva2U6IzAwMDAwMDtzdHJva2Utd2lkdGg6MS4wOyIvPjxwb2x5Z29uIGZpbGw9IiMwMDAwMDAiIHBvaW50cz0iMzA1LDE2MS42NywzMDksMTUyLjY3LDMwNSwxNTYuNjcsMzAxLDE1Mi42NywzMDUsMTYxLjY3IiBzdHlsZT0ic3Ryb2tlOiMwMDAwMDA7c3Ryb2tlLXdpZHRoOjEuMDsiLz48L2c+PCEtLWxpbmsgTVFUVCBUcmFuc3BvcnQgdG8gUnVsZSBFbmdpbmUtLT48ZyBpZD0ibGlua19NUVRUIFRyYW5zcG9ydF9SdWxlIEVuZ2luZSI+PHBhdGggZD0iTTE3MC45NiwyMDcuMjEgQzE4NS41NSwyMTUuMDUgMjAyLjM3LDIyMy43NCAyMTgsMjMxIEMyNTYuNDcsMjQ4Ljg3IDI5NS4yMDExLDI2NC41NDMxIDMyOS42MjExLDI3Ny44MDMxICIgZmlsbD0ibm9uZSIgaWQ9Ik1RVFQgVHJhbnNwb3J0LXRvLVJ1bGUgRW5naW5lIiBzdHlsZT0ic3Ryb2tlOiMwMDAwMDA7c3Ryb2tlLXdpZHRoOjEuMDsiLz48cG9seWdvbiBmaWxsPSIjMDAwMDAwIiBwb2ludHM9IjMzNS4yMiwyNzkuOTYsMzI4LjI1OTYsMjcyLjk5MiwzMzAuNTU0MywyNzguMTYyNiwzMjUuMzgzNywyODAuNDU3MiwzMzUuMjIsMjc5Ljk2IiBzdHlsZT0ic3Ryb2tlOiMwMDAwMDA7c3Ryb2tlLXdpZHRoOjEuMDsiLz48L2c+PCEtLWxpbmsgSFRUUCBUcmFuc3BvcnQgdG8gUnVsZSBFbmdpbmUtLT48ZyBpZD0ibGlua19IVFRQIFRyYW5zcG9ydF9SdWxlIEVuZ2luZSI+PHBhdGggZD0iTTMyMS4zNSwyMDcuMDUgQzMzNy4wNSwyMjcuNzUgMzU3LjA0MzksMjU0LjA5OTcgMzcyLjgxMzksMjc0Ljg4OTcgIiBmaWxsPSJub25lIiBpZD0iSFRUUCBUcmFuc3BvcnQtdG8tUnVsZSBFbmdpbmUiIHN0eWxlPSJzdHJva2U6IzAwMDAwMDtzdHJva2Utd2lkdGg6MS4wOyIvPjxwb2x5Z29uIGZpbGw9IiMwMDAwMDAiIHBvaW50cz0iMzc2LjQ0LDI3OS42NywzNzQuMTg3OCwyNzAuMDgyMSwzNzMuNDE4MywyNzUuNjg2NCwzNjcuODE0LDI3NC45MTY5LDM3Ni40NCwyNzkuNjciIHN0eWxlPSJzdHJva2U6IzAwMDAwMDtzdHJva2Utd2lkdGg6MS4wOyIvPjwvZz48IS0tbGluayBDb0FQIFRyYW5zcG9ydCB0byBSdWxlIEVuZ2luZS0tPjxnIGlkPSJsaW5rX0NvQVAgVHJhbnNwb3J0X1J1bGUgRW5naW5lIj48cGF0aCBkPSJNNjI1LjYzLDIwNy4wMiBDNjA5Ljk3LDIxNi4wMyA1OTAuNjgsMjI1LjY0IDU3MiwyMzEgQzUyNy44NywyNDMuNjggNTExLjU5LDIyMS44NSA0NjksMjM5IEM0NDYuOTcsMjQ3Ljg3IDQzMC42ODAyLDI2MS4yNjUgNDE2LjUzMDIsMjc1LjU2NSAiIGZpbGw9Im5vbmUiIGlkPSJDb0FQIFRyYW5zcG9ydC10by1SdWxlIEVuZ2luZSIgc3R5bGU9InN0cm9rZTojMDAwMDAwO3N0cm9rZS13aWR0aDoxLjA7Ii8+PHBvbHlnb24gZmlsbD0iIzAwMDAwMCIgcG9pbnRzPSI0MTIuMzEsMjc5LjgzLDQyMS40ODM2LDI3Ni4yNDYsNDE1LjgyNjgsMjc2LjI3NTksNDE1Ljc5NywyNzAuNjE5MSw0MTIuMzEsMjc5LjgzIiBzdHlsZT0ic3Ryb2tlOiMwMDAwMDA7c3Ryb2tlLXdpZHRoOjEuMDsiLz48L2c+PCEtLWxpbmsgTHdNMk0gVHJhbnNwb3J0IHRvIFJ1bGUgRW5naW5lLS0+PGcgaWQ9ImxpbmtfTHdNMk0gVHJhbnNwb3J0X1J1bGUgRW5naW5lIj48cGF0aCBkPSJNNDY1LjQ3LDIwNy4wNSBDNDQ5LjU4LDIyNy43NSA0MjkuMzUyMiwyNTQuMTE5NiA0MTMuNDAyMiwyNzQuOTA5NiAiIGZpbGw9Im5vbmUiIGlkPSJMd00yTSBUcmFuc3BvcnQtdG8tUnVsZSBFbmdpbmUiIHN0eWxlPSJzdHJva2U6IzAwMDAwMDtzdHJva2Utd2lkdGg6MS4wOyIvPjxwb2x5Z29uIGZpbGw9IiMwMDAwMDAiIHBvaW50cz0iNDA5Ljc1LDI3OS42Nyw0MTguNDAxOSwyNzQuOTY0Miw0MTIuNzkzNSwyNzUuNzAzLDQxMi4wNTQ2LDI3MC4wOTQ2LDQwOS43NSwyNzkuNjciIHN0eWxlPSJzdHJva2U6IzAwMDAwMDtzdHJva2Utd2lkdGg6MS4wOyIvPjwvZz48IS0tbGluayBSdWxlIEVuZ2luZSB0byBEZXZpY2UgTWFuYWdlbWVudCBTZXJ2aWNlLS0+PGcgaWQ9ImxpbmtfUnVsZSBFbmdpbmVfRGV2aWNlIE1hbmFnZW1lbnQgU2VydmljZSI+PHBhdGggZD0iTTQxMS4wMywzMjUuMzQgQzQyNS40NSwzNDIuODIgNDQxLjc2MDYsMzYyLjU5MjcgNDU2LjE4MDYsMzgwLjA2MjcgIiBmaWxsPSJub25lIiBpZD0iUnVsZSBFbmdpbmUtdG8tRGV2aWNlIE1hbmFnZW1lbnQgU2VydmljZSIgc3R5bGU9InN0cm9rZTojMDAwMDAwO3N0cm9rZS13aWR0aDoxLjA7Ii8+PHBvbHlnb24gZmlsbD0iIzAwMDAwMCIgcG9pbnRzPSI0NjAsMzg0LjY5LDQ1Ny4zNTU3LDM3NS4yMDI4LDQ1Ni44MTcxLDM4MC44MzM5LDQ1MS4xODYsMzgwLjI5NTMsNDYwLDM4NC42OSIgc3R5bGU9InN0cm9rZTojMDAwMDAwO3N0cm9rZS13aWR0aDoxLjA7Ii8+PC9nPjwhLS1saW5rIFJ1bGUgRW5naW5lIHRvIEFzc2V0IE1hbmFnZW1lbnQgU2VydmljZS0tPjxnIGlkPSJsaW5rX1J1bGUgRW5naW5lX0Fzc2V0IE1hbmFnZW1lbnQgU2VydmljZSI+PHBhdGggZD0iTTQ1MS43MiwzMjAuOTYgQzQ1Ny41MywzMjIuNDMgNDYzLjM3LDMyMy44MSA0NjksMzI1IEM1MjcuODUsMzM3LjQ0IDU0NS4xOCwzMjcuNDMgNjAzLDM0NCBDNjM4LjE0LDM1NC4wNyA2NzAuNTIxNSwzNjguNDkwNiA2OTguMTExNSwzODIuMjYwNiAiIGZpbGw9Im5vbmUiIGlkPSJSdWxlIEVuZ2luZS10by1Bc3NldCBNYW5hZ2VtZW50IFNlcnZpY2UiIHN0eWxlPSJzdHJva2U6IzAwMDAwMDtzdHJva2Utd2lkdGg6MS4wOyIvPjxwb2x5Z29uIGZpbGw9IiMwMDAwMDAiIHBvaW50cz0iNzAzLjQ4LDM4NC45NCw2OTcuMjEzNSwzNzcuMzQxOSw2OTkuMDA2MiwzODIuNzA3Miw2OTMuNjQxLDM4NC40OTk5LDcwMy40OCwzODQuOTQiIHN0eWxlPSJzdHJva2U6IzAwMDAwMDtzdHJva2Utd2lkdGg6MS4wOyIvPjwvZz48IS0tbGluayBEZXZpY2UgTWFuYWdlbWVudCBTZXJ2aWNlIHRvIFBvc3RncmVTUUwtLT48ZyBpZD0ibGlua19EZXZpY2UgTWFuYWdlbWVudCBTZXJ2aWNlX1Bvc3RncmVTUUwiPjxwYXRoIGQ9Ik01MjAuMSw0MzAuMDcgQzU2Ny41NDUsNDU0LjM3NSA2NDYuOTkyNSw0OTUuMDcyNSA3MTUuNDQ2Myw1MzAuMTM3NSBDNzQ5LjY3MzEsNTQ3LjY3IDc4MS4xNTE2LDU2My43OTQ0IDgwNC41MDcsNTc1Ljc1NzUgQzgxNi4xODQ4LDU4MS43MzkxIDgyNS44MzE4LDU4Ni42ODAzIDgzMi43NzYyLDU5MC4yMzcxIEM4MzMuNjQ0Miw1OTAuNjgxNyA4MzQuNDcwMSw1OTEuMTA0NyA4MzUuMjUyNCw1OTEuNTA1MyBDODM1LjY0MzUsNTkxLjcwNTcgODM2LjAyMzgsNTkxLjkwMDQgODM2LjM5Myw1OTIuMDg5NSBDODM2LjU3NzYsNTkyLjE4NDEgODMxLjQxOTEsNTg5LjU0MjEgODMxLjU5ODEsNTg5LjYzMzggIiBmaWxsPSJub25lIiBpZD0iRGV2aWNlIE1hbmFnZW1lbnQgU2VydmljZS10by1Qb3N0Z3JlU1FMIiBzdHlsZT0ic3Ryb2tlOiMwMDAwMDA7c3Ryb2tlLXdpZHRoOjEuMDsiLz48cG9seWdvbiBmaWxsPSIjMDAwMDAwIiBwb2ludHM9IjgzNi45Mzg1LDU5Mi4zNjg5LDgzMC43NTE0LDU4NC43MDYsODMyLjQ4ODIsNTkwLjA4OTcsODI3LjEwNDYsNTkxLjgyNjUsODM2LjkzODUsNTkyLjM2ODkiIHN0eWxlPSJzdHJva2U6IzAwMDAwMDtzdHJva2Utd2lkdGg6MS4wOyIvPjwvZz48IS0tbGluayBVc2VyIE1hbmFnZW1lbnQgU2VydmljZSB0byBQb3N0Z3JlU1FMLS0+PGcgaWQ9ImxpbmtfVXNlciBNYW5hZ2VtZW50IFNlcnZpY2VfUG9zdGdyZVNRTCI+PHBhdGggZD0iTTY4OS4xMiwzMjIuODkgQzY5NS4xNiwzMjMuNyA3MDEuMTUsMzI0LjQxIDcwNywzMjUgQzczMS43NCwzMjcuNDggMTU4NC42LDMyNi4yMyAxNjAyLDM0NCBDMTYzNi4yLDM3OC45MyAxNjM2LjM4LDQxOS4yNCAxNjAyLDQ1NCBDMTU4Ny41OCw0NjguNTcgODc5LjQsNDQ4LjQ3IDg2NCw0NjIgQzg1Mi44Mzc1LDQ3MS44MDI1IDg0Ni4wMTgxLDQ4NC45MjYzIDg0Mi4wODAzLDQ5OS4xNDI4IEM4NDEuMDk1OSw1MDIuNjk3IDg0MC4yOTE1LDUwNi4zMTk0IDgzOS42NDQ0LDUwOS45NzUzIEM4MzkuMzIwOSw1MTEuODAzMyA4MzkuMDM2Niw1MTMuNjM5NiA4MzguNzg4OSw1MTUuNDggQzgzOC42NjUsNTE2LjQwMDEgODM4LjU1MDIsNTE3LjMyMTMgODM4LjQ0NDIsNTE4LjI0MyBDODM4LjQxNzcsNTE4LjQ3MzQgODM5LjA0OTQsNTEyLjc0IDgzOS4wMjQsNTEyLjk3MDQgIiBmaWxsPSJub25lIiBpZD0iVXNlciBNYW5hZ2VtZW50IFNlcnZpY2UtdG8tUG9zdGdyZVNRTCIgc3R5bGU9InN0cm9rZTojMDAwMDAwO3N0cm9rZS13aWR0aDoxLjA7Ii8+PHBvbHlnb24gZmlsbD0iIzAwMDAwMCIgcG9pbnRzPSI4MzguMzY2Myw1MTguOTM0Myw4NDMuMzI4Nyw1MTAuNDI2OSw4MzguOTE0NCw1MTMuOTY0NCw4MzUuMzc2OSw1MDkuNTUsODM4LjM2NjMsNTE4LjkzNDMiIHN0eWxlPSJzdHJva2U6IzAwMDAwMDtzdHJva2Utd2lkdGg6MS4wOyIvPjwvZz48IS0tbGluayBBc3NldCBNYW5hZ2VtZW50IFNlcnZpY2UgdG8gUG9zdGdyZVNRTC0tPjxnIGlkPSJsaW5rX0Fzc2V0IE1hbmFnZW1lbnQgU2VydmljZV9Qb3N0Z3JlU1FMIj48cGF0aCBkPSJNNzU1LjU5LDQzMC4wNyBDNzY4LjY0NSw0NTQuMzc1IDc5MC41MDc1LDQ5NS4wNzI1IDgwOS4zNDUsNTMwLjEzNzUgQzgxOC43NjM4LDU0Ny42NyA4MjcuNDI2Myw1NjMuNzk0NCA4MzMuODUzNCw1NzUuNzU3NSBDODM0LjY1NjgsNTc3LjI1MjkgODM1LjQyNTMsNTc4LjY4MzMgODM2LjE1Niw1ODAuMDQzMiBDODM2LjMzODYsNTgwLjM4MzIgODM2LjUxODksNTgwLjcxODggODM2LjY5NjgsNTgxLjA0OTkgQzgzNi43ODU4LDU4MS4yMTU1IDgzNC4wMzQ0LDU3Ni4wOTQ0IDgzNC4xMjIyLDU3Ni4yNTc4ICIgZmlsbD0ibm9uZSIgaWQ9IkFzc2V0IE1hbmFnZW1lbnQgU2VydmljZS10by1Qb3N0Z3JlU1FMIiBzdHlsZT0ic3Ryb2tlOiMwMDAwMDA7c3Ryb2tlLXdpZHRoOjEuMDsiLz48cG9seWdvbiBmaWxsPSIjMDAwMDAwIiBwb2ludHM9IjgzNi45NjE4LDU4MS41NDMyLDgzNi4yMjYsNTcxLjcyMTksODM0LjU5NTQsNTc3LjEzODcsODI5LjE3ODcsNTc1LjUwODEsODM2Ljk2MTgsNTgxLjU0MzIiIHN0eWxlPSJzdHJva2U6IzAwMDAwMDtzdHJva2Utd2lkdGg6MS4wOyIvPjwvZz48IS0tbGluayBSdWxlIEVuZ2luZSB0byBUaW1lIFNlcmllcyBEYXRhIEhhbmRsZXItLT48ZyBpZD0ibGlua19SdWxlIEVuZ2luZV9UaW1lIFNlcmllcyBEYXRhIEhhbmRsZXIiPjxwYXRoIGQ9Ik00NTEuNTksMzIxLjY3IEM0NTcuNDMsMzIzIDQ2My4zLDMyNC4xNSA0NjksMzI1IEM1NjYuODIsMzM5LjY0IDEyNjMuMSwzMTkuNzggMTM1OSwzNDQgQzEzOTEuNTMsMzUyLjIyIDE0MjAuMTMzMiwzNjcuMTkwMyAxNDQzLjg1MzIsMzgxLjgyMDMgIiBmaWxsPSJub25lIiBpZD0iUnVsZSBFbmdpbmUtdG8tVGltZSBTZXJpZXMgRGF0YSBIYW5kbGVyIiBzdHlsZT0ic3Ryb2tlOiMwMDAwMDA7c3Ryb2tlLXdpZHRoOjEuMDsiLz48cG9seWdvbiBmaWxsPSIjMDAwMDAwIiBwb2ludHM9IjE0NDguOTYsMzg0Ljk3LDE0NDMuMzk5NywzNzYuODQwOSwxNDQ0LjcwNDQsMzgyLjM0NTIsMTQzOS4yLDM4My42NDk5LDE0NDguOTYsMzg0Ljk3IiBzdHlsZT0ic3Ryb2tlOiMwMDAwMDA7c3Ryb2tlLXdpZHRoOjEuMDsiLz48L2c+PCEtLWxpbmsgVGltZSBTZXJpZXMgRGF0YSBIYW5kbGVyIHRvIFBvc3RncmVTUUwtLT48ZyBpZD0ibGlua19UaW1lIFNlcmllcyBEYXRhIEhhbmRsZXJfUG9zdGdyZVNRTCI+PHBhdGggZD0iTTE0MzQuNTcsNDMwLjA4IEMxNDEyLjIzLDQzOS4zNCAxMzg0Ljc3LDQ0OS4xNCAxMzU5LDQ1NCBDMTM0NS40OSw0NTYuNTUgODc0LjMxLDQ1Mi45IDg2NCw0NjIgQzg1Mi44NjI1LDQ3MS44MzI1IDg0Ni4wNTYzLDQ4NC45NzEyIDg0Mi4xMjM5LDQ5OS4xOTM0IEM4NDEuMTQwOCw1MDIuNzQ5IDg0MC4zMzc0LDUwNi4zNzIyIDgzOS42OTA3LDUxMC4wMjg1IEM4MzkuMzY3NCw1MTEuODU2NiA4MzkuMDgzMyw1MTMuNjkzIDgzOC44MzU2LDUxNS41MzMzIEM4MzguNzExNyw1MTYuNDUzNCA4MzguNTk3LDUxNy4zNzQ1IDgzOC40OTA5LDUxOC4yOTYgQzgzOC40NjQ0LDUxOC41MjY0IDgzOS4wOTY0LDUxMi43OTMgODM5LjA3MSw1MTMuMDIzNSAiIGZpbGw9Im5vbmUiIGlkPSJUaW1lIFNlcmllcyBEYXRhIEhhbmRsZXItdG8tUG9zdGdyZVNRTCIgc3R5bGU9InN0cm9rZTojMDAwMDAwO3N0cm9rZS13aWR0aDoxLjA7Ii8+PHBvbHlnb24gZmlsbD0iIzAwMDAwMCIgcG9pbnRzPSI4MzguNDEzLDUxOC45ODczLDg0My4zNzU5LDUxMC40ODAyLDgzOC45NjEzLDUxNC4wMTc0LDgzNS40MjQxLDUwOS42MDI5LDgzOC40MTMsNTE4Ljk4NzMiIHN0eWxlPSJzdHJva2U6IzAwMDAwMDtzdHJva2Utd2lkdGg6MS4wOyIvPjwvZz48IS0tbGluayBSdWxlIEVuZ2luZSB0byBSZWRpcy0tPjxnIGlkPSJsaW5rX1J1bGUgRW5naW5lX1JlZGlzIj48cGF0aCBkPSJNNDUxLjYyLDMyMS41MSBDNDU3LjQ1LDMyMi44NyA0NjMuMzIsMzI0LjA3IDQ2OSwzMjUgQzUxMi41OSwzMzIuMTEgODI2LjQ1LDMyNC4zNSA4NjYsMzQ0IEM5MjMuMDgsMzcyLjM1IDkwMC42Nyw0MjYuMTUgOTU4LDQ1NCBDOTg0LjQsNDY2LjgzIDExOTcuODMsNDQ1LjM1IDEyMjIsNDYyIEMxMjQ4LjI0NSw0ODAuMDggMTI2Mi4yMiw1MTIuOTQ1IDEyNjkuNjQ2Myw1NDEuNjYxMyBDMTI2OS43NjIzLDU0Mi4xMDk5IDEyNjguNDA2Nyw1MzYuNzQwNSAxMjY4LjUxOTUsNTM3LjE4NzEgIiBmaWxsPSJub25lIiBpZD0iUnVsZSBFbmdpbmUtdG8tUmVkaXMiIHN0eWxlPSJzdHJva2U6IzAwMDAwMDtzdHJva2Utd2lkdGg6MS4wOyIvPjxwb2x5Z29uIGZpbGw9IiMwMDAwMDAiIHBvaW50cz0iMTI2OS45ODk2LDU0My4wMDQyLDEyNzEuNjYyNiw1MzMuMjk4NSwxMjY4Ljc2NDUsNTM4LjE1NjYsMTI2My45MDY0LDUzNS4yNTg2LDEyNjkuOTg5Niw1NDMuMDA0MiIgc3R5bGU9InN0cm9rZTojMDAwMDAwO3N0cm9rZS13aWR0aDoxLjA7Ii8+PC9nPjwhLS1saW5rIEF1dGhlbnRpY2F0aW9uIFNlcnZpY2UgdG8gUmVkaXMtLT48ZyBpZD0ibGlua19BdXRoZW50aWNhdGlvbiBTZXJ2aWNlX1JlZGlzIj48cGF0aCBkPSJNOTE4LjA5LDMyMi43NyBDOTI0LjE0LDMyMy42MiA5MzAuMTQsMzI0LjM4IDkzNiwzMjUgQzk3NC45MSwzMjkuMTQgMTYxMi43MSwzMTUuOTYgMTY0MCwzNDQgQzE2NzQuMSwzNzkuMDMgMTY3NC4xNiw0MTkuMDMgMTY0MCw0NTQgQzE2MjYuNjgsNDY3LjYzIDEzMTEuMjQsNDQ5LjMzIDEyOTcsNDYyIEMxMjg1Ljg5NzUsNDcxLjg3MjUgMTI3OS4xMDg4LDQ4NS4wMzEzIDEyNzUuMTgzLDQ5OS4yNjA5IEMxMjc0LjIwMTUsNTAyLjgxODQgMTI3My4zOTksNTA2LjQ0MjcgMTI3Mi43NTI4LDUxMC4wOTk0IEMxMjcyLjQyOTYsNTExLjkyNzcgMTI3Mi4xNDU2LDUxMy43NjQxIDEyNzEuODk3OCw1MTUuNjA0MyBDMTI3MS43NzM5LDUxNi41MjQ0IDEyNzIuMzQ1Nyw1MTEuNDg0OCAxMjcyLjIzOTUsNTEyLjQwNjMgIiBmaWxsPSJub25lIiBpZD0iQXV0aGVudGljYXRpb24gU2VydmljZS10by1SZWRpcyIgc3R5bGU9InN0cm9rZTojMDAwMDAwO3N0cm9rZS13aWR0aDoxLjA7Ii8+PHBvbHlnb24gZmlsbD0iIzAwMDAwMCIgcG9pbnRzPSIxMjcxLjU1MjksNTE4LjM2NjgsMTI3Ni41NTY2LDUwOS44ODM4LDEyNzIuMTI1MSw1MTMuMzk5NywxMjY4LjYwOTEsNTA4Ljk2ODIsMTI3MS41NTI5LDUxOC4zNjY4IiBzdHlsZT0ic3Ryb2tlOiMwMDAwMDA7c3Ryb2tlLXdpZHRoOjEuMDsiLz48L2c+PCEtLWxpbmsgUGx1Z2luIE1hbmFnZXIgdG8gRXh0ZXJuYWwgU2VydmljZSBDb25uZWN0b3JzLS0+PGcgaWQ9ImxpbmtfUGx1Z2luIE1hbmFnZXJfRXh0ZXJuYWwgU2VydmljZSBDb25uZWN0b3JzIj48cGF0aCBkPSJNMTE0MSw4OS4wNSBDMTE0MSwxMDkuNzUgMTE0MSwxMzQuODggMTE0MSwxNTUuNjcgIiBmaWxsPSJub25lIiBpZD0iUGx1Z2luIE1hbmFnZXItdG8tRXh0ZXJuYWwgU2VydmljZSBDb25uZWN0b3JzIiBzdHlsZT0ic3Ryb2tlOiMwMDAwMDA7c3Ryb2tlLXdpZHRoOjEuMDsiLz48cG9seWdvbiBmaWxsPSIjMDAwMDAwIiBwb2ludHM9IjExNDEsMTYxLjY3LDExNDUsMTUyLjY3LDExNDEsMTU2LjY3LDExMzcsMTUyLjY3LDExNDEsMTYxLjY3IiBzdHlsZT0ic3Ryb2tlOiMwMDAwMDA7c3Ryb2tlLXdpZHRoOjEuMDsiLz48L2c+PCEtLWxpbmsgUnVsZSBFbmdpbmUgdG8gTm90aWZpY2F0aW9uIFNlcnZpY2UtLT48ZyBpZD0ibGlua19SdWxlIEVuZ2luZV9Ob3RpZmljYXRpb24gU2VydmljZSI+PHBhdGggZD0iTTQ1MS42MSwzMjEuNTUgQzQ1Ny40NSwzMjIuOSA0NjMuMzEsMzI0LjA5IDQ2OSwzMjUgQzU3MS4xMywzNDEuMyA4MzMuNjYsMzE4Ljk3IDkzNCwzNDQgQzk2OC4wMiwzNTIuNDkgOTk4LjQ5OTUsMzY3LjQwNDkgMTAyMy44NTk1LDM4MS44ODQ5ICIgZmlsbD0ibm9uZSIgaWQ9IlJ1bGUgRW5naW5lLXRvLU5vdGlmaWNhdGlvbiBTZXJ2aWNlIiBzdHlsZT0ic3Ryb2tlOiMwMDAwMDA7c3Ryb2tlLXdpZHRoOjEuMDsiLz48cG9seWdvbiBmaWxsPSIjMDAwMDAwIiBwb2ludHM9IjEwMjkuMDcsMzg0Ljg2LDEwMjMuMjM3NywzNzYuOTIzOCwxMDI0LjcyNzksMzgyLjM4MDgsMTAxOS4yNzA5LDM4My44NzExLDEwMjkuMDcsMzg0Ljg2IiBzdHlsZT0ic3Ryb2tlOiMwMDAwMDA7c3Ryb2tlLXdpZHRoOjEuMDsiLz48L2c+PCEtLWxpbmsgUnVsZSBFbmdpbmUgdG8gR01ONDktLT48ZyBpZD0ibGlua19SdWxlIEVuZ2luZV9HTU40OSI+PHBhdGggZD0iTTQxNC4yNywyNzkuOTYgQzQyOC41LDI2Ni4xNSA0NDguMzYsMjQ5LjI0IDQ2OSwyMzkgQzQ3Ni4xNSwyMzUuNDYgNDc4LjU3LDIzNS44OSA0ODYuNSwyMzUgQzUxMC4yNCwyMzIuMzIgODkyLjc2LDIzMi4zMiA5MTYuNSwyMzUgQzk1Ny4wNiwyMzkuNTggOTk3LjgyLDI2NS4wOSAxMDIyLjQ5LDI4My40ICIgZmlsbD0ibm9uZSIgaWQ9IlJ1bGUgRW5naW5lLUdNTjQ5IiBzdHlsZT0ic3Ryb2tlOiMwMDAwMDA7c3Ryb2tlLXdpZHRoOjEuMDtzdHJva2UtZGFzaGFycmF5OjcuMCw3LjA7Ii8+PC9nPjwhLS1TUkM9W1pMTERRLUNtNEJ0aEx5cHN0YWtGVXJXOFJnMjVVNGJoYnBycVNyMlNZSURnSXFRSXN1UWJfdHJiSV93SVBUQ1MwZmh0dmRpVV9nNGxNMjlLMU1NU2czVjZBb2ZmMlBhZUF5Nkh3cUhWMnVJd0JFdThnTVpzSGRFNGN3WFcxZThUbFFBeVdOeTRwRV9yM254WHZWNVc3eDR1Q2tFdGdRZzJQTEdwbUhzbV9UR2VFSXFXa0lnRGZKZ0docjdXTDVBa0FZN3pzRjVKY2E4RmtiMEZRUmdWNklFbmNIanQ3XzVURkJRRVNxUDI4WUdldHJjNmdpX3VOOWxvanBuZDc1c0dVc21PNDVEa3RDZ2NWLVZheThySWc5Vlg1dUxvblJhc1UtM1FwTWUwbnVOVUtxcVhxS0FRTHJWZG9UWUVMMWJxQnZKRTlJUEZrbXVSTHp0dTdXUGhNcW1hLTlkYmpNbkpnWDdnRWE1REp4dFJMX2xsdk5wNjRyRUpUMTdEQmVwZFRkc1R2eFk5bEhIY3BBaGR6MERGTVRja1dRNWdndUs3b2F6NTUtSHItenVDUlYxc3ZqejJpX0ZncjF3dm5qcHN3Nk5TNXhMUGh6azlkRHNkM1RQQ1lNRGNmY3ZGakpqcGtCdHpESl8xcURyUmZkXzFTbzY0OG5CVnF6OGN2LWF4WElZVUJhOEtOb0sxM2ZheUJNNTU1bTdzaWFoOElZSmhFdm91MlJzYWZtMXJDVVVTNm9mdi1KQU5lVXo1UmxOSjUxWE1fdUg0XzdrcndFZ3oxYkE2MUtFdXEwWUl2SFNEdVpuVEVsbzRvMUdkSkd1WGltaWdSVE5xYnZqVWVIaHF0N3lwX1dDMF0tLT48L2c+PC9zdmc+;" vertex="1" parent="1">
            <mxGeometry x="48.980000000000004" y="720" width="1169.02" height="548" as="geometry" />
          </mxCell>
        </UserObject>
      </root>
    </mxGraphModel>
  </diagram>
</mxfile>
